<?xml version="1.0" standalone="no"?>
<!DOCTYPE svg PUBLIC "-//W3C//DTD SVG 1.1//EN" "http://www.w3.org/Graphics/SVG/1.1/DTD/svg11.dtd" >
<svg>
<metadata>
Created by FontForge 20090914 at Tue Jul 20 16:24:09 2021
 By www-data
</metadata>
<defs>
<font id="Benzin-Bold" horiz-adv-x="797" >
  <font-face 
    font-family="Benzin-Bold"
    font-weight="400"
    font-stretch="normal"
    units-per-em="1000"
    panose-1="0 0 8 0 0 0 0 0 0 0"
    ascent="770"
    descent="-230"
    x-height="545"
    cap-height="740"
    bbox="-591 -280 2024 1097"
    underline-thickness="50"
    underline-position="-50"
    unicode-range="U+0020-U+25CA"
  />
<missing-glyph horiz-adv-x="550" 
d="M102 910h349v-1100h-349v1100zM366 800v36h-181v-36h71v-41h-72v-36h182v36h-72v41h72zM294 617v77h-110v-114h182v37h-72zM220 657h36v-40h-36v40zM366 514v36h-182v-36h72v-41h-72v-36h110v77h72zM366 374v110h-36v-72h-146v-38h182zM366 226v124h-110v-61h38v25h36
v-52h-110v88h-36v-124h182zM366 36v124h-182v-124h182zM220 124h110v-52h-110v52zM366 -26v36h-182v-36h77l-77 -52v-36h182v36h-112l77 52h35z" />
    <glyph glyph-name=".notdef" horiz-adv-x="550" 
d="M102 910h349v-1100h-349v1100zM366 800v36h-181v-36h71v-41h-72v-36h182v36h-72v41h72zM294 617v77h-110v-114h182v37h-72zM220 657h36v-40h-36v40zM366 514v36h-182v-36h72v-41h-72v-36h110v77h72zM366 374v110h-36v-72h-146v-38h182zM366 226v124h-110v-61h38v25h36
v-52h-110v88h-36v-124h182zM366 36v124h-182v-124h182zM220 124h110v-52h-110v52zM366 -26v36h-182v-36h77l-77 -52v-36h182v36h-112l77 52h35z" />
    <glyph glyph-name="space" unicode=" " horiz-adv-x="313" 
 />
    <glyph glyph-name="exclam" unicode="!" horiz-adv-x="330" 
d="M104 230l-68 510h258l-68 -510h-122zM57 185v-185h216v185h-216z" />
    <glyph glyph-name="quotedbl" unicode="&#x22;" horiz-adv-x="556" 
d="M35 740l50 -330h119l50 330h-219zM302 740l50 -330h119l50 330h-219z" />
    <glyph glyph-name="numbersign" unicode="#" horiz-adv-x="817" 
d="M781 535l-32 -112h-116l-34 -121h118l-33 -112h-117l-53 -190h-144l53 190h-147l-53 -190h-144l53 190h-118l32 112h118l34 121h-119l32 112h118l58 205h144l-58 -205h147l58 205h144l-58 -205h117zM308 302h147l34 121h-147z" />
    <glyph glyph-name="dollar" unicode="$" horiz-adv-x="956" 
d="M537 440l40.998 -0.000976562c66.667 0 124.834 -4.5 174.501 -13.5s91.167 -28 124.5 -57s50 -71.833 50 -128.5c0 -93.333 -38.5 -159.166 -115.5 -197.499s-168.5 -60.166 -274.5 -65.499v-114h-119v115c-106 6 -198.667 28.5 -278 67.5s-119 104.833 -119 197.5
l255 1c0 -60.667 47.333 -95.334 142 -104.001v161c-76.667 -0.666992 -142.5 3 -197.5 11s-102 27.333 -141 58s-58.5 77.334 -58.5 140.001c0 156.667 132.333 240 397 250v114h119v-114c104.667 -5.33301 195.834 -27.333 273.501 -66s116.5 -105.334 116.5 -200.001
h-251c0 29.333 -13.833 51.5 -41.5 66.5s-60.167 25.167 -97.5 30.5v-152zM417.998 440.999v152.999c-38.667 -4 -72.167 -12.167 -100.5 -24.5s-42.5 -30.833 -42.5 -55.5c0 -41.333 47.667 -65.666 143 -72.999zM536.998 299.998v-158c41.333 4.66699 75 14.667 101 30
s39 37 39 65v1c0 37.333 -46.667 58 -140 62z" />
    <glyph glyph-name="percent" unicode="%" horiz-adv-x="860" 
d="M210 0h-190l650 700h190zM164 397.5c-24.667 14.333 -44.167 33.833 -58.5 58.5s-21.5 51.334 -21.5 80.001s7.16699 55.334 21.5 80.001s33.833 44.167 58.5 58.5s51.334 21.5 80.001 21.5s55.334 -7.16699 80.001 -21.5s44.167 -33.833 58.5 -58.5
s21.5 -51.334 21.5 -80.001s-7.16699 -55.334 -21.5 -80.001s-33.833 -44.167 -58.5 -58.5s-51.334 -21.5 -80.001 -21.5s-55.334 7.16699 -80.001 21.5zM284.5 495c11 11.333 16.5 25 16.5 41s-5.5 29.667 -16.5 41s-24.5 17 -40.5 17s-29.5 -5.66699 -40.5 -17
s-16.5 -25 -16.5 -41s5.5 -29.667 16.5 -41s24.5 -17 40.5 -17s29.5 5.66699 40.5 17zM556 27.5c-24.667 14.333 -44.167 33.833 -58.5 58.5s-21.5 51.334 -21.5 80.001s7.16699 55.334 21.5 80.001s33.833 44.167 58.5 58.5s51.334 21.5 80.001 21.5
s55.334 -7.16699 80.001 -21.5s44.167 -33.833 58.5 -58.5s21.5 -51.334 21.5 -80.001s-7.16699 -55.334 -21.5 -80.001s-33.833 -44.167 -58.5 -58.5s-51.334 -21.5 -80.001 -21.5s-55.334 7.16699 -80.001 21.5zM676 126c11.333 11.333 17 24.665 17 39.998
c0 16 -5.66699 29.5 -17 40.5s-24.666 16.5 -39.999 16.5s-28.666 -5.66699 -39.999 -17s-17 -24.666 -17 -39.999s5.66699 -28.666 17 -39.999s24.666 -17 39.999 -17s28.666 5.66699 39.999 17z" />
    <glyph glyph-name="ampersand" unicode="&#x26;" horiz-adv-x="1027" 
d="M1026 0h-252.001l-46 34c-40.667 -14.667 -83 -25.667 -127 -33s-86.667 -11 -128 -11c-128.667 0 -238.834 17 -330.501 51s-137.5 91.667 -137.5 173c0 47.333 20.667 83.833 62 109.5s100 47.834 176 66.501l-49 37c-27.333 20.667 -48.166 42 -62.499 64
s-21.5 44 -21.5 66c0 48 18 87.167 54 117.5s81.167 52.166 135.5 65.499s110.5 20 168.5 20c70 0 129.667 -9.33301 179 -28s86.333 -42.667 111 -72s37 -60 37 -92c0 -34.667 -12.333 -64.5 -37 -89.5s-55.667 -45.833 -93 -62.5s-83.666 -33.334 -138.999 -50.001
l237 -174c46.667 46.667 70 106.334 70 179.001h154c0 -105.333 -39 -191 -117 -257zM429.999 436c46 14.667 81.667 32 107 52s38 46 38 78c0 26 -9.5 47.667 -28.5 65s-48.167 26 -87.5 26c-36 0 -64.667 -8.16699 -86 -24.5s-32 -38.833 -32 -67.5
c0 -39.333 29.667 -82.333 89 -129zM616.999 115l-263 193c-29.333 -13.333 -51.833 -27.333 -67.5 -42s-23.5 -32 -23.5 -52c0 -19.333 9.16699 -38 27.5 -56s43.5 -32.667 75.5 -44s67.667 -17 107 -17c50 0 98 6 144 18z" />
    <glyph glyph-name="quotesingle" unicode="'" horiz-adv-x="289" 
d="M35 740l50 -330h119l50 330h-219z" />
    <glyph glyph-name="parenleft" unicode="(" horiz-adv-x="333" 
d="M223 -130c-70 98.667 -122.166 190.499 -156.499 275.499s-51.5 168.167 -51.5 249.5c0 80 17 161.833 51 245.5s86.333 173.5 157 269.5h140c-42 -93.333 -73 -181.166 -93 -263.499s-30 -163.833 -30 -244.5c0 -81.333 10.167 -165 30.5 -251
s51.166 -179.667 92.499 -281h-140z" />
    <glyph glyph-name="parenright" unicode=")" horiz-adv-x="328" 
d="M-35 -130c41.333 101.333 72.167 195.001 92.5 281.001s30.5 169.667 30.5 251c0 80.667 -10 162.167 -30 244.5s-51 170.166 -93 263.499h140c70.667 -96 123 -185.833 157 -269.5s51 -165.5 51 -245.5c0 -81.333 -17.167 -164.5 -51.5 -249.5
s-86.5 -176.833 -156.5 -275.5h-140z" />
    <glyph glyph-name="asterisk" unicode="*" horiz-adv-x="453" 
d="M300 565l103 -43l-50 -88l-92 73l16 -117h-100l15 114l-91 -71l-50 88l111 43l-112 45l50 87l92 -68l-15 112h100l-15 -115l90 72l50 -86z" />
    <glyph glyph-name="plus" unicode="+" horiz-adv-x="477" 
d="M296 381h166v-115h-166v-166h-115v166h-166v115h166v166h115v-166z" />
    <glyph glyph-name="comma" unicode="," horiz-adv-x="267" 
d="M25 0v185h217v-185l-94 -113h-120l94 113h-97z" />
    <glyph glyph-name="hyphen" unicode="-" horiz-adv-x="415" 
d="M33 221v137h349v-137h-349z" />
    <glyph glyph-name="period" unicode="." horiz-adv-x="267" 
d="M25 185v-185h217v185h-217z" />
    <glyph glyph-name="slash" unicode="/" horiz-adv-x="552" 
d="M-40 -117l404 957h218l-404 -957h-218z" />
    <glyph glyph-name="zero" unicode="0" horiz-adv-x="979" 
d="M960 373c0 -98.667 -31.167 -187.832 -93.5 -267.499s-185.833 -119.5 -370.5 -119.5c-130 0 -230.667 21.667 -302 65s-118.833 94 -142.5 152s-34.5 114.667 -32.5 170c0 96 33 182.833 99 260.5s192 116.5 378 116.5c309.333 1.33301 464 -124.334 464 -377.001z
M638.5 196.502c36.333 19.667 62.166 45 77.499 76s22.333 64.833 21 101.5c1.33301 34.667 -5.66699 66.667 -21 96s-41.166 53.333 -77.499 72s-83.5 28 -141.5 28c-57.333 0 -104 -9.33301 -140 -28s-61.667 -42.667 -77 -72s-22.333 -61.333 -21 -96
c-1.33301 -36.667 5.66699 -70.5 21 -101.5s41 -56.333 77 -76s82.667 -29.5 140 -29.5c58 0 105.167 9.83301 141.5 29.5z" />
    <glyph glyph-name="one" unicode="1" horiz-adv-x="466" 
d="M425 740l0.000976562 -740h-232v480h-167v134c66 0 115.167 7.66699 147.5 23s52.166 31.833 59.499 49.5s11 35.5 11 53.5h181z" />
    <glyph glyph-name="two" unicode="2" horiz-adv-x="976" 
d="M954 178l-0.000976562 -178.002h-929v95c0 85.333 20 150.833 60 196.5s84.5 76.334 133.5 92.001s109.167 29.167 180.5 40.5c28 4.66699 58.667 8.66699 92 12c44 5.33301 78.5 10.333 103.5 15s45.833 12.167 62.5 22.5s25 24.166 25 41.499
c0 29.333 -20.333 50.833 -61 64.5s-90 20.5 -148 20.5c-55.333 -0.666992 -102.333 -9.5 -141 -26.5s-58 -43.167 -58 -78.5h-249c0 102.667 46.333 172.834 139 210.501s195.667 56.5 309 56.5c120.667 0 227.834 -16 321.501 -48s140.5 -99 140.5 -201
c0 -53.333 -17.667 -95.833 -53 -127.5s-75.166 -54.167 -119.499 -67.5s-93.833 -24.666 -148.5 -33.999l-32 -6c-3.33301 0 -14 -1.66699 -32 -5c-88.667 -12.667 -161.834 -26.167 -219.501 -40.5s-86.5 -32.5 -86.5 -54.5h710z" />
    <glyph glyph-name="three" unicode="3" horiz-adv-x="974" 
d="M944 245c-0.666992 -92.667 -42.6729 -160.337 -126.006 -203.004s-192 -64 -326 -64c-151.333 0 -267 25.833 -347 77.5s-120 129.5 -120 233.5h234c0 -51.333 22.667 -88.833 68 -112.5s100.333 -35.167 165 -34.5c56.667 -1.33301 104.834 6.33398 144.501 23.001
s59.834 43.334 60.501 80.001c-0.666992 18.667 -5.66699 32.834 -15 42.501s-24.666 16.334 -45.999 20.001s-51.333 5.5 -90 5.5h-185v144h185c52.667 0 90.334 6.66699 113.001 20s34 29.666 34 48.999c0 24.667 -19.5 42.834 -58.5 54.501s-86.5 17.834 -142.5 18.501
c-64.667 0 -119.667 -6.83301 -165 -20.5s-68 -34.834 -68 -63.501h-234c0 96 48.5 161.167 145.5 195.5s204.167 51.5 321.5 51.5c71.333 0 137.833 -4.5 199.5 -13.5s115.834 -29.833 162.501 -62.5s70 -81 70 -145c0 -65.333 -40 -110 -120 -134
c86.667 -26 133.334 -79.333 140.001 -160v-2v0z" />
    <glyph glyph-name="four" unicode="4" horiz-adv-x="915" 
d="M784 290h105v-178h-105v-112h-232v112h-526v178l526 450h232v-450zM552 540l-285 -250h285v250z" />
    <glyph glyph-name="five" unicode="5" horiz-adv-x="937" 
d="M916 259l-256 5zM916 258c-2 -72.667 -28.334 -129.831 -79.001 -171.498s-109.834 -70 -177.501 -85s-134.167 -22.5 -199.5 -22.5c-60 0 -122 8.33301 -186 25s-118.833 45 -164.5 85s-68.5 92.333 -68.5 157h232c0 -34 18 -59.5 54 -76.5s79.667 -26.5 131 -28.5
c56 -2.66699 103.667 5.66602 143 24.999s59 51.666 59 96.999s-16 79.666 -48 102.999s-83.333 35 -154 35c-53.333 0 -97.833 -9.16699 -133.5 -27.5s-53.5 -44.166 -53.5 -77.499v-2l-227 -1v447h837v-150h-610v-132c36.667 24 80.834 41 132.501 51s106.167 15 163.5 15
c68 0 128.333 -10.5 181 -31.5s93.834 -51.5 123.501 -91.5s44.5 -87.333 44.5 -142v-1z" />
    <glyph glyph-name="six" unicode="6" horiz-adv-x="982" 
d="M960 245c0 -60 -19.8359 -110 -59.5029 -150s-93 -69.5 -160 -88.5s-142.5 -28.5 -226.5 -28.5c-149.333 0 -264.666 24.833 -345.999 74.5s-129.333 128.5 -144 236.5c-0.666992 10.667 -1 26 -1 46c0 160 48 270.167 144 330.5s211.667 90.5 347 90.5
c130.667 0 234.334 -20.5 311.001 -61.5s115 -106.167 115 -195.5h-223c0 35.333 -19.5 60.833 -58.5 76.5s-86.833 22.5 -143.5 20.5c-63.333 0.666992 -119 -13 -167 -41s-76.667 -72.667 -86 -134c43.333 25.333 94.333 41.5 153 48.5s123 10.5 193 10.5
s131.333 -9.16699 184 -27.5s93.834 -45 123.501 -80s44.5 -76.833 44.5 -125.5v-1v-1zM665.997 166.5c41.333 16.333 62 42.834 62 79.501c0 44.667 -20.167 74.667 -60.5 90s-99.833 23 -178.5 23c-146.667 0 -219 -28.667 -217 -86h-1c0 -40 15.167 -69.5 45.5 -88.5
s61.333 -30.5 93 -34.5s66.834 -6.33301 105.501 -7c59.333 -0.666992 109.666 7.16602 150.999 23.499z" />
    <glyph glyph-name="seven" unicode="7" horiz-adv-x="804" 
d="M808 740l-400 -740h-238l307 568h-461v172h792z" />
    <glyph glyph-name="eight" unicode="8" horiz-adv-x="977" 
d="M948 238c0 -100.667 -45.832 -169.832 -137.499 -207.499s-194.167 -56.5 -307.5 -56.5c-122.667 0 -232.334 16.833 -329.001 50.5s-145 104.834 -145 213.501c-0.666992 83.333 33 142.666 101 177.999c-48.667 27.333 -73 70.333 -73 129c0 91.333 44 150.333 132 177
s185.333 40 292 40c111.333 0 212.333 -13.333 303 -40s136 -85.334 136 -176.001c0 -61.333 -25.667 -106 -77 -134c70 -35.333 105 -93.333 105 -174zM342.001 603.002c-38 -12 -57 -31.333 -57 -58c0 -26 19.167 -44.833 57.5 -56.5s84.833 -16.834 139.5 -15.501
c57.333 -1.33301 106 3.83398 146 15.501s60 30.5 60 56.5c0 26.667 -20 46 -60 58s-89 17.667 -147 17c-54.667 0.666992 -101 -5 -139 -17zM654.501 160.502c47 16.333 70.5 42.5 70.5 78.5c0 36.667 -23.5 63.167 -70.5 79.5s-104.5 24.166 -172.5 23.499
c-65.333 0.666992 -120.833 -7.16602 -166.5 -23.499s-68.5 -42.833 -68.5 -79.5c0 -36 22.833 -62.167 68.5 -78.5s101.167 -24.166 166.5 -23.499c68 -0.666992 125.5 7.16602 172.5 23.499z" />
    <glyph glyph-name="nine" unicode="9" horiz-adv-x="980" 
d="M958 403c0 -160 -47.9971 -270.167 -143.997 -330.5s-211.667 -90.5 -347 -90.5c-130.667 0 -234.334 20.5 -311.001 61.5s-115 106.167 -115 195.5h223c0 -35.333 19.5 -60.833 58.5 -76.5s86.833 -22.5 143.5 -20.5c63.333 -0.666992 119 13 167 41
s76.667 72.667 86 134c-43.333 -25.333 -94.333 -41.5 -153 -48.5s-123 -10.5 -193 -10.5s-131.333 9.16699 -184 27.5s-93.834 45 -123.501 80s-44.5 76.833 -44.5 125.5v1v1c0 60 19.833 110 59.5 150s93 69.5 160 88.5s142.5 28.5 226.5 28.5
c149.333 0 264.666 -24.833 345.999 -74.5s129.333 -128.5 144 -236.5c0.666992 -10.667 1 -26 1 -46zM709.003 465l1 -0.000976562c0 40 -15.167 69.5 -45.5 88.5s-61.333 30.5 -93 34.5s-66.834 6.33301 -105.501 7c-59.333 0.666992 -109.666 -7.16602 -150.999 -23.499
s-62 -42.833 -62 -79.5c0 -44.667 20.167 -74.667 60.5 -90s99.833 -23 178.5 -23c146.667 0 219 28.667 217 86z" />
    <glyph glyph-name="colon" unicode=":" horiz-adv-x="274" 
d="M29 505v-185h216v185h-216zM29 185v-185h216v185h-216z" />
    <glyph glyph-name="semicolon" unicode=";" horiz-adv-x="274" 
d="M29 320v185h217v-185h-217zM126 0h-97v185h217v-185l-94 -113h-120z" />
    <glyph glyph-name="less" unicode="&#x3c;" horiz-adv-x="595" 
d="M15 431l565 157v-141l-390 -91l390 -91v-141l-565 156v151z" />
    <glyph glyph-name="equal" unicode="=" horiz-adv-x="517" 
d="M502 433v-116h-487v116h487zM502 256v-115h-487v115h487z" />
    <glyph glyph-name="greater" unicode="&#x3e;" horiz-adv-x="595" 
d="M15 447v141l565 -157v-151l-565 -156v141l390 91z" />
    <glyph glyph-name="question" unicode="?" horiz-adv-x="853" 
d="M610 746.5c60 -10.333 113.496 -34 160.496 -71s70.5 -91.833 70.5 -164.5c0 -61.333 -16.667 -106.5 -50 -135.5s-68.666 -46.5 -105.999 -52.5s-74.666 -8.66699 -111.999 -8c-43.333 -0.666992 -71.166 -9 -83.499 -25s-18.5 -36.333 -18.5 -61h-211
c0 58 11 105.5 33 142.5s65 56.5 129 58.5c40 0 82.667 5.83301 128 17.5s68 33.834 68 66.501c0 28.667 -19.333 49.5 -58 62.5s-85.667 19.167 -141 18.5c-52.667 -1.33301 -97.167 -10 -133.5 -26s-54.5 -40.667 -54.5 -74h-220c0 105.333 41.833 176.166 125.5 212.499
s177.834 54.5 282.501 54.5c67.333 0 131 -5.16699 191 -15.5zM260.996 0l-1 185h213l1 -185h-213z" />
    <glyph glyph-name="at" unicode="@" horiz-adv-x="1174" 
d="M943 778c66 -31.333 117.002 -74.666 153.002 -129.999s54 -118 54 -188c0 -38.667 -6 -79 -18 -121c-17.333 -59.333 -42.666 -108.166 -75.999 -146.499s-70.333 -66.166 -111 -83.499s-82 -26 -124 -26c-36 0 -68.667 5.83301 -98 17.5s-51.333 27.5 -66 47.5
c-24 -19.333 -49.167 -34.333 -75.5 -45s-52.5 -16 -78.5 -16c-38.667 0 -72.834 7.83301 -102.501 23.5s-52.667 37.5 -69 65.5s-24.5 59.667 -24.5 95c0 23.333 3.33301 46 10 68c13.333 45.333 37 87.333 71 126s74 69.334 120 92.001s92.333 34 139 34
c36 0 66 -9.33301 90 -28l8 27h150l-69 -240c-8.66699 -30.667 -13 -55.334 -13 -74.001c0 -22.667 5.16699 -38 15.5 -46s24.166 -12 41.499 -12h6c26.667 0 49.167 9.16699 67.5 27.5s33.833 49.5 46.5 93.5c12 42 18 80.333 18 115c0 82.667 -30.667 145 -92 187
s-141.333 63 -240 63c-73.333 0 -144.166 -16.833 -212.499 -50.5s-127.166 -78.5 -176.499 -134.5s-83 -116 -101 -180c-9.33301 -30.667 -14 -63.334 -14 -98.001c0 -50.667 11.5 -96.5 34.5 -137.5s56.667 -73.333 101 -97s97.166 -35.5 158.499 -35.5
c42 0 82.167 5.33301 120.5 16s78.166 25.667 119.499 45l73 -92c-50 -26.667 -105.833 -48.667 -167.5 -66s-120.834 -26 -177.501 -26c-83.333 0 -155.833 15.333 -217.5 46s-109 73.167 -142 127.5s-49.5 116.166 -49.5 185.499c0 40.667 6.66699 84.667 20 132
c26 89.333 72.5 171.166 139.5 245.499s147 133 240 176s189.5 64.5 289.5 64.5c86.667 0 163 -15.667 229 -47zM623.002 243.5c24 26.333 41.333 58.167 52 95.5c6.66699 24.667 10 44.667 10 60c0 23.333 -6 41.666 -18 54.999s-29.667 20 -53 20
c-34.667 0 -65.667 -13.5 -93 -40.5s-46 -58.5 -56 -94.5c-4.66699 -14.667 -7 -30.667 -7 -48c0 -25.333 6.5 -46.166 19.5 -62.499s32.5 -24.5 58.5 -24.5c34 0 63 13.167 87 39.5z" />
    <glyph glyph-name="A" unicode="A" horiz-adv-x="1017" 
d="M1036 0h-249l-69 127h-419l-69 -127h-249l401 740h253zM509 514l-120 -220h239z" />
    <glyph glyph-name="B" unicode="B" horiz-adv-x="1012" 
d="M947 329.5c28.667 -27.667 43 -67.1699 43 -118.503v-4c0 -75.333 -31.167 -128.5 -93.5 -159.5s-151.833 -46.833 -268.5 -47.5h-2h-39h-546v740h633c77.333 -0.666992 139 -16.667 185 -48s69 -75.666 69 -132.999v-4c0 -43.333 -9 -78.666 -27 -105.999
s-45 -47.666 -81 -60.999c56 -11.333 98.333 -30.833 127 -58.5zM631.5 452.497c15.667 1.66699 29.001 7.50195 40.001 17.502s16.5 26.667 16.5 50c0 21.333 -5.33301 36.666 -16 45.999s-24.334 15.166 -41.001 17.499s-41 3.5 -73 3.5h-1h-285v-136
c68.667 0 114 -0.333008 136 -1h48h102c33.333 0 57.833 0.833008 73.5 2.5zM675.001 170.499c18.667 2.33301 33.666 9.00195 44.999 20.002s17 28.5 17 52.5c0 23.333 -5.66699 40.166 -17 50.499s-26.333 16.666 -45 18.999s-46.667 3.5 -84 3.5h-1h-318v-148
c94 0 160.833 -0.166992 200.5 -0.5s66.834 -0.5 81.501 -0.5h37c37.333 0 65.333 1.16699 84 3.5z" />
    <glyph glyph-name="C" unicode="C" horiz-adv-x="1011" 
d="M86.5 569c43.667 59.333 103.333 105.83 179 139.497s159.5 50.5 251.5 50.5c82.667 0 157.334 -13.167 224.001 -39.5s121.334 -63.333 164.001 -111s71 -103.5 85 -167.5h-256c-10 26.667 -26.833 49.834 -50.5 69.501s-50.167 34.5 -79.5 44.5s-58 15 -86 15
c-39.333 0 -77.5 -8 -114.5 -24s-67 -39.167 -90 -69.5s-34.5 -66.166 -34.5 -107.499s11.333 -77.166 34 -107.499s52.167 -53.333 88.5 -69s75.166 -23.5 116.499 -23.5c46 0 88.5 11 127.5 33s67.833 53.333 86.5 94h257
c-14.667 -63.333 -43.334 -118.833 -86.001 -166.5s-97 -84.5 -163 -110.5s-140.333 -39 -223 -39c-91.333 0 -174.833 17 -250.5 51s-135.5 80.667 -179.5 140s-66 125.333 -66 198c0 74 21.833 140.667 65.5 200z" />
    <glyph glyph-name="D" unicode="D" horiz-adv-x="908" 
d="M831.5 180c-37 -56 -89.5 -100 -157.5 -132s-147 -48 -237 -48v-1h-199v1h-197v740h395c90 0 169.167 -16 237.5 -48s121 -76 158 -132s55.5 -119.667 55.5 -191c0 -70 -18.5 -133 -55.5 -189zM442 198c58 0 106.167 14.168 144.5 42.501s57.5 71.166 57.5 128.499
c0 32 -9.33301 61.167 -28 87.5s-43.5 47 -74.5 62s-64.167 22.5 -99.5 22.5h-154v-343h154z" />
    <glyph glyph-name="E" unicode="E" horiz-adv-x="861" 
d="M750 288h-462v-113l546 4v-179h-793v740h793l1 -179h-547v-98h462v-175z" />
    <glyph glyph-name="F" unicode="F" horiz-adv-x="860" 
d="M834 740v-179h-546v-107h462v-174h-462v-280h-247v740h793z" />
    <glyph glyph-name="G" unicode="G" horiz-adv-x="1012" 
d="M990 0l-154.999 -0.000976562l-19 57c-84 -51.333 -184 -77 -300 -77c-92 0 -175.667 17 -251 51s-134.833 80.667 -178.5 140s-65.5 125.333 -65.5 198c0 74 22 140.667 66 200s103.667 105.833 179 139.5s158.666 50.5 249.999 50.5c82 0 156.333 -11.667 223 -35
s121.667 -57.5 165 -102.5s71.333 -99.167 84 -162.5l-257 -1c-13.333 38.667 -39.833 67 -79.5 85s-84.5 27 -134.5 27c-41.333 0 -79 -8.16699 -113 -24.5s-60.833 -39.666 -80.5 -69.999s-29.5 -65.833 -29.5 -106.5c0 -41.333 10 -77.166 30 -107.499s47 -53.333 81 -69
s71.333 -23.5 112 -23.5s78.667 7.66699 114 23s63 37.666 83 66.999h-194v132h469v-87z" />
    <glyph glyph-name="H" unicode="H" horiz-adv-x="970" 
d="M288 477h395v263h246v-740h-246v283h-395v-283h-247v740h247v-263z" />
    <glyph glyph-name="I" unicode="I" horiz-adv-x="329" 
d="M288 0h-247v740h247v-740z" />
    <glyph glyph-name="J" unicode="J" horiz-adv-x="821" 
d="M780 740v-444.998c0 -48 -10.833 -94 -32.5 -138s-61 -81.167 -118 -111.5s-134.833 -45.5 -233.5 -45.5c-93.333 0 -168 18.667 -224 56s-95.167 80.666 -117.5 129.999s-33.5 94.333 -33.5 135h232c0 -40.667 13 -75.667 39 -105s64.333 -44 115 -44
c38.667 0 70.667 11.167 96 33.5s38 52.166 38 89.499v445h239z" />
    <glyph glyph-name="K" unicode="K" horiz-adv-x="872" 
d="M488 401l403 -401h-303l-300 310v-310h-247v740h247v-257l282 257h306z" />
    <glyph glyph-name="L" unicode="L" horiz-adv-x="780" 
d="M288 740v-550h466v-190h-713v740h247z" />
    <glyph glyph-name="M" unicode="M" horiz-adv-x="1140" 
d="M1098 740v-740h-246v334l-163 -334h-227l-174 338v-338h-247v740h282l252 -509l248 509h275z" />
    <glyph glyph-name="N" unicode="N" horiz-adv-x="1028" 
d="M288 0h-247v740zM986 0h-246h246zM740 287v453h246v-740h-246l-452 453v-453h-247v740h247z" />
    <glyph glyph-name="O" unicode="O" horiz-adv-x="1009" 
d="M753.5 705.5c73.667 -33.667 131.333 -79.998 173 -138.998s62.5 -125.5 62.5 -199.5c0 -73.333 -20.833 -139.333 -62.5 -198s-99.167 -104.834 -172.5 -138.501s-155.666 -50.5 -246.999 -50.5c-88 0 -169.333 16.833 -244 50.5s-133.834 80 -177.501 139
s-65.5 124.833 -65.5 197.5c0 73.333 21.833 139.666 65.5 198.999s102.667 105.833 177 139.5s155.5 50.5 243.5 50.5c91.333 0 173.833 -16.833 247.5 -50.5zM614.499 191.002c34.333 16 62.1699 39.001 83.5029 69.001s32 65.667 32 107s-10.833 77.166 -32.5 107.499
s-49.834 53.333 -84.501 69s-70.667 23.5 -108 23.5c-38 0 -74 -8 -108 -24s-61.5 -39.167 -82.5 -69.5s-31.5 -65.833 -31.5 -106.5c0 -41.333 10.667 -77 32 -107s49.166 -53 83.499 -69s70.5 -24 108.5 -24c37.333 0 73.166 8 107.499 24z" />
    <glyph glyph-name="P" unicode="P" horiz-adv-x="936" 
d="M764.5 709c47.667 -20.667 84.668 -49.5 111.001 -86.5s39.5 -79.833 39.5 -128.5v-4c0 -80 -27.333 -141.833 -82 -185.5s-129.334 -65.5 -224.001 -65.5h-321v-239h-247v740h559c62 0 116.833 -10.333 164.5 -31zM633.501 417c17 2 31.166 8.33301 42.499 19
s17 28.334 17 53.001c0 25.333 -5.66699 43.666 -17 54.999s-26 18.333 -44 21s-43.333 4 -76 4h-33c-13.333 0 -36.666 -0.166992 -69.999 -0.5s-88.333 -0.5 -165 -0.5v-154h267h1c34.667 0 60.5 1 77.5 3z" />
    <glyph glyph-name="Q" unicode="Q" horiz-adv-x="1027" 
d="M967.5 209c-25.667 -48.667 -61.834 -90.666 -108.501 -125.999s-100.667 -61.666 -162 -78.999l145 -147h-384v126c-79.333 8 -152.5 29.667 -219.5 65s-120 80.833 -159 136.5s-58.5 116.5 -58.5 182.5c0 73.333 23 139.666 69 198.999s107.5 105.833 184.5 139.5
s159.833 50.5 248.5 50.5c91.333 0 173.833 -16.833 247.5 -50.5s131.334 -80 173.001 -139s62.5 -125.5 62.5 -199.5c0 -56.667 -12.833 -109.334 -38.5 -158.001zM632.5 192.001c34.333 16 62 39 83 69s31.5 65.333 31.5 106s-10.5 76.167 -31.5 106.5
s-48.667 53.5 -83 69.5s-70.5 24 -108.5 24c-37.333 0 -74.666 -8 -111.999 -24s-68 -39.167 -92 -69.5s-36 -65.833 -36 -106.5c0 -40 12 -75.167 36 -105.5s54.667 -53.5 92 -69.5s74.666 -24 111.999 -24c38 0 74.167 8 108.5 24z" />
    <glyph glyph-name="R" unicode="R" horiz-adv-x="941" 
d="M635 1l-205 238.999h-153v-239h-236v740h559c62 0 116.833 -10.333 164.5 -31s84.667 -49.5 111 -86.5s39.5 -79.833 39.5 -128.5v-4c0 -63.333 -18.5 -115.666 -55.5 -156.999s-88.167 -69 -153.5 -83l215 -250h-286zM666.5 545.999c-11 12 -25.168 19.333 -42.501 22
s-42.666 4 -75.999 4h-36c-49.333 -1.33301 -127.666 -2 -234.999 -2v-159h269h2c33.333 0 58.666 1.33301 75.999 4s31.5 9.5 42.5 20.5s16.5 28.833 16.5 53.5c0 26 -5.5 45 -16.5 57z" />
    <glyph glyph-name="S" unicode="S" horiz-adv-x="948" 
d="M583 440c65.333 0 122.499 -4.49805 171.499 -13.498s90 -28.167 123 -57.5s49.5 -72 49.5 -128c0 -103.333 -45.833 -173.166 -137.5 -209.499s-194.5 -54.5 -308.5 -54.5c-113.333 0 -218.333 18.5 -315 55.5s-145 107.5 -145 211.5l255 1
c0 -46 20.833 -75.167 62.5 -87.5s90.5 -18.5 146.5 -18.5c52.667 0 97.834 7.66699 135.501 23s56.5 40.333 56.5 75v1c0 19.333 -11.667 33.666 -35 42.999s-48.333 15 -75 17s-58.667 3.33301 -96 4h-75c-72 0 -134.5 4.5 -187.5 13.5s-97.5 28.833 -133.5 59.5
s-54 76 -54 136c0 104 46.833 171.833 140.5 203.5s200.167 47.5 319.5 47.5c112 0 214.333 -18.333 307 -55s139 -107.334 139 -212.001h-251c0 33.333 -18.833 58.166 -56.5 74.499s-83.5 25.5 -137.5 27.5c-58 0 -107 -6.66699 -147 -20s-60 -34.333 -60 -63
c0 -30 20.333 -50 61 -60s86.667 -15 138 -15z" />
    <glyph glyph-name="T" unicode="T" horiz-adv-x="926" 
d="M26 540v200h874zM900 740v-201h-312v-539h-246v539h-316v201h874z" />
    <glyph glyph-name="U" unicode="U" horiz-adv-x="983" 
d="M695 740l252.001 -0.000976562v-379c0 -72 -20 -137 -60 -195s-94 -103.5 -162 -136.5s-142.333 -49.5 -223 -49.5c-86.667 0 -165.334 16.333 -236.001 49s-126.5 77.834 -167.5 135.501s-61.833 122.5 -62.5 194.5v381h256v-381
c0 -60.667 20.833 -105.334 62.5 -134.001s91.167 -43 148.5 -43c30 0 59.667 5.83301 89 17.5s53.833 30.834 73.5 57.501s29.5 60.667 29.5 102v381z" />
    <glyph glyph-name="V" unicode="V" horiz-adv-x="1059" 
d="M403 0l405 740l-405 -740v0zM531 234l277 506h250l-390 -740h-280l-387 740h268z" />
    <glyph glyph-name="W" unicode="W" horiz-adv-x="1543" 
d="M1053 288l238 452h250l-389 -740h-250l-131 404l-133 -404h-250l-387 740h253l235 -452l158 452h252z" />
    <glyph glyph-name="X" unicode="X" horiz-adv-x="932" 
d="M648 740h278l-289 -373l289 -367h-278l-182 229l-182 -229h-278l290 367l-290 373h278l182 -230z" />
    <glyph glyph-name="Y" unicode="Y" horiz-adv-x="974" 
d="M718 740h255l-354 -429v-311h-265v310l-353 430h255l225 -275z" />
    <glyph glyph-name="Z" unicode="Z" horiz-adv-x="921" 
d="M35 740h855v-198l-527 -345l524 -1v-196h-856v197h2l526 346l-524 1v196z" />
    <glyph glyph-name="bracketleft" unicode="[" horiz-adv-x="336" 
d="M311 910v-132h-92v-762h92v-133h-286v1027h286z" />
    <glyph glyph-name="backslash" unicode="\" horiz-adv-x="552" 
d="M-30 840h218l404 -957h-218z" />
    <glyph glyph-name="bracketright" unicode="]" horiz-adv-x="336" 
d="M25 910h286v-1027h-286v133h92v762h-92v132z" />
    <glyph glyph-name="asciicircum" unicode="^" horiz-adv-x="589" 
d="M418 741l156 -245h-183l-96 155l-96 -155h-184l157 245h246z" />
    <glyph glyph-name="underscore" unicode="_" horiz-adv-x="704" 
d="M2 -158v137h700v-137h-700z" />
    <glyph glyph-name="grave" unicode="`" horiz-adv-x="521" 
d="M105 910h224l70 -133h-174z" />
    <glyph glyph-name="a" unicode="a" horiz-adv-x="786" 
d="M646 521c76 -32 114.001 -88.333 114.001 -169v-352h-218l-17 71v5c-16.667 -30 -51.834 -52 -105.501 -66s-112.167 -21 -175.5 -21c-50.667 0 -101.334 11.167 -152.001 33.5s-76 69.166 -76 140.499c0 112.667 73.667 169 221 169c94.667 0 160.667 0.833008 198 2.5
s62 5 74 10s18.333 14.167 19 27.5v13c-0.666992 22 -15.167 38.167 -43.5 48.5s-60.5 15.5 -96.5 15.5c-37.333 -0.666992 -69.166 -7.66699 -95.499 -21s-39.5 -33.666 -39.5 -60.999h-231c0 50.667 20 91.167 60 121.5s87.833 51.333 143.5 63s110.167 17.5 163.5 17.5
c95.333 0 181 -16 257 -48zM486.001 168c25.333 22 39 50 41 84v14c-25.333 -10.667 -65.666 -16 -120.999 -16c-57.333 0 -97.5 -4 -120.5 -12s-34.833 -22.667 -35.5 -44c2 -20 12.5 -34.833 31.5 -44.5s49.833 -14.5 92.5 -14.5c49.333 0 86.666 11 111.999 33z" />
    <glyph glyph-name="b" unicode="b" horiz-adv-x="791" 
d="M779 281c-0.666992 -54.667 -12.332 -104.167 -34.999 -148.5s-53.834 -79.333 -93.501 -105s-85.167 -38.5 -136.5 -38.5c-120.667 -2.66699 -209 23.333 -265 78l-12 -65h-211v738h230v-253c56.667 52 142.667 78 258 78c51.333 0 97 -13.167 137 -39.5
s71 -60.833 93 -103.5s33.667 -87.667 35 -135v-3v-3zM509.002 168.5c25.333 29.667 38.334 67.501 39.001 113.501c-0.666992 40 -13.834 74.5 -39.501 103.5s-62.167 43.5 -109.5 43.5c-42.667 0 -77.167 -14 -103.5 -42s-39.5 -65.333 -39.5 -112v-3
c0 -26 6.16699 -50.333 18.5 -73s29.333 -40.834 51 -54.501s46.167 -20.5 73.5 -20.5c48 0 84.667 14.833 110 44.5z" />
    <glyph glyph-name="c" unicode="c" horiz-adv-x="764" 
d="M61 420.5c33.333 45 78.9971 80.167 136.997 105.5s122 38 192 38c66.667 0 125.5 -10.167 176.5 -30.5s92.167 -48.833 123.5 -85.5s52 -79 62 -127h-230c-7.33301 30 -22.666 54 -45.999 72s-51.666 27 -84.999 27c-43.333 0 -78.666 -13.833 -105.999 -41.5
s-41 -64.167 -41 -109.5c0 -44 13.333 -80.167 40 -108.5s61.667 -42.5 105 -42.5c34 0 62.667 9 86 27s38.666 41.667 45.999 71h230c-7.33301 -45.333 -27.333 -86.333 -60 -123s-75.167 -65.667 -127.5 -87s-110.166 -32 -173.499 -32c-69.333 0 -133 12.833 -191 38.5
s-103.833 61 -137.5 106s-50.5 95.167 -50.5 150.5c0 56 16.667 106.5 50 151.5z" />
    <glyph glyph-name="d" unicode="d" horiz-adv-x="794" 
d="M538 740h230.003v-738h-210l-12 65c-56.667 -54.667 -145.334 -80.667 -266.001 -78c-51.333 0 -96.833 12.833 -136.5 38.5s-70.834 60.667 -93.501 105s-34.334 93.833 -35.001 148.5v3v3c1.33301 47.333 13 92.333 35 135s53 77.167 93 103.5s85.667 39.5 137 39.5
c115.333 0 201.333 -26 258 -78v253zM468.503 144.5c21.667 13.667 38.667 31.833 51 54.5s18.5 47 18.5 73v3c0 46.667 -13.167 84 -39.5 112s-60.5 42 -102.5 42c-47.333 0 -83.833 -14.5 -109.5 -43.5s-38.834 -63.5 -39.501 -103.5
c0.666992 -46 13.667 -83.833 39 -113.5s62 -44.5 110 -44.5c26.667 0 50.834 6.83301 72.501 20.5z" />
    <glyph glyph-name="e" unicode="e" horiz-adv-x="791" 
d="M778 250l-533 0.000976562c4.66699 -42 20.5 -76.5 47.5 -103.5s63.833 -40.5 110.5 -40.5c38 0 71.833 9.16699 101.5 27.5s44.5 46.5 44.5 84.5h229c0 -77.333 -33.167 -136.333 -99.5 -177s-158.5 -61 -276.5 -61c-72.667 0 -138.667 12.333 -198 37
s-106.333 59.5 -141 104.5s-52 96.5 -52 154.5c0 58.667 17.167 110.5 51.5 155.5s81.333 79.667 141 104s125.834 36.5 198.501 36.5c74.667 0 140.167 -12 196.5 -36s100.166 -57.833 131.499 -101.5s47.333 -94.834 48 -153.501v-5h2h-2v-26zM301 422.001
c-23.333 -18.667 -39.333 -44.667 -48 -78h290c-7.33301 33.333 -22 59.333 -44 78s-54.333 28 -97 28c-44 0 -77.667 -9.33301 -101 -28z" />
    <glyph glyph-name="f" unicode="f" horiz-adv-x="493" 
d="M472 481v-157h-113v-324h-230v324h-108v157h108v72c0 79.333 28 133.333 84 162s119 43 189 43c24.667 0 46.667 -1.33301 66 -4v-183c-33.333 0 -57.333 -2 -72 -6s-24.5 -11.833 -29.5 -23.5s-7.5 -30.5 -7.5 -56.5v-4h113z" />
    <glyph glyph-name="g" unicode="g" horiz-adv-x="794" 
d="M765 545v-544.998c-2.66699 -52.667 -23.5 -94.834 -62.5 -126.501s-85 -54 -138 -67s-104.167 -19.5 -153.5 -19.5c-73.333 0 -134 2.5 -182 7.5s-91.5 20.167 -130.5 45.5s-58.5 65.666 -58.5 120.999h234c0 -19.333 8.5 -33.166 25.5 -41.499s32 -12.833 45 -13.5
s35.167 -1 66.5 -1c30 0 58.167 7.5 84.5 22.5s39.5 42.5 39.5 82.5v48c-55.333 -50.667 -141 -76 -257 -76c-50.667 0 -96 13.167 -136 39.5s-71.5 60.833 -94.5 103.5s-35.167 87.667 -36.5 135v4v3c0.666992 54.667 12.334 104 35.001 148s54.167 78.667 94.5 104
s86.166 38 137.499 38c119.333 3.33301 207 -22.334 263 -77.001l13 65h211zM496 158.502c26 27 38.999 65.5 38.999 115.5v3c0 25.333 -6 49.333 -18 72s-28.667 40.667 -50 54s-45 20 -71 20c-48 0 -85 -14.5 -111 -43.5s-39.667 -66.833 -41 -113.5
c1.33301 -42.667 14.833 -78 40.5 -106s61.834 -42 108.501 -42c42.667 0 77 13.5 103 40.5z" />
    <glyph glyph-name="h" unicode="h" horiz-adv-x="766" 
d="M674.5 483c47 -53.333 70.498 -139.333 70.498 -258v-225h-230v222c0 42 -2.33301 76.333 -7 103s-16 49 -34 67s-46 27 -84 27c-40 0 -69.667 -9.16699 -89 -27.5s-31.666 -41 -36.999 -68s-8 -60.5 -8 -100.5v-223h-230v740h230v-261c50.667 56 127.334 84 230.001 84
c78.667 0 141.5 -26.667 188.5 -80z" />
    <glyph glyph-name="i" unicode="i" horiz-adv-x="283" 
d="M256 740h-230v-151h230v151zM256 0h-230v560h230v-560z" />
    <glyph glyph-name="j" unicode="j" horiz-adv-x="299" 
d="M39 590v150h230v-150h-230zM39 561l230 -0.000976562v-585c0 -77.333 -28 -130.166 -84 -158.499s-119.333 -42.5 -190 -42.5c-24 0 -45.667 1.33301 -65 4v180c32 0 55.667 2.16699 71 6.5s25.5 11.5 30.5 21.5s7.5 25 7.5 45v529z" />
    <glyph glyph-name="k" unicode="k" horiz-adv-x="741" 
d="M478 301l273 -301h-263l-234 252v-252h-230v740h230v-392l199 197h267z" />
    <glyph glyph-name="l" unicode="l" horiz-adv-x="286" 
d="M256 0h-230v740h230v-740z" />
    <glyph glyph-name="m" unicode="m" horiz-adv-x="1201" 
d="M1078.5 530c33 -22 57.5 -57.502 73.5 -106.502s24 -115.167 24 -198.5v-225h-230v222c0 40 -2.5 74 -7.5 102s-16 51 -33 69s-42.167 27 -75.5 27c-32.667 0 -57.167 -8.83301 -73.5 -26.5s-27 -40 -32 -67s-7.5 -60.833 -7.5 -101.5v-225h-230v222
c0 40.667 -2.33301 74.834 -7 102.501s-15.334 50.5 -32.001 68.5s-41.667 27 -75 27c-35.333 0 -61.333 -9 -78 -27s-27.167 -41.167 -31.5 -69.5s-6.5 -66.166 -6.5 -113.499v-210h-231v545h206l17 -65c25.333 28.667 57.833 49.667 97.5 63s87.5 20 143.5 20
c48.667 0 88.667 -9 120 -27s55.666 -47.333 72.999 -88c22.667 40.667 55.334 70 98.001 88s98.334 27 167.001 27c54 0 97.5 -11 130.5 -33z" />
    <glyph glyph-name="n" unicode="n" horiz-adv-x="766" 
d="M677.5 484c45 -52.667 67.499 -139 67.499 -259v-225h-230v222c0 42 -2.33301 76.333 -7 103s-16 49 -34 67s-46 27 -84 27c-40 0 -69.667 -8.5 -89 -25.5s-31.666 -38.833 -36.999 -65.5s-8 -61.667 -8 -105v-223h-230v545h230v-68c50.667 57.333 127.667 86 231 86
c82 0 145.5 -26.333 190.5 -79z" />
    <glyph glyph-name="o" unicode="o" 
d="M601 530c58 -25.333 103.334 -60.5 136.001 -105.5s49 -95.5 49 -151.5c0 -55.333 -16.5 -105.5 -49.5 -150.5s-78.333 -80.167 -136 -105.5s-122.5 -38 -194.5 -38c-69.333 0 -134.333 12.833 -195 38.5s-109.167 61 -145.5 106s-54.5 94.833 -54.5 149.5
c0 55.333 18.167 105.5 54.5 150.5s84.666 80.333 144.999 106s125.5 38.5 195.5 38.5c72 0 137 -12.667 195 -38zM480.501 139c23 11.333 41.5 28.502 55.5 51.502s21 50.5 21 82.5s-7 59.5 -21 82.5s-32.5 40.167 -55.5 51.5s-47.833 17 -74.5 17
c-26 0 -51.5 -5.83301 -76.5 -17.5s-45.5 -28.834 -61.5 -51.501s-24 -50 -24 -82s8 -59.333 24 -82s36.5 -39.834 61.5 -51.501s50.5 -17.5 76.5 -17.5c26.667 0 51.5 5.66699 74.5 17z" />
    <glyph glyph-name="p" unicode="p" horiz-adv-x="796" 
d="M779 260c-1.33301 -47.333 -13.1689 -92.332 -35.502 -134.999s-53.5 -77.167 -93.5 -103.5s-85.333 -39.5 -136 -39.5c-115.333 0 -201.333 26 -258 78v-250h-230v735h211l13 -70c56 57.333 144 84.666 264 81.999c51.333 0 96.833 -12.667 136.5 -38
s70.834 -60 93.501 -104s34.334 -93.333 35.001 -148v-3v-4zM507.497 161.501c25.667 29 39.166 63.5 40.499 103.5c-1.33301 46 -14.5 83.833 -39.5 113.5s-61.5 44.5 -109.5 44.5c-27.333 0 -51.833 -6.83301 -73.5 -20.5s-38.667 -32 -51 -55s-18.5 -47.5 -18.5 -73.5v-2
c0 -46.667 13.167 -84 39.5 -112s60.833 -42 103.5 -42c46.667 0 82.834 14.5 108.501 43.5z" />
    <glyph glyph-name="q" unicode="q" horiz-adv-x="792" 
d="M558 545h209.997v-735h-230v250c-56.667 -52 -142.667 -78 -258 -78c-50.667 0 -96 13.167 -136 39.5s-71.167 60.833 -93.5 103.5s-34.166 87.667 -35.499 135v4v3c0.666992 54.667 12.334 104 35.001 148s53.834 78.667 93.501 104s85.167 38 136.5 38
c120.667 2.66699 209 -23.333 265 -78zM498.497 160c26.333 28 39.501 65.333 39.501 112v2c0 26 -6.16699 50.5 -18.5 73.5s-29.333 41.333 -51 55s-45.834 20.5 -72.501 20.5c-47.333 0 -83.666 -14.833 -108.999 -44.5s-38.666 -67.5 -39.999 -113.5
c1.33301 -42 14.666 -77 39.999 -105s61.666 -42 108.999 -42c42 0 76.167 14 102.5 42z" />
    <glyph glyph-name="r" unicode="r" horiz-adv-x="528" 
d="M254 450c53.333 58.667 137.667 94 253 106v-174h-133c-41.333 0 -71.333 -15.5 -90 -46.5s-28 -71.5 -28 -121.5v-214h-230v545h209z" />
    <glyph glyph-name="s" unicode="s" horiz-adv-x="762" 
d="M429 325l57 0.998047c78.667 0 142.5 -10.167 191.5 -30.5s73.5 -60.833 73.5 -121.5c0 -78.667 -36.5 -131.167 -109.5 -157.5s-156.5 -39.5 -250.5 -39.5c-93.333 0 -178.833 13.833 -256.5 41.5s-116.5 80.834 -116.5 159.501h232
c0 -31.333 13.667 -52.166 41 -62.499s60.666 -15.5 99.999 -15.5c44.667 0 77.834 5.5 99.501 16.5s32.5 28.833 32.5 53.5c0 22 -12.667 35.833 -38 41.5s-57.333 8.5 -96 8.5h-35c-60.667 0 -114.5 3.16699 -161.5 9.5s-87.833 21.5 -122.5 45.5s-52 60 -52 108
c0 76 37.5 125.667 112.5 149s161.5 35 259.5 35c92.667 0 176 -13.667 250 -41s111 -80.333 111 -159l-230 1c0 34 -17.333 55 -52 63s-62 12 -82 12c-30.667 0 -61.167 -3.5 -91.5 -10.5s-45.5 -22.5 -45.5 -46.5c0 -40 45 -60.667 135 -62c19.333 0 34 0.333008 44 1z
" />
    <glyph glyph-name="t" unicode="t" horiz-adv-x="486" 
d="M360 545h104v-157h-104v-388h-230v388h-109v157h109v118l230 93v-211z" />
    <glyph glyph-name="u" unicode="u" horiz-adv-x="771" 
d="M515 545h230v-545h-230v68c-50.667 -57.333 -127.667 -86 -231 -86c-82 0 -145.5 26.333 -190.5 79s-67.5 139 -67.5 259v225h230v-222c0 -42 2.33301 -76.333 7 -103s16 -49 34 -67s46 -27 84 -27c52.667 0 88.167 18.167 106.5 54.5s27.5 83.833 27.5 142.5v222z" />
    <glyph glyph-name="v" unicode="v" horiz-adv-x="832" 
d="M416 197l157 348h248l-278 -545h-255l-277 545h248z" />
    <glyph glyph-name="w" unicode="w" horiz-adv-x="1175" 
d="M781 210l146 335h241l-277 -545h-205l-99 292l-100 -292h-204l-277 545h240l148 -336l94 336h198z" />
    <glyph glyph-name="x" unicode="x" horiz-adv-x="816" 
d="M563 545h261l-246 -275l246 -270h-261l-155 169l-156 -169h-261l247 270l-247 275h261l156 -170z" />
    <glyph glyph-name="y" unicode="y" horiz-adv-x="876" 
d="M868 545l-336 -668.002c-22 -44 -64.5 -72.333 -127.5 -85s-133.833 -19 -212.5 -19v183c38 0 64.333 2.33301 79 7s22 11.334 22 20.001c0 2.66699 -1.33301 7.33398 -4 14.001l-281 548h246l186 -403l182 403h246z" />
    <glyph glyph-name="z" unicode="z" horiz-adv-x="760" 
d="M26 545l708 -1v-160l-395 -223l395 -1v-160l-708 1v161l398 223l-398 1v159z" />
    <glyph glyph-name="braceleft" unicode="{" horiz-adv-x="460" 
d="M322 40c10 -13.333 23.667 -21.9971 41 -25.9971s41 -6 71 -6l1 -131c-64.667 0 -115.667 3.16699 -153 9.5s-70.166 25.166 -98.499 56.499s-43.5 81.666 -45.5 150.999v185c-0.666992 33.333 -11 55.166 -31 65.499s-52 15.5 -96 15.5h-1l1 34l-1 33h1
c30 0 53.667 1.83301 71 5.5s31 11.5 41 23.5s15 30 15 54v184c2 68.667 17.167 118.667 45.5 150s61.166 50 98.499 56s88.333 9 153 9l-1 -129c-30 0 -53.667 -2 -71 -6s-31 -12.833 -41 -26.5s-15 -34.167 -15 -61.5v-183c-2.66699 -50 -23 -86.333 -61 -109
c38 -22.667 58.333 -59.334 61 -110.001v-183c0 -27.333 5 -47.666 15 -60.999z" />
    <glyph glyph-name="bar" unicode="|" horiz-adv-x="267" 
d="M247 -185h-227v983h227v-983z" />
    <glyph glyph-name="braceright" unicode="}" horiz-adv-x="460" 
d="M450 360l-1 -0.00292969c-44 0 -76 -5.16699 -96 -15.5s-30.333 -32.166 -31 -65.499v-185c-2 -69.333 -17.167 -119.666 -45.5 -150.999s-61.166 -50.166 -98.499 -56.499s-88.333 -9.5 -153 -9.5l1 131c30 0 53.667 2 71 6s31 12.667 41 26s15 33.666 15 60.999v183
c2.66699 50.667 23 87.334 61 110.001c-38 22.667 -58.333 59 -61 109v183c0 27.333 -5 47.833 -15 61.5s-23.667 22.5 -41 26.5s-41 6 -71 6l-1 129c64.667 0 115.667 -3 153 -9s70.166 -24.667 98.499 -56s43.5 -81.333 45.5 -150v-184c0 -24 5 -42 15 -54
s23.667 -19.833 41 -23.5s41 -5.5 71 -5.5h1v-67z" />
    <glyph glyph-name="asciitilde" unicode="~" horiz-adv-x="504" 
d="M15 439c36 28.667 72.333 42.999 109 42.999c20.667 0 40.667 -3.66699 60 -11s42 -18 68 -32c28 -14.667 51.333 -25.5 70 -32.5s38 -10.5 58 -10.5c36.667 0 73 14.333 109 43v-133c-35.333 -28 -70.666 -42 -105.999 -42c-20.667 0 -40.834 3.83301 -60.501 11.5
s-42.5 18.834 -68.5 33.501c-26.667 14.667 -49.667 25.667 -69 33s-39 11 -59 11c-37.333 0 -74.333 -15.667 -111 -47v133z" />
    <glyph glyph-name="exclamdown" unicode="&#xa1;" horiz-adv-x="330" 
d="M273 545h-216v-185h216v185zM294 -190h-258l68 505h122z" />
    <glyph glyph-name="cent" unicode="&#xa2;" horiz-adv-x="751" 
d="M475 145c23.333 18 38.6641 41.668 45.9971 71.001h230c-6.66699 -41.333 -24.167 -79.333 -52.5 -114s-65.333 -63.167 -111 -85.5s-96.5 -35.833 -152.5 -40.5v-72h-113v75c-58.667 7.33301 -111.667 24.5 -159 51.5s-84.5 61.167 -111.5 102.5
s-40.5 86.666 -40.5 135.999c0 50 13.333 95.5 40 136.5s63.667 75 111 102s100.666 44.5 159.999 52.5v71h113v-69c87.333 -6 158.333 -30.833 213 -74.5s89.334 -99.167 104.001 -166.5h-230c-7.33301 30 -22.666 54 -45.999 72s-51.666 27 -84.999 27
c-43.333 0 -78.666 -13.833 -105.999 -41.5s-41 -64.167 -41 -109.5c0 -44 13.333 -80.167 40 -108.5s61.667 -42.5 105 -42.5c34 0 62.667 9 86 27z" />
    <glyph glyph-name="sterling" unicode="&#xa3;" horiz-adv-x="874" 
d="M859 149l0.000976562 -149.001h-827v149c46 50 73.333 90.333 82 121h-99l-1 137h50c-14.667 32 -22 66.333 -22 103c0 54 19.667 100.833 59 140.5s90.666 69.834 153.999 90.501s130 31 200 31c68.667 0 132.834 -10.167 192.501 -30.5
s107.834 -51.166 144.501 -92.499s55 -92 55 -152h-240c0 29.333 -7.83301 54.666 -23.5 75.999s-36.334 37.5 -62.001 48.5s-52.834 16.5 -81.501 16.5c-43.333 0 -80.833 -12 -112.5 -36s-47.5 -57.667 -47.5 -101c0 -32 7.33301 -63.333 22 -94h334l1 -137h-286
c-5.33301 -32.667 -28.333 -73 -69 -121h577z" />
    <glyph glyph-name="currency" unicode="&#xa4;" horiz-adv-x="642" 
d="M526 321l61 -61l-72 -72l-61 61c-39.333 -26 -83.333 -39 -132 -39s-92.667 13 -132 39l-63 -61l-72 72l63 62c-26 39.333 -39 83 -39 131c0 48.667 13 92.667 39 132l-63 63l73 72l63 -63c39.333 26 83 39 131 39c47.333 0 91 -12.667 131 -38l62 61l72 -72l-61 -61
c26 -42 39 -86.333 39 -133c0 -48.667 -13 -92.667 -39 -132zM401 374.5c21.333 21.667 32.002 47.834 32.002 78.501s-10.833 56.834 -32.5 78.501s-47.834 32.5 -78.501 32.5s-56.834 -10.833 -78.501 -32.5s-32.5 -47.834 -32.5 -78.501s10.833 -56.834 32.5 -78.501
s47.834 -32.5 78.501 -32.5c31.333 0 57.666 10.833 78.999 32.5z" />
    <glyph glyph-name="yen" unicode="&#xa5;" horiz-adv-x="986" 
d="M718 740h255l-297 -360h134v-115h-191v-37h191v-115h-191v-113h-265v113h-186v115h186v37h-186v115h129l-296 360h255l225 -275z" />
    <glyph glyph-name="brokenbar" unicode="&#xa6;" horiz-adv-x="491" 
d="M247 398h-227v400h227v-400zM247 -185h-227v400h227v-400z" />
    <glyph glyph-name="section" unicode="&#xa7;" horiz-adv-x="812" 
d="M735 262c41.333 -25.333 62.002 -63.3379 62.002 -114.005c0 -78 -38.333 -130.667 -115 -158s-163 -41 -259 -41c-96.667 0 -185.167 13.833 -265.5 41.5s-120.5 80.834 -120.5 159.501h233c0 -31.333 15.667 -51.666 47 -60.999s66.666 -14 105.999 -14
s72.833 5.16699 100.5 15.5s41.5 28.5 41.5 54.5c0 21.333 -14.333 34.833 -43 40.5s-65.667 8.5 -111 8.5c-94.667 0.666992 -179.834 13.834 -255.501 39.501s-115.167 74.834 -118.5 147.501v4v5c2.66699 36.667 21.667 66.667 57 90c-38 26 -57 63.333 -57 112
c0 78 38.833 129 116.5 153s167.5 36 269.5 36c96 0 182.333 -13.667 259 -41s115 -80.333 115 -159h-231c0 24.667 -13.833 42.834 -41.5 54.501s-61.5 17.5 -101.5 17.5c-42.667 0.666992 -78.667 -3.66602 -108 -12.999s-44 -24.333 -44 -45
c0 -37.333 48.667 -56 146 -56l78 1c88 0 160.333 -10 217 -30s85 -61 85 -123c0 -52.667 -20.667 -94.334 -62 -125.001zM316.002 331.495c28 -8.33301 60.999 -12.5 98.999 -12.5c45.333 0 81.833 4.16699 109.5 12.5s41.5 25.833 41.5 52.5c0 20 -16 33.667 -48 41
s-66 11 -102 11l-54 -1c-24.667 -2 -45.667 -6.83301 -63 -14.5s-26.666 -19.167 -27.999 -34.5c2 -28 17 -46.167 45 -54.5z" />
    <glyph glyph-name="dieresis" unicode="&#xa8;" horiz-adv-x="692" 
d="M146 810.5c-18 18.333 -27 40.833 -27 67.5c0 26 9 48 27 66s40.333 27 67 27c26 0 48.167 -9 66.5 -27s27.5 -40 27.5 -66c0 -26.667 -9.16699 -49.167 -27.5 -67.5s-40.5 -27.5 -66.5 -27.5c-26.667 0 -49 9.16699 -67 27.5zM412 810.5c-18 18.333 -27 40.833 -27 67.5
c0 26 9 48 27 66s40.333 27 67 27c26 0 48.167 -9 66.5 -27s27.5 -40 27.5 -66c0 -26.667 -9.16699 -49.167 -27.5 -67.5s-40.5 -27.5 -66.5 -27.5c-26.667 0 -49 9.16699 -67 27.5z" />
    <glyph glyph-name="copyright" unicode="&#xa9;" horiz-adv-x="764" 
d="M192.5 29.5c-57.667 33.667 -103.332 79.332 -136.999 136.999s-50.5 120.834 -50.5 189.501s16.833 131.834 50.5 189.501s79.334 103.334 137.001 137.001s120.834 50.5 189.501 50.5c68 0 130.833 -17 188.5 -51s103.5 -79.833 137.5 -137.5s51 -120.5 51 -188.5
c0 -68.667 -16.833 -131.834 -50.5 -189.501s-79.334 -103.334 -137.001 -137.001s-120.834 -50.5 -189.501 -50.5s-131.834 16.833 -189.501 50.5zM522.502 112.998c43 25.333 77.167 59.5 102.5 102.5s38 89.833 38 140.5s-12.5 97.5 -37.5 140.5s-59 77.167 -102 102.5
s-90.167 38 -141.5 38c-50.667 0 -97.5 -12.667 -140.5 -38s-77.167 -59.5 -102.5 -102.5s-38 -89.833 -38 -140.5s12.667 -97.5 38 -140.5s59.5 -77.167 102.5 -102.5s89.833 -38 140.5 -38s97.5 12.667 140.5 38zM197.002 440.498
c19.333 25.667 45.498 45.834 78.498 60.501s69.5 22 109.5 22c57.333 0 104.333 -12.667 141 -38s59.334 -59 68.001 -101h-130c-4.66699 17.333 -14 31.333 -28 42s-30.667 16 -50 16c-25.333 0 -46 -8 -62 -24s-24 -37.333 -24 -64c0 -25.333 7.66699 -46.333 23 -63
s35.666 -25 60.999 -25c20.667 0 38 5.16699 52 15.5s23 24.166 27 41.499h130c-4 -26 -15.5 -49.5 -34.5 -70.5s-43.5 -37.667 -73.5 -50s-63.333 -18.5 -100 -18.5c-39.333 0 -75.666 7.33301 -108.999 22s-59.666 35 -78.999 61s-29 55 -29 87s9.66699 60.833 29 86.5z
" />
    <glyph glyph-name="ordfeminine" unicode="&#xaa;" horiz-adv-x="522" 
d="M423 514c48.667 -20.667 73 -56.999 73 -108.999v-227h-140l-12 45v3c-11.333 -18.667 -34.333 -32.334 -69 -41.001s-72.334 -13 -113.001 -13c-32.667 0 -65.167 7 -97.5 21s-48.5 44 -48.5 90c0 72.667 47.667 109 143 109c60.667 0 102.834 0.5 126.501 1.5
s39.5 3.16699 47.5 6.5s12.333 9.33301 13 18v8c-0.666992 14.667 -10 25.334 -28 32.001s-38.667 10 -62 10c-24 -0.666992 -44.5 -5.33398 -61.5 -14.001s-25.5 -21.667 -25.5 -39h-149c0 47.333 25 80.833 75 100.5s104 29.5 162 29.5c62 0 117.333 -10.333 166 -31z
M316.5 284.001c16.333 12.667 25.834 29 28.501 49v16c-16.667 -6.66699 -42.667 -10 -78 -10c-37.333 0 -63.166 -2.5 -77.499 -7.5s-21.833 -14.5 -22.5 -28.5c1.33301 -12.667 8.16602 -22.167 20.499 -28.5s32.166 -9.5 59.499 -9.5c30 0 53.167 6.33301 69.5 19z" />
    <glyph glyph-name="guillemotleft" unicode="&#xab;" horiz-adv-x="717" 
d="M213 276l208 -211h-214l-202 212l192 202h216zM498 276l208 -211h-214l-202 212l192 202h216z" />
    <glyph glyph-name="logicalnot" unicode="&#xac;" horiz-adv-x="608" 
d="M618 426v-263h-172v126h-431v137h603z" />
    <glyph glyph-name="registered" unicode="&#xae;" horiz-adv-x="549" 
d="M212 494v-15v15zM408.5 696.5c41.667 -24.333 74.666 -57.167 98.999 -98.5s36.5 -86 36.5 -134c0 -48.667 -12.167 -93.667 -36.5 -135s-57.166 -74.166 -98.499 -98.499s-86.333 -36.5 -135 -36.5s-93.667 12.167 -135 36.5s-74 57.166 -98 98.499s-36 86.333 -36 135
s12 93.667 36 135s56.667 74 98 98s86.333 36 135 36c48 0 92.833 -12.167 134.5 -36.5zM361.999 312.499c26.667 15.667 47.833 36.999 63.5 63.999s23.5 56.167 23.5 87.5s-7.83301 60.333 -23.5 87s-37 47.834 -64 63.501s-56.167 23.5 -87.5 23.5
c-32 0 -61.333 -7.66699 -88 -23s-47.667 -36.333 -63 -63s-23 -56 -23 -88c0 -31.333 7.83301 -60.5 23.5 -87.5s36.667 -48.333 63 -64s55.5 -23.5 87.5 -23.5s61.333 7.83301 88 23.5zM399.998 501.998c0 -17.333 -5 -31.832 -15 -43.499s-24.333 -19.834 -43 -24.501
l61 -69h-79l-57 66h-47v-66h-64v207h156c26.667 0 48 -6.33301 64 -19s24 -29 24 -49v-2zM328.998 520.999c-6 2.66699 -16.333 3.99902 -31 3.99902h-78v-46h78c14.667 0 25 1.16699 31 3.5s9 8.5 9 18.5c0 10.667 -3 17.334 -9 20.001z" />
    <glyph glyph-name="macron" unicode="&#xaf;" horiz-adv-x="600" 
d="M85 778v132h437v-132h-437z" />
    <glyph glyph-name="degree" unicode="&#xb0;" horiz-adv-x="364" 
d="M93.5 376c-27 16 -48.5 37.5 -64.5 64.5s-24 56.5 -24 88.5s8 61.5 24 88.5s37.5 48.5 64.5 64.5s56.5 24 88.5 24c32.667 0 62.5 -7.83301 89.5 -23.5s48.333 -37.167 64 -64.5s23.5 -57 23.5 -89s-8 -61.5 -24 -88.5s-37.5 -48.5 -64.5 -64.5s-56.5 -24 -88.5 -24
s-61.5 8 -88.5 24zM234.5 476.5c14.333 14.333 21.5 31.833 21.5 52.5c0 20 -7.16699 37.333 -21.5 52s-31.833 22 -52.5 22s-38.167 -7.33301 -52.5 -22s-21.5 -32 -21.5 -52c0 -20.667 7.16699 -38.167 21.5 -52.5s31.833 -21.5 52.5 -21.5s38.167 7.16699 52.5 21.5z" />
    <glyph glyph-name="plusminus" unicode="&#xb1;" horiz-adv-x="477" 
d="M296 500h166v-115h-166v-166h-115v166h-166v115h166v166h115v-166zM462 194v-115h-447v115h447z" />
    <glyph glyph-name="uni00B2" unicode="&#xb2;" horiz-adv-x="647" 
d="M625 363l-0.00292969 -114.998h-600v61c0 54.667 12.833 96.834 38.5 126.501s54.334 49.667 86.001 60s70.834 19.166 117.501 26.499l59 8c42 4.66699 73 10.167 93 16.5s30 17.833 30 34.5c0 18.667 -13.167 32.334 -39.5 41.001s-58.166 13 -95.499 13
c-36 -0.666992 -66.333 -6.33398 -91 -17.001s-37 -27.334 -37 -50.001h-161c0 66 30 111.167 90 135.5s126.333 36.5 199 36.5c78 0 147.167 -10.167 207.5 -30.5s90.5 -63.5 90.5 -129.5c0 -38 -13.5 -67.5 -40.5 -88.5s-51.833 -34.333 -74.5 -40s-60 -13.5 -112 -23.5
c-6 -0.666992 -30 -4.16699 -72 -10.5s-76.833 -14.333 -104.5 -24s-41.5 -19.834 -41.5 -30.501h458z" />
    <glyph glyph-name="uni00B3" unicode="&#xb3;" horiz-adv-x="648" 
d="M618 407c-0.666992 -59.333 -28.001 -102.835 -82.001 -130.502s-124 -41.5 -210 -41.5c-97.333 0 -171.833 16.667 -223.5 50s-77.5 83.666 -77.5 150.999h151c0 -34 14.5 -58.667 43.5 -74s64.5 -22.666 106.5 -21.999c36.667 -0.666992 67.834 4.33301 93.501 15
s38.834 28 39.501 52c-0.666992 17.333 -7.83398 29 -21.501 35s-39.167 9 -76.5 9h-119v92h119c34 0 58.333 4.33301 73 13s22 19.334 22 32.001c0 16 -12.667 27.667 -38 35s-56 11.333 -92 12c-42 0 -77.5 -4.33301 -106.5 -13s-43.5 -22 -43.5 -40h-151
c0 62 31.333 104 94 126s131.667 33 207 33c76 0 141.5 -9.16699 196.5 -27.5s82.5 -56.833 82.5 -115.5c0 -22.667 -7 -41 -21 -55s-32.667 -24.333 -56 -31c54.667 -17.333 84.667 -51.666 90 -102.999v-2v0z" />
    <glyph glyph-name="acute" unicode="&#xb4;" horiz-adv-x="521" 
d="M123 777l70 133h224l-120 -133h-174z" />
    <glyph glyph-name="paragraph" unicode="&#xb6;" horiz-adv-x="995" 
d="M980 540l-99 0.000976562v-660h-229v660h-109v-660h-229v360c-62.667 0 -117 11 -163 33s-80.667 51.667 -104 89s-34 78.666 -32 123.999c0 82 25.5 144.667 76.5 188s125.167 65.333 222.5 66h666v-200z" />
    <glyph glyph-name="periodcentered" unicode="&#xb7;" horiz-adv-x="171" 
d="M53.5 247c-9 8.66699 -13.5 19.334 -13.5 32.001s4.5 23.5 13.5 32.5s19.833 13.5 32.5 13.5s23.334 -4.5 32.001 -13.5s13 -19.833 13 -32.5s-4.33301 -23.334 -13 -32.001s-19.334 -13 -32.001 -13s-23.5 4.33301 -32.5 13z" />
    <glyph glyph-name="cedilla" unicode="&#xb8;" horiz-adv-x="600" 
d="M350 -42c38 0 72.832 -6.16797 104.499 -18.501s47.167 -36.166 46.5 -71.499c0 -45.333 -23.667 -75.833 -71 -91.5s-98.666 -23.5 -153.999 -23.5c-136.667 0 -205 41 -205 123h111c0 -20 10.167 -32.833 30.5 -38.5s37.833 -8.5 52.5 -8.5c16 0 33.667 2 53 6
s29 14.333 29 31c0 20 -25 30 -75 30h-51v202h129v-140z" />
    <glyph glyph-name="uni00B9" unicode="&#xb9;" horiz-adv-x="305" 
d="M275 740v-478h-149v310h-107v86c60 0 98.333 8.66699 115 26s25 36 25 56h116z" />
    <glyph glyph-name="ordmasculine" unicode="&#xba;" horiz-adv-x="522" 
d="M391.5 523.5c37 -16.333 66.167 -39 87.5 -68s32 -61.833 32 -98.5c0 -36 -10.667 -68.333 -32 -97s-50.5 -51.167 -87.5 -67.5s-78.833 -24.5 -125.5 -24.5c-44.667 0 -86.667 8.16699 -126 24.5s-70.666 39 -93.999 68s-35 61.167 -35 96.5c0 36 11.667 68.5 35 97.5
s54.666 51.833 93.999 68.5s81.333 25 126 25c46.667 0 88.5 -8.16699 125.5 -24.5zM335.5 284.5c19 17 28.5 41.167 28.5 72.5c0 30.667 -9.66699 54.5 -29 71.5s-42.333 25.5 -69 25.5s-50.667 -8.66699 -72 -26s-32 -41 -32 -71c0 -30.667 10.667 -54.667 32 -72
s45.333 -26 72 -26c27.333 0 50.5 8.5 69.5 25.5z" />
    <glyph glyph-name="guillemotright" unicode="&#xbb;" horiz-adv-x="717" 
d="M225 65h-214l208 211l-200 203h216l192 -202zM510 65h-214l208 211l-200 203h216l192 -202z" />
    <glyph glyph-name="questiondown" unicode="&#xbf;" horiz-adv-x="853" 
d="M591 544l1 -185h-213l-1 185h213zM841 49c0 -105.333 -41.8291 -176.164 -125.496 -212.497s-177.834 -54.5 -282.501 -54.5c-67.333 0 -131 5.16699 -191 15.5s-113.5 34 -160.5 71s-70.5 91.833 -70.5 164.5c0 61.333 16.667 106.5 50 135.5s68.666 46.5 105.999 52.5
s74.666 8.66699 111.999 8c43.333 0.666992 71.166 9 83.499 25s18.5 36.333 18.5 61h211c0 -58 -11 -105.5 -33 -142.5s-64.667 -56.5 -128 -58.5c-40 0 -82.667 -5.83301 -128 -17.5s-68 -33.834 -68 -66.501c0 -28.667 19.333 -49.5 58 -62.5s85.667 -19.167 141 -18.5
c52 1.33301 96.167 10.166 132.5 26.499s54.5 41.166 54.5 74.499z" />
    <glyph glyph-name="Agrave" unicode="&#xc0;" horiz-adv-x="1017" 
d="M1036 0h-249l-69 127h-419l-69 -127h-249l401 740h253zM509 514l-120 -220h239zM299 910h224l70 -133h-174z" />
    <glyph glyph-name="Aacute" unicode="&#xc1;" horiz-adv-x="1017" 
d="M1036 0h-249l-69 127h-419l-69 -127h-249l401 740h253zM509 514l-120 -220h239zM421 777l70 133h224l-120 -133h-174z" />
    <glyph glyph-name="Acircumflex" unicode="&#xc2;" horiz-adv-x="1017" 
d="M1036 0h-249l-69 127h-419l-69 -127h-249l401 740h253zM509 514l-120 -220h239zM611 910l180 -136h-209l-81 61l-77 -61h-209l170 136h226z" />
    <glyph glyph-name="Atilde" unicode="&#xc3;" horiz-adv-x="1017" 
d="M1036 0h-249l-69 127h-419l-69 -127h-249l401 740h253zM509 514l-120 -220h239zM750 935c0 -98 -39.999 -147.001 -119.999 -147.001c-22 0 -42.333 2.33301 -61 7s-41.334 11.334 -68.001 20.001c-33.333 8 -57.333 12 -72 12c-30.667 0 -46 -11 -46 -33h-131
c0 98.667 40 148 120 148c19.333 0 38.5 -2.33301 57.5 -7s34.833 -9 47.5 -13s20.667 -6.66699 24 -8c33.333 -8 57.333 -12 72 -12c31.333 0 47 11 47 33h130z" />
    <glyph glyph-name="Adieresis" unicode="&#xc4;" horiz-adv-x="1017" 
d="M1036 0h-249l-69 127h-419l-69 -127h-249l401 740h253zM509 514l-120 -220h239zM303 810.5c-18 18.333 -27 40.833 -27 67.5c0 26 9 48 27 66s40.333 27 67 27c26 0 48.167 -9 66.5 -27s27.5 -40 27.5 -66c0 -26.667 -9.16699 -49.167 -27.5 -67.5
s-40.5 -27.5 -66.5 -27.5c-26.667 0 -49 9.16699 -67 27.5zM569 810.5c-18 18.333 -27 40.833 -27 67.5c0 26 9 48 27 66s40.333 27 67 27c26 0 48.167 -9 66.5 -27s27.5 -40 27.5 -66c0 -26.667 -9.16699 -49.167 -27.5 -67.5s-40.5 -27.5 -66.5 -27.5
c-26.667 0 -49 9.16699 -67 27.5z" />
    <glyph glyph-name="Aring" unicode="&#xc5;" horiz-adv-x="1017" 
d="M1036 0h-249l-69 127h-419l-69 -127h-249l401 740h253zM509 514l-120 -220h239zM364 1016c14.667 24.667 34.501 44.333 59.501 59s52.167 22 81.5 22c28.667 0 55.5 -7.33301 80.5 -22s44.833 -34.5 59.5 -59.5s22 -51.833 22 -80.5c0 -29.333 -7.33301 -56.5 -22 -81.5
s-34.334 -44.833 -59.001 -59.5s-51.667 -22 -81 -22s-56.5 7.33301 -81.5 22s-44.833 34.5 -59.5 59.5s-22 52.167 -22 81.5s7.33301 56.333 22 81zM456.501 886.999c13 -13.333 29.167 -20 48.5 -20c18.667 0 34.5 6.66699 47.5 20s19.5 29.333 19.5 48
c0 18 -6.66699 33.667 -20 47s-29 20 -47 20c-18.667 0 -34.667 -6.5 -48 -19.5s-20 -28.833 -20 -47.5s6.5 -34.667 19.5 -48z" />
    <glyph glyph-name="AE" unicode="&#xc6;" horiz-adv-x="1508" 
d="M1397 288h-462v-113l546 4v-179h-792v120h-353l-97 -120h-258l595 740h905l1 -179h-547v-98h462v-175zM689 555l-221 -269h221v269z" />
    <glyph glyph-name="Ccedilla" unicode="&#xc7;" horiz-adv-x="1011" 
d="M645.5 202c39 22 67.8311 53.3262 86.498 93.9932h257c-13.333 -58.667 -38.833 -110.667 -76.5 -156s-85.5 -81.666 -143.5 -108.999s-123.667 -43.666 -197 -48.999v-28c38 0 72.833 -6.16699 104.5 -18.5s47.167 -36.166 46.5 -71.499
c0 -45.333 -23.667 -75.833 -71 -91.5s-99 -23.5 -155 -23.5c-136 0 -204 41 -204 123h111c0 -20 10 -32.833 30 -38.5s37.333 -8.5 52 -8.5c16 0 33.833 2 53.5 6s29.5 14.333 29.5 31c0 12 -7.66699 19.833 -23 23.5s-29.333 5.66699 -42 6s-20.334 0.5 -23.001 0.5h-38
v92c-80 8.66699 -152.167 30.834 -216.5 66.501s-114.666 81.167 -150.999 136.5s-54.5 116 -54.5 182c0 74 21.833 140.667 65.5 200s103.334 105.833 179.001 139.5s159.5 50.5 251.5 50.5c82.667 0 157.334 -13.167 224.001 -39.5s121.334 -63.333 164.001 -111
s71 -103.5 85 -167.5h-256c-10 26.667 -26.833 49.834 -50.5 69.501s-50.167 34.5 -79.5 44.5s-58 15 -86 15c-39.333 0 -77.5 -8 -114.5 -24s-67 -39.167 -90 -69.5s-34.5 -66.166 -34.5 -107.499s11.333 -77.166 34 -107.499s52.167 -53.333 88.5 -69
s75.166 -23.5 116.499 -23.5c46 0 88.5 11 127.5 33z" />
    <glyph glyph-name="Egrave" unicode="&#xc8;" horiz-adv-x="861" 
d="M750 288h-462v-113l546 4v-179h-793v740h793l1 -179h-547v-98h462v-175zM248 907h224l70 -133h-174z" />
    <glyph glyph-name="Eacute" unicode="&#xc9;" horiz-adv-x="861" 
d="M750 288h-462v-113l546 4v-179h-793v740h793l1 -179h-547v-98h462v-175zM299 777l70 133h224l-120 -133h-174z" />
    <glyph glyph-name="Ecircumflex" unicode="&#xca;" horiz-adv-x="861" 
d="M750 288h-462v-113l546 4v-179h-793v740h793l1 -179h-547v-98h462v-175zM540 910l180 -136h-209l-81 61l-77 -61h-209l170 136h226z" />
    <glyph glyph-name="Edieresis" unicode="&#xcb;" horiz-adv-x="861" 
d="M750 288h-462v-113l546 4v-179h-793v740h793l1 -179h-547v-98h462v-175zM227 810.5c-18 18.333 -27 40.833 -27 67.5c0 26 9 48 27 66s40.333 27 67 27c26 0 48.167 -9 66.5 -27s27.5 -40 27.5 -66c0 -26.667 -9.16699 -49.167 -27.5 -67.5s-40.5 -27.5 -66.5 -27.5
c-26.667 0 -49 9.16699 -67 27.5zM493 810.5c-18 18.333 -27 40.833 -27 67.5c0 26 9 48 27 66s40.333 27 67 27c26 0 48.167 -9 66.5 -27s27.5 -40 27.5 -66c0 -26.667 -9.16699 -49.167 -27.5 -67.5s-40.5 -27.5 -66.5 -27.5c-26.667 0 -49 9.16699 -67 27.5z" />
    <glyph glyph-name="Igrave" unicode="&#xcc;" horiz-adv-x="329" 
d="M288 0h-247v740h247v-740zM-48 910h224l70 -133h-174z" />
    <glyph glyph-name="Iacute" unicode="&#xcd;" horiz-adv-x="329" 
d="M288 0h-247v740h247v-740zM73 777l70 133h224l-120 -133h-174z" />
    <glyph glyph-name="Icircumflex" unicode="&#xce;" horiz-adv-x="329" 
d="M288 0h-247v740h247v-740zM274 910l180 -136h-209l-81 61l-77 -61h-209l170 136h226z" />
    <glyph glyph-name="Idieresis" unicode="&#xcf;" horiz-adv-x="329" 
d="M288 0h-247v740h247v-740zM-36 810.5c-18 18.333 -27 40.833 -27 67.5c0 26 9 48 27 66s40.333 27 67 27c26 0 48.167 -9 66.5 -27s27.5 -40 27.5 -66c0 -26.667 -9.16699 -49.167 -27.5 -67.5s-40.5 -27.5 -66.5 -27.5c-26.667 0 -49 9.16699 -67 27.5zM230 810.5
c-18 18.333 -27 40.833 -27 67.5c0 26 9 48 27 66s40.333 27 67 27c26 0 48.167 -9 66.5 -27s27.5 -40 27.5 -66c0 -26.667 -9.16699 -49.167 -27.5 -67.5s-40.5 -27.5 -66.5 -27.5c-26.667 0 -49 9.16699 -67 27.5z" />
    <glyph glyph-name="Eth" unicode="&#xd0;" horiz-adv-x="930" 
d="M853 180c-36.667 -56 -89 -100.001 -157 -132.001s-147 -48 -237 -48v-1h-199v1h-197v284h-60v176h60v280h395c90 0 169.167 -15.833 237.5 -47.5s120.833 -75.667 157.5 -132s55 -120.166 55 -191.499c0 -70 -18.333 -133 -55 -189zM463 197.999
c58 0 106.167 14.168 144.5 42.501s57.5 71.166 57.5 128.499c0 32 -9.16699 61.167 -27.5 87.5s-43 47 -74 62s-64.5 22.5 -100.5 22.5h-154v-81h167v-176h-167v-86h154z" />
    <glyph glyph-name="Ntilde" unicode="&#xd1;" horiz-adv-x="1028" 
d="M288 0h-247v740zM986 0h-246h246zM740 287v453h246v-740h-246l-452 453v-453h-247v740h247zM758 940c0 -98 -39.999 -147.001 -119.999 -147.001c-22 0 -42.333 2.33301 -61 7s-41.334 11.334 -68.001 20.001c-33.333 8 -57.333 12 -72 12c-30.667 0 -46 -11 -46 -33
h-131c0 98.667 40 148 120 148c19.333 0 38.5 -2.33301 57.5 -7s34.833 -9 47.5 -13s20.667 -6.66699 24 -8c33.333 -8 57.333 -12 72 -12c31.333 0 47 11 47 33h130z" />
    <glyph glyph-name="Ograve" unicode="&#xd2;" horiz-adv-x="1009" 
d="M753.5 705.5c73.667 -33.667 131.333 -79.998 173 -138.998s62.5 -125.5 62.5 -199.5c0 -73.333 -20.833 -139.333 -62.5 -198s-99.167 -104.834 -172.5 -138.501s-155.666 -50.5 -246.999 -50.5c-88 0 -169.333 16.833 -244 50.5s-133.834 80 -177.501 139
s-65.5 124.833 -65.5 197.5c0 73.333 21.833 139.666 65.5 198.999s102.667 105.833 177 139.5s155.5 50.5 243.5 50.5c91.333 0 173.833 -16.833 247.5 -50.5zM614.499 191.002c34.333 16 62.1699 39.001 83.5029 69.001s32 65.667 32 107s-10.833 77.166 -32.5 107.499
s-49.834 53.333 -84.501 69s-70.667 23.5 -108 23.5c-38 0 -74 -8 -108 -24s-61.5 -39.167 -82.5 -69.5s-31.5 -65.833 -31.5 -106.5c0 -41.333 10.667 -77 32 -107s49.166 -53 83.499 -69s70.5 -24 108.5 -24c37.333 0 73.166 8 107.499 24zM300.003 918.003h224l70 -133
h-174z" />
    <glyph glyph-name="Oacute" unicode="&#xd3;" horiz-adv-x="1009" 
d="M753.5 705.5c73.667 -33.667 131.333 -79.998 173 -138.998s62.5 -125.5 62.5 -199.5c0 -73.333 -20.833 -139.333 -62.5 -198s-99.167 -104.834 -172.5 -138.501s-155.666 -50.5 -246.999 -50.5c-88 0 -169.333 16.833 -244 50.5s-133.834 80 -177.501 139
s-65.5 124.833 -65.5 197.5c0 73.333 21.833 139.666 65.5 198.999s102.667 105.833 177 139.5s155.5 50.5 243.5 50.5c91.333 0 173.833 -16.833 247.5 -50.5zM614.499 191.002c34.333 16 62.1699 39.001 83.5029 69.001s32 65.667 32 107s-10.833 77.166 -32.5 107.499
s-49.834 53.333 -84.501 69s-70.667 23.5 -108 23.5c-38 0 -74 -8 -108 -24s-61.5 -39.167 -82.5 -69.5s-31.5 -65.833 -31.5 -106.5c0 -41.333 10.667 -77 32 -107s49.166 -53 83.499 -69s70.5 -24 108.5 -24c37.333 0 73.166 8 107.499 24zM397.003 777.003l70 133h224
l-120 -133h-174z" />
    <glyph glyph-name="Ocircumflex" unicode="&#xd4;" horiz-adv-x="1009" 
d="M753.5 705.5c73.667 -33.667 131.333 -79.998 173 -138.998s62.5 -125.5 62.5 -199.5c0 -73.333 -20.833 -139.333 -62.5 -198s-99.167 -104.834 -172.5 -138.501s-155.666 -50.5 -246.999 -50.5c-88 0 -169.333 16.833 -244 50.5s-133.834 80 -177.501 139
s-65.5 124.833 -65.5 197.5c0 73.333 21.833 139.666 65.5 198.999s102.667 105.833 177 139.5s155.5 50.5 243.5 50.5c91.333 0 173.833 -16.833 247.5 -50.5zM614.499 191.002c34.333 16 62.1699 39.001 83.5029 69.001s32 65.667 32 107s-10.833 77.166 -32.5 107.499
s-49.834 53.333 -84.501 69s-70.667 23.5 -108 23.5c-38 0 -74 -8 -108 -24s-61.5 -39.167 -82.5 -69.5s-31.5 -65.833 -31.5 -106.5c0 -41.333 10.667 -77 32 -107s49.166 -53 83.499 -69s70.5 -24 108.5 -24c37.333 0 73.166 8 107.499 24zM617.003 910.003l180 -136h-209
l-81 61l-77 -61h-209l170 136h226z" />
    <glyph glyph-name="Otilde" unicode="&#xd5;" horiz-adv-x="1009" 
d="M753.5 705.5c73.667 -33.667 131.333 -79.998 173 -138.998s62.5 -125.5 62.5 -199.5c0 -73.333 -20.833 -139.333 -62.5 -198s-99.167 -104.834 -172.5 -138.501s-155.666 -50.5 -246.999 -50.5c-88 0 -169.333 16.833 -244 50.5s-133.834 80 -177.501 139
s-65.5 124.833 -65.5 197.5c0 73.333 21.833 139.666 65.5 198.999s102.667 105.833 177 139.5s155.5 50.5 243.5 50.5c91.333 0 173.833 -16.833 247.5 -50.5zM614.499 191.002c34.333 16 62.1699 39.001 83.5029 69.001s32 65.667 32 107s-10.833 77.166 -32.5 107.499
s-49.834 53.333 -84.501 69s-70.667 23.5 -108 23.5c-38 0 -74 -8 -108 -24s-61.5 -39.167 -82.5 -69.5s-31.5 -65.833 -31.5 -106.5c0 -41.333 10.667 -77 32 -107s49.166 -53 83.499 -69s70.5 -24 108.5 -24c37.333 0 73.166 8 107.499 24zM743.003 940.003
c0 -98 -39.999 -147.001 -119.999 -147.001c-22 0 -42.333 2.33301 -61 7s-41.334 11.334 -68.001 20.001c-33.333 8 -57.333 12 -72 12c-30.667 0 -46 -11 -46 -33h-131c0 98.667 40 148 120 148c19.333 0 38.5 -2.33301 57.5 -7s34.833 -9 47.5 -13s20.667 -6.66699 24 -8
c33.333 -8 57.333 -12 72 -12c31.333 0 47 11 47 33h130z" />
    <glyph glyph-name="Odieresis" unicode="&#xd6;" horiz-adv-x="1009" 
d="M753.5 705.5c73.667 -33.667 131.333 -79.998 173 -138.998s62.5 -125.5 62.5 -199.5c0 -73.333 -20.833 -139.333 -62.5 -198s-99.167 -104.834 -172.5 -138.501s-155.666 -50.5 -246.999 -50.5c-88 0 -169.333 16.833 -244 50.5s-133.834 80 -177.501 139
s-65.5 124.833 -65.5 197.5c0 73.333 21.833 139.666 65.5 198.999s102.667 105.833 177 139.5s155.5 50.5 243.5 50.5c91.333 0 173.833 -16.833 247.5 -50.5zM614.499 191.002c34.333 16 62.1699 39.001 83.5029 69.001s32 65.667 32 107s-10.833 77.166 -32.5 107.499
s-49.834 53.333 -84.501 69s-70.667 23.5 -108 23.5c-38 0 -74 -8 -108 -24s-61.5 -39.167 -82.5 -69.5s-31.5 -65.833 -31.5 -106.5c0 -41.333 10.667 -77 32 -107s49.166 -53 83.499 -69s70.5 -24 108.5 -24c37.333 0 73.166 8 107.499 24zM305.003 810.503
c-18 18.333 -27 40.833 -27 67.5c0 26 9 48 27 66s40.333 27 67 27c26 0 48.167 -9 66.5 -27s27.5 -40 27.5 -66c0 -26.667 -9.16699 -49.167 -27.5 -67.5s-40.5 -27.5 -66.5 -27.5c-26.667 0 -49 9.16699 -67 27.5zM571.003 810.503c-18 18.333 -27 40.833 -27 67.5
c0 26 9 48 27 66s40.333 27 67 27c26 0 48.167 -9 66.5 -27s27.5 -40 27.5 -66c0 -26.667 -9.16699 -49.167 -27.5 -67.5s-40.5 -27.5 -66.5 -27.5c-26.667 0 -49 9.16699 -67 27.5z" />
    <glyph glyph-name="multiply" unicode="&#xd7;" horiz-adv-x="428" 
d="M331 522l82 -82l-117 -117l117 -117l-82 -82l-117 117l-117 -117l-82 82l117 117l-117 117l82 82l117 -117z" />
    <glyph glyph-name="Oslash" unicode="&#xd8;" horiz-adv-x="1008" 
d="M848 649c44.667 -35.333 79.3311 -77.1641 103.998 -125.497s37 -100.5 37 -156.5c0 -73.333 -20.833 -139.333 -62.5 -198s-99.167 -104.834 -172.5 -138.501s-155.666 -50.5 -246.999 -50.5c-50 0 -98.667 5.66699 -146 17l-34 -46h-248l97 130
c-49.333 35.333 -87.666 77.666 -114.999 126.999s-41 102.333 -41 159c0 73.333 21.833 139.666 65.5 198.999s102.667 105.833 177 139.5s155.5 50.5 243.5 50.5c56.667 0 110 -6.66699 160 -20l32 43h247zM312.997 264.002l225 300.999c-14.667 1.33301 -25.667 2 -33 2
c-38 0 -74 -8 -108 -24s-61.5 -39.167 -82.5 -69.5s-31.5 -65.833 -31.5 -106.5c0 -39.333 10 -73.666 30 -102.999zM614.497 191.001c34.333 16 62.168 39 83.501 69s32 65.667 32 107c0 32.667 -7.66699 63.667 -23 93l-218 -292c4 -0.666992 10 -1 18 -1
c37.333 0 73.166 8 107.499 24z" />
    <glyph glyph-name="Ugrave" unicode="&#xd9;" horiz-adv-x="983" 
d="M695 740l252.001 -0.000976562v-379c0 -72 -20 -137 -60 -195s-94 -103.5 -162 -136.5s-142.333 -49.5 -223 -49.5c-86.667 0 -165.334 16.333 -236.001 49s-126.5 77.834 -167.5 135.501s-61.833 122.5 -62.5 194.5v381h256v-381
c0 -60.667 20.833 -105.334 62.5 -134.001s91.167 -43 148.5 -43c30 0 59.667 5.83301 89 17.5s53.833 30.834 73.5 57.501s29.5 60.667 29.5 102v381zM284.001 909.999h224l70 -133h-174z" />
    <glyph glyph-name="Uacute" unicode="&#xda;" horiz-adv-x="983" 
d="M695 740l252.001 -0.000976562v-379c0 -72 -20 -137 -60 -195s-94 -103.5 -162 -136.5s-142.333 -49.5 -223 -49.5c-86.667 0 -165.334 16.333 -236.001 49s-126.5 77.834 -167.5 135.501s-61.833 122.5 -62.5 194.5v381h256v-381
c0 -60.667 20.833 -105.334 62.5 -134.001s91.167 -43 148.5 -43c30 0 59.667 5.83301 89 17.5s53.833 30.834 73.5 57.501s29.5 60.667 29.5 102v381zM400.001 776.999l70 133h224l-120 -133h-174z" />
    <glyph glyph-name="Ucircumflex" unicode="&#xdb;" horiz-adv-x="983" 
d="M695 740l252.001 -0.000976562v-379c0 -72 -20 -137 -60 -195s-94 -103.5 -162 -136.5s-142.333 -49.5 -223 -49.5c-86.667 0 -165.334 16.333 -236.001 49s-126.5 77.834 -167.5 135.501s-61.833 122.5 -62.5 194.5v381h256v-381
c0 -60.667 20.833 -105.334 62.5 -134.001s91.167 -43 148.5 -43c30 0 59.667 5.83301 89 17.5s53.833 30.834 73.5 57.501s29.5 60.667 29.5 102v381zM601.001 909.999l180 -136h-209l-81 61l-77 -61h-209l170 136h226z" />
    <glyph glyph-name="Udieresis" unicode="&#xdc;" horiz-adv-x="983" 
d="M695 740l252.001 -0.000976562v-379c0 -72 -20 -137 -60 -195s-94 -103.5 -162 -136.5s-142.333 -49.5 -223 -49.5c-86.667 0 -165.334 16.333 -236.001 49s-126.5 77.834 -167.5 135.501s-61.833 122.5 -62.5 194.5v381h256v-381
c0 -60.667 20.833 -105.334 62.5 -134.001s91.167 -43 148.5 -43c30 0 59.667 5.83301 89 17.5s53.833 30.834 73.5 57.501s29.5 60.667 29.5 102v381zM284.001 810.499c-18 18.333 -27 40.833 -27 67.5c0 26 9 48 27 66s40.333 27 67 27c26 0 48.167 -9 66.5 -27
s27.5 -40 27.5 -66c0 -26.667 -9.16699 -49.167 -27.5 -67.5s-40.5 -27.5 -66.5 -27.5c-26.667 0 -49 9.16699 -67 27.5zM550.001 810.499c-18 18.333 -27 40.833 -27 67.5c0 26 9 48 27 66s40.333 27 67 27c26 0 48.167 -9 66.5 -27s27.5 -40 27.5 -66
c0 -26.667 -9.16699 -49.167 -27.5 -67.5s-40.5 -27.5 -66.5 -27.5c-26.667 0 -49 9.16699 -67 27.5z" />
    <glyph glyph-name="Yacute" unicode="&#xdd;" horiz-adv-x="974" 
d="M718 740h255l-354 -429v-311h-265v310l-353 430h255l225 -275zM391 777l70 133h224l-120 -133h-174z" />
    <glyph glyph-name="Thorn" unicode="&#xde;" horiz-adv-x="936" 
d="M764.5 617c47.667 -20.667 84.666 -49.5 110.999 -86.5s39.5 -79.833 39.5 -128.5v-4c0 -79.333 -28.167 -141 -84.5 -185s-132.166 -66 -227.499 -66h-315v-147h-247v740h247v-92h312c62 0 116.833 -10.333 164.5 -31zM633.999 325
c16.667 2 30.666 8.33203 41.999 18.999s17 28.334 17 53.001s-5.66699 42.667 -17 54s-26 18.333 -44 21s-43.333 4 -76 4h-33c-13.333 0 -36.666 -0.166992 -69.999 -0.5s-88.333 -0.5 -165 -0.5v-153h267h1c35.333 0 61.333 1 78 3z" />
    <glyph glyph-name="germandbls" unicode="&#xdf;" horiz-adv-x="953" 
d="M859.5 342.5c48.333 -26.333 72.499 -78.498 72.499 -156.498c0 -50 -18.333 -88.333 -55 -115s-97.667 -45.167 -183 -55.5s-207.333 -15.5 -366 -15.5v156l103 -1c71.333 0 130.333 5.16699 177 15.5s70 30.833 70 61.5c0 21.333 -7.83301 35.833 -23.5 43.5
s-39.167 13.834 -70.5 18.501c-23.333 3.33301 -42.166 7.16602 -56.499 11.499s-26.5 11.833 -36.5 22.5s-15 25.667 -15 45c0 22 4.83301 37.667 14.5 47s23.834 17.333 42.501 24c20 7.33301 34.833 15.666 44.5 24.999s14.5 25.666 14.5 48.999
c0 36 -14.333 62.333 -43 79s-66.334 25 -113.001 25c-50.667 0 -88.5 -12 -113.5 -36s-40.333 -50.167 -46 -78.5s-8.5 -58.5 -8.5 -90.5v-417h-247v417c0 84 17.833 150 53.5 198s85 81.667 148 101s140.167 29 231.5 29c81.333 0 148.333 -10.5 201 -31.5
s90.834 -48 114.501 -81s35.5 -67.5 35.5 -103.5c0 -26 -5.66699 -50.167 -17 -72.5s-26.833 -40.333 -46.5 -54s-41.834 -20.5 -66.501 -20.5c74.667 0 136.167 -13.167 184.5 -39.5z" />
    <glyph glyph-name="agrave" unicode="&#xe0;" horiz-adv-x="786" 
d="M646 521c76 -32 114.001 -88.333 114.001 -169v-352h-218l-17 71v5c-16.667 -30 -51.834 -52 -105.501 -66s-112.167 -21 -175.5 -21c-50.667 0 -101.334 11.167 -152.001 33.5s-76 69.166 -76 140.499c0 112.667 73.667 169 221 169c94.667 0 160.667 0.833008 198 2.5
s62 5 74 10s18.333 14.167 19 27.5v13c-0.666992 22 -15.167 38.167 -43.5 48.5s-60.5 15.5 -96.5 15.5c-37.333 -0.666992 -69.166 -7.66699 -95.499 -21s-39.5 -33.666 -39.5 -60.999h-231c0 50.667 20 91.167 60 121.5s87.833 51.333 143.5 63s110.167 17.5 163.5 17.5
c95.333 0 181 -16 257 -48zM486.001 168c25.333 22 39 50 41 84v14c-25.333 -10.667 -65.666 -16 -120.999 -16c-57.333 0 -97.5 -4 -120.5 -12s-34.833 -22.667 -35.5 -44c2 -20 12.5 -34.833 31.5 -44.5s49.833 -14.5 92.5 -14.5c49.333 0 86.666 11 111.999 33z
M177.001 730h224l70 -133h-174z" />
    <glyph glyph-name="aacute" unicode="&#xe1;" horiz-adv-x="786" 
d="M646 521c76 -32 114.001 -88.333 114.001 -169v-352h-218l-17 71v5c-16.667 -30 -51.834 -52 -105.501 -66s-112.167 -21 -175.5 -21c-50.667 0 -101.334 11.167 -152.001 33.5s-76 69.166 -76 140.499c0 112.667 73.667 169 221 169c94.667 0 160.667 0.833008 198 2.5
s62 5 74 10s18.333 14.167 19 27.5v13c-0.666992 22 -15.167 38.167 -43.5 48.5s-60.5 15.5 -96.5 15.5c-37.333 -0.666992 -69.166 -7.66699 -95.499 -21s-39.5 -33.666 -39.5 -60.999h-231c0 50.667 20 91.167 60 121.5s87.833 51.333 143.5 63s110.167 17.5 163.5 17.5
c95.333 0 181 -16 257 -48zM486.001 168c25.333 22 39 50 41 84v14c-25.333 -10.667 -65.666 -16 -120.999 -16c-57.333 0 -97.5 -4 -120.5 -12s-34.833 -22.667 -35.5 -44c2 -20 12.5 -34.833 31.5 -44.5s49.833 -14.5 92.5 -14.5c49.333 0 86.666 11 111.999 33z
M266.001 597l70 133h224l-120 -133h-174z" />
    <glyph glyph-name="acircumflex" unicode="&#xe2;" horiz-adv-x="786" 
d="M646 521c76 -32 114.001 -88.333 114.001 -169v-352h-218l-17 71v5c-16.667 -30 -51.834 -52 -105.501 -66s-112.167 -21 -175.5 -21c-50.667 0 -101.334 11.167 -152.001 33.5s-76 69.166 -76 140.499c0 112.667 73.667 169 221 169c94.667 0 160.667 0.833008 198 2.5
s62 5 74 10s18.333 14.167 19 27.5v13c-0.666992 22 -15.167 38.167 -43.5 48.5s-60.5 15.5 -96.5 15.5c-37.333 -0.666992 -69.166 -7.66699 -95.499 -21s-39.5 -33.666 -39.5 -60.999h-231c0 50.667 20 91.167 60 121.5s87.833 51.333 143.5 63s110.167 17.5 163.5 17.5
c95.333 0 181 -16 257 -48zM486.001 168c25.333 22 39 50 41 84v14c-25.333 -10.667 -65.666 -16 -120.999 -16c-57.333 0 -97.5 -4 -120.5 -12s-34.833 -22.667 -35.5 -44c2 -20 12.5 -34.833 31.5 -44.5s49.833 -14.5 92.5 -14.5c49.333 0 86.666 11 111.999 33z
M499.001 730l180 -136h-209l-81 61l-77 -61h-209l170 136h226z" />
    <glyph glyph-name="atilde" unicode="&#xe3;" horiz-adv-x="786" 
d="M646 521c76 -32 114.001 -88.333 114.001 -169v-352h-218l-17 71v5c-16.667 -30 -51.834 -52 -105.501 -66s-112.167 -21 -175.5 -21c-50.667 0 -101.334 11.167 -152.001 33.5s-76 69.166 -76 140.499c0 112.667 73.667 169 221 169c94.667 0 160.667 0.833008 198 2.5
s62 5 74 10s18.333 14.167 19 27.5v13c-0.666992 22 -15.167 38.167 -43.5 48.5s-60.5 15.5 -96.5 15.5c-37.333 -0.666992 -69.166 -7.66699 -95.499 -21s-39.5 -33.666 -39.5 -60.999h-231c0 50.667 20 91.167 60 121.5s87.833 51.333 143.5 63s110.167 17.5 163.5 17.5
c95.333 0 181 -16 257 -48zM486.001 168c25.333 22 39 50 41 84v14c-25.333 -10.667 -65.666 -16 -120.999 -16c-57.333 0 -97.5 -4 -120.5 -12s-34.833 -22.667 -35.5 -44c2 -20 12.5 -34.833 31.5 -44.5s49.833 -14.5 92.5 -14.5c49.333 0 86.666 11 111.999 33z
M635.001 755c0 -98 -39.999 -147.001 -119.999 -147.001c-22 0 -42.333 2.33301 -61 7s-41.334 11.334 -68.001 20.001c-33.333 8 -57.333 12 -72 12c-30.667 0 -46 -11 -46 -33h-131c0 98.667 40 148 120 148c19.333 0 38.5 -2.33301 57.5 -7s34.833 -9 47.5 -13
s20.667 -6.66699 24 -8c33.333 -8 57.333 -12 72 -12c31.333 0 47 11 47 33h130z" />
    <glyph glyph-name="adieresis" unicode="&#xe4;" horiz-adv-x="786" 
d="M646 521c76 -32 114.001 -88.333 114.001 -169v-352h-218l-17 71v5c-16.667 -30 -51.834 -52 -105.501 -66s-112.167 -21 -175.5 -21c-50.667 0 -101.334 11.167 -152.001 33.5s-76 69.166 -76 140.499c0 112.667 73.667 169 221 169c94.667 0 160.667 0.833008 198 2.5
s62 5 74 10s18.333 14.167 19 27.5v13c-0.666992 22 -15.167 38.167 -43.5 48.5s-60.5 15.5 -96.5 15.5c-37.333 -0.666992 -69.166 -7.66699 -95.499 -21s-39.5 -33.666 -39.5 -60.999h-231c0 50.667 20 91.167 60 121.5s87.833 51.333 143.5 63s110.167 17.5 163.5 17.5
c95.333 0 181 -16 257 -48zM486.001 168c25.333 22 39 50 41 84v14c-25.333 -10.667 -65.666 -16 -120.999 -16c-57.333 0 -97.5 -4 -120.5 -12s-34.833 -22.667 -35.5 -44c2 -20 12.5 -34.833 31.5 -44.5s49.833 -14.5 92.5 -14.5c49.333 0 86.666 11 111.999 33z
M193.001 630.5c-18 18.333 -27 40.833 -27 67.5c0 26 9 48 27 66s40.333 27 67 27c26 0 48.167 -9 66.5 -27s27.5 -40 27.5 -66c0 -26.667 -9.16699 -49.167 -27.5 -67.5s-40.5 -27.5 -66.5 -27.5c-26.667 0 -49 9.16699 -67 27.5zM459.001 630.5
c-18 18.333 -27 40.833 -27 67.5c0 26 9 48 27 66s40.333 27 67 27c26 0 48.167 -9 66.5 -27s27.5 -40 27.5 -66c0 -26.667 -9.16699 -49.167 -27.5 -67.5s-40.5 -27.5 -66.5 -27.5c-26.667 0 -49 9.16699 -67 27.5z" />
    <glyph glyph-name="aring" unicode="&#xe5;" horiz-adv-x="786" 
d="M646 521c76 -32 114.001 -88.333 114.001 -169v-352h-218l-17 71v5c-16.667 -30 -51.834 -52 -105.501 -66s-112.167 -21 -175.5 -21c-50.667 0 -101.334 11.167 -152.001 33.5s-76 69.166 -76 140.499c0 112.667 73.667 169 221 169c94.667 0 160.667 0.833008 198 2.5
s62 5 74 10s18.333 14.167 19 27.5v13c-0.666992 22 -15.167 38.167 -43.5 48.5s-60.5 15.5 -96.5 15.5c-37.333 -0.666992 -69.166 -7.66699 -95.499 -21s-39.5 -33.666 -39.5 -60.999h-231c0 50.667 20 91.167 60 121.5s87.833 51.333 143.5 63s110.167 17.5 163.5 17.5
c95.333 0 181 -16 257 -48zM486.001 168c25.333 22 39 50 41 84v14c-25.333 -10.667 -65.666 -16 -120.999 -16c-57.333 0 -97.5 -4 -120.5 -12s-34.833 -22.667 -35.5 -44c2 -20 12.5 -34.833 31.5 -44.5s49.833 -14.5 92.5 -14.5c49.333 0 86.666 11 111.999 33z
M241.001 836c14.667 24.667 34.501 44.333 59.501 59s52.167 22 81.5 22c28.667 0 55.5 -7.33301 80.5 -22s44.833 -34.5 59.5 -59.5s22 -51.833 22 -80.5c0 -29.333 -7.33301 -56.5 -22 -81.5s-34.334 -44.833 -59.001 -59.5s-51.667 -22 -81 -22s-56.5 7.33301 -81.5 22
s-44.833 34.5 -59.5 59.5s-22 52.167 -22 81.5s7.33301 56.333 22 81zM333.502 706.999c13 -13.333 29.167 -20 48.5 -20c18.667 0 34.5 6.66699 47.5 20s19.5 29.333 19.5 48c0 18 -6.66699 33.667 -20 47s-29 20 -47 20c-18.667 0 -34.667 -6.5 -48 -19.5
s-20 -28.833 -20 -47.5s6.5 -34.667 19.5 -48z" />
    <glyph glyph-name="ae" unicode="&#xe6;" horiz-adv-x="1327" 
d="M1305 250l-533 0.00683594c4.66699 -42 20.5 -76.5 47.5 -103.5s63.833 -40.5 110.5 -40.5c38 0 71.833 9.16699 101.5 27.5s44.5 46.5 44.5 84.5h229c0 -77.333 -33.167 -136.333 -99.5 -177s-158.5 -61 -276.5 -61c-66 0 -126.833 10.333 -182.5 31
s-101.167 49.667 -136.5 87c-13.333 -20 -37.166 -38.333 -71.499 -55s-75.333 -29.834 -123 -39.501s-97.5 -14.5 -149.5 -14.5c-55.333 0 -110.833 11.167 -166.5 33.5s-83.5 69.166 -83.5 140.499c0 112.667 73.667 169 221 169c101.333 0 170.666 1 207.999 3
s60.5 6.16699 69.5 12.5s13.5 18.166 13.5 35.499c0 23.333 -14.167 40.166 -42.5 50.499s-60.833 15.5 -97.5 15.5c-37.333 -0.666992 -69.166 -7.5 -95.499 -20.5s-39.5 -33.5 -39.5 -61.5h-231c0 50.667 20 91.167 60 121.5s87.833 51.333 143.5 63
s110.167 17.5 163.5 17.5c51.333 0 102.333 -4.83301 153 -14.5s94 -25.834 130 -48.501c34.667 21.333 74 37.666 118 48.999s90.333 17 139 17c74.667 0 140.167 -12 196.5 -36s100.166 -57.833 131.499 -101.5s47.333 -94.834 48 -153.501v-5h2h-2v-26zM828 422.007
c-23.333 -18.667 -39.333 -44.667 -48 -78h290c-7.33301 33.333 -22 59.333 -44 78s-54.333 28 -97 28c-44 0 -77.667 -9.33301 -101 -28zM538 269.007v2c0 -0.666992 -0.333008 -1 -1 -1zM463 154.007c24.667 12.667 43.166 29.333 55.499 50s18.5 42.667 18.5 66
c-28 -13.333 -71.667 -20 -131 -20c-57.333 0 -97.5 -4 -120.5 -12s-34.833 -22.667 -35.5 -44c2 -20 12.5 -34.833 31.5 -44.5s49.833 -14.5 92.5 -14.5c34.667 0 64.334 6.33301 89.001 19z" />
    <glyph glyph-name="ccedilla" unicode="&#xe7;" horiz-adv-x="764" 
d="M475 145c23.333 18 38.6641 41.667 45.9971 71h230c-6.66699 -40 -23.334 -76.833 -50.001 -110.5s-61.334 -61.667 -104.001 -84s-90.667 -36.833 -144 -43.5v-29c38 0 72.833 -6.16699 104.5 -18.5s47.167 -36.166 46.5 -71.499c0 -45.333 -23.667 -75.833 -71 -91.5
s-99 -23.5 -155 -23.5c-136 0 -204 41 -204 123h111c0 -19.333 10.167 -32 30.5 -38s37.5 -9 51.5 -9c15.333 0 33 2.16699 53 6.5s30 14.5 30 30.5c0 20 -25 30 -75 30h-51v91c-59.333 8 -112.666 25.5 -159.999 52.5s-84.666 61.167 -111.999 102.5
s-41 86.666 -41 135.999c0 56 16.667 106.5 50 151.5s79 80.167 137 105.5s122 38 192 38c66.667 0 125.5 -10.167 176.5 -30.5s92.167 -48.833 123.5 -85.5s52 -79 62 -127h-230c-7.33301 30 -22.666 54 -45.999 72s-51.666 27 -84.999 27
c-43.333 0 -78.666 -13.833 -105.999 -41.5s-41 -64.167 -41 -109.5c0 -44 13.333 -80.167 40 -108.5s61.667 -42.5 105 -42.5c34 0 62.667 9 86 27z" />
    <glyph glyph-name="egrave" unicode="&#xe8;" horiz-adv-x="791" 
d="M778 250l-533 0.000976562c4.66699 -42 20.5 -76.5 47.5 -103.5s63.833 -40.5 110.5 -40.5c38 0 71.833 9.16699 101.5 27.5s44.5 46.5 44.5 84.5h229c0 -77.333 -33.167 -136.333 -99.5 -177s-158.5 -61 -276.5 -61c-72.667 0 -138.667 12.333 -198 37
s-106.333 59.5 -141 104.5s-52 96.5 -52 154.5c0 58.667 17.167 110.5 51.5 155.5s81.333 79.667 141 104s125.834 36.5 198.501 36.5c74.667 0 140.167 -12 196.5 -36s100.166 -57.833 131.499 -101.5s47.333 -94.834 48 -153.501v-5h2h-2v-26zM301 422.001
c-23.333 -18.667 -39.333 -44.667 -48 -78h290c-7.33301 33.333 -22 59.333 -44 78s-54.333 28 -97 28c-44 0 -77.667 -9.33301 -101 -28zM195 730.001h224l70 -133h-174z" />
    <glyph glyph-name="eacute" unicode="&#xe9;" horiz-adv-x="791" 
d="M778 250l-533 0.000976562c4.66699 -42 20.5 -76.5 47.5 -103.5s63.833 -40.5 110.5 -40.5c38 0 71.833 9.16699 101.5 27.5s44.5 46.5 44.5 84.5h229c0 -77.333 -33.167 -136.333 -99.5 -177s-158.5 -61 -276.5 -61c-72.667 0 -138.667 12.333 -198 37
s-106.333 59.5 -141 104.5s-52 96.5 -52 154.5c0 58.667 17.167 110.5 51.5 155.5s81.333 79.667 141 104s125.834 36.5 198.501 36.5c74.667 0 140.167 -12 196.5 -36s100.166 -57.833 131.499 -101.5s47.333 -94.834 48 -153.501v-5h2h-2v-26zM301 422.001
c-23.333 -18.667 -39.333 -44.667 -48 -78h290c-7.33301 33.333 -22 59.333 -44 78s-54.333 28 -97 28c-44 0 -77.667 -9.33301 -101 -28zM294 597.001l70 133h224l-120 -133h-174z" />
    <glyph glyph-name="ecircumflex" unicode="&#xea;" horiz-adv-x="791" 
d="M778 250l-533 0.000976562c4.66699 -42 20.5 -76.5 47.5 -103.5s63.833 -40.5 110.5 -40.5c38 0 71.833 9.16699 101.5 27.5s44.5 46.5 44.5 84.5h229c0 -77.333 -33.167 -136.333 -99.5 -177s-158.5 -61 -276.5 -61c-72.667 0 -138.667 12.333 -198 37
s-106.333 59.5 -141 104.5s-52 96.5 -52 154.5c0 58.667 17.167 110.5 51.5 155.5s81.333 79.667 141 104s125.834 36.5 198.501 36.5c74.667 0 140.167 -12 196.5 -36s100.166 -57.833 131.499 -101.5s47.333 -94.834 48 -153.501v-5h2h-2v-26zM301 422.001
c-23.333 -18.667 -39.333 -44.667 -48 -78h290c-7.33301 33.333 -22 59.333 -44 78s-54.333 28 -97 28c-44 0 -77.667 -9.33301 -101 -28zM506 730.001l180 -136h-209l-81 61l-77 -61h-209l170 136h226z" />
    <glyph glyph-name="edieresis" unicode="&#xeb;" horiz-adv-x="791" 
d="M778 250l-533 0.000976562c4.66699 -42 20.5 -76.5 47.5 -103.5s63.833 -40.5 110.5 -40.5c38 0 71.833 9.16699 101.5 27.5s44.5 46.5 44.5 84.5h229c0 -77.333 -33.167 -136.333 -99.5 -177s-158.5 -61 -276.5 -61c-72.667 0 -138.667 12.333 -198 37
s-106.333 59.5 -141 104.5s-52 96.5 -52 154.5c0 58.667 17.167 110.5 51.5 155.5s81.333 79.667 141 104s125.834 36.5 198.501 36.5c74.667 0 140.167 -12 196.5 -36s100.166 -57.833 131.499 -101.5s47.333 -94.834 48 -153.501v-5h2h-2v-26zM301 422.001
c-23.333 -18.667 -39.333 -44.667 -48 -78h290c-7.33301 33.333 -22 59.333 -44 78s-54.333 28 -97 28c-44 0 -77.667 -9.33301 -101 -28zM196 630.501c-18 18.333 -27 40.833 -27 67.5c0 26 9 48 27 66s40.333 27 67 27c26 0 48.167 -9 66.5 -27s27.5 -40 27.5 -66
c0 -26.667 -9.16699 -49.167 -27.5 -67.5s-40.5 -27.5 -66.5 -27.5c-26.667 0 -49 9.16699 -67 27.5zM462 630.501c-18 18.333 -27 40.833 -27 67.5c0 26 9 48 27 66s40.333 27 67 27c26 0 48.167 -9 66.5 -27s27.5 -40 27.5 -66c0 -26.667 -9.16699 -49.167 -27.5 -67.5
s-40.5 -27.5 -66.5 -27.5c-26.667 0 -49 9.16699 -67 27.5z" />
    <glyph glyph-name="igrave" unicode="&#xec;" horiz-adv-x="270" 
d="M-76 697h224l70 -133h-174zM244 0h-230v545h230v-545z" />
    <glyph glyph-name="iacute" unicode="&#xed;" horiz-adv-x="369" 
d="M49 565l70 133h224l-120 -133h-174zM256 0h-230v545h230v-545z" />
    <glyph glyph-name="icircumflex" unicode="&#xee;" horiz-adv-x="311" 
d="M235 570l-82 62l-77 -62h-209l170 136h227l180 -136h-209zM264 0h-230v545h230v-545z" />
    <glyph glyph-name="idieresis" unicode="&#xef;" horiz-adv-x="319" 
d="M-40.5 596.5c-18.333 18.333 -27.5 40.833 -27.5 67.5c0 26 9.16699 48 27.5 66s40.833 27 67.5 27c26 0 48.167 -9 66.5 -27s27.5 -40 27.5 -66c0 -26.667 -9.16699 -49.167 -27.5 -67.5s-40.5 -27.5 -66.5 -27.5c-26.667 0 -49.167 9.16699 -67.5 27.5zM225.5 596.5
c-18.333 18.333 -27.5 40.833 -27.5 67.5c0 26 9.16699 48 27.5 66s40.833 27 67.5 27c26 0 48.167 -9 66.5 -27s27.5 -40 27.5 -66c0 -26.667 -9.16699 -49.167 -27.5 -67.5s-40.5 -27.5 -66.5 -27.5c-26.667 0 -49.167 9.16699 -67.5 27.5zM273 0h-230v545h230v-545z" />
    <glyph glyph-name="eth" unicode="&#xf0;" 
d="M761.5 382.5c16.333 -34.333 24.5029 -70.835 24.5029 -109.502c0 -55.333 -16.5 -105.5 -49.5 -150.5s-78.333 -80.167 -136 -105.5s-122.5 -38 -194.5 -38c-69.333 0 -134.333 12.833 -195 38.5s-109.167 61 -145.5 106s-54.5 94.833 -54.5 149.5
c0 50 15.167 96.167 45.5 138.5s71.166 76.833 122.499 103.5s108 43.334 170 50.001l-18 13c-5.33301 4 -10 7.33301 -14 10l-157 -42l-86 66l153 41l-121 86h242l54 -40l145 39l85 -65l-140 -38c49.333 -35.333 89.166 -65.166 119.499 -89.499s57.166 -48.5 80.499 -72.5
c30 -26 53.167 -56.167 69.5 -90.5zM480.503 138.998c23 11.333 41.5 28.502 55.5 51.502s21 50.5 21 82.5s-7 59.5 -21 82.5s-32.5 40.167 -55.5 51.5s-47.833 17 -74.5 17c-26 0 -51.5 -5.83301 -76.5 -17.5s-45.5 -28.834 -61.5 -51.501s-24 -50 -24 -82
s8 -59.333 24 -82s36.5 -39.834 61.5 -51.501s50.5 -17.5 76.5 -17.5c26.667 0 51.5 5.66699 74.5 17z" />
    <glyph glyph-name="ntilde" unicode="&#xf1;" horiz-adv-x="766" 
d="M677.5 484c45 -52.667 67.499 -139 67.499 -259v-225h-230v222c0 42 -2.33301 76.333 -7 103s-16 49 -34 67s-46 27 -84 27c-40 0 -69.667 -8.5 -89 -25.5s-31.666 -38.833 -36.999 -65.5s-8 -61.667 -8 -105v-223h-230v545h230v-68c50.667 57.333 127.667 86 231 86
c82 0 145.5 -26.333 190.5 -79zM619.999 741c0 -98 -39.999 -147.001 -119.999 -147.001c-22 0 -42.333 2.33301 -61 7s-41.334 11.334 -68.001 20.001c-33.333 8 -57.333 12 -72 12c-30.667 0 -46 -11 -46 -33h-131c0 98.667 40 148 120 148
c19.333 0 38.5 -2.33301 57.5 -7s34.833 -9 47.5 -13s20.667 -6.66699 24 -8c33.333 -8 57.333 -12 72 -12c31.333 0 47 11 47 33h130z" />
    <glyph glyph-name="ograve" unicode="&#xf2;" 
d="M601 530c58 -25.333 103.334 -60.5 136.001 -105.5s49 -95.5 49 -151.5c0 -55.333 -16.5 -105.5 -49.5 -150.5s-78.333 -80.167 -136 -105.5s-122.5 -38 -194.5 -38c-69.333 0 -134.333 12.833 -195 38.5s-109.167 61 -145.5 106s-54.5 94.833 -54.5 149.5
c0 55.333 18.167 105.5 54.5 150.5s84.666 80.333 144.999 106s125.5 38.5 195.5 38.5c72 0 137 -12.667 195 -38zM480.501 139c23 11.333 41.5 28.502 55.5 51.502s21 50.5 21 82.5s-7 59.5 -21 82.5s-32.5 40.167 -55.5 51.5s-47.833 17 -74.5 17
c-26 0 -51.5 -5.83301 -76.5 -17.5s-45.5 -28.834 -61.5 -51.501s-24 -50 -24 -82s8 -59.333 24 -82s36.5 -39.834 61.5 -51.501s50.5 -17.5 76.5 -17.5c26.667 0 51.5 5.66699 74.5 17zM202.001 730.002h224l70 -133h-174z" />
    <glyph glyph-name="oacute" unicode="&#xf3;" 
d="M601 530c58 -25.333 103.334 -60.5 136.001 -105.5s49 -95.5 49 -151.5c0 -55.333 -16.5 -105.5 -49.5 -150.5s-78.333 -80.167 -136 -105.5s-122.5 -38 -194.5 -38c-69.333 0 -134.333 12.833 -195 38.5s-109.167 61 -145.5 106s-54.5 94.833 -54.5 149.5
c0 55.333 18.167 105.5 54.5 150.5s84.666 80.333 144.999 106s125.5 38.5 195.5 38.5c72 0 137 -12.667 195 -38zM480.501 139c23 11.333 41.5 28.502 55.5 51.502s21 50.5 21 82.5s-7 59.5 -21 82.5s-32.5 40.167 -55.5 51.5s-47.833 17 -74.5 17
c-26 0 -51.5 -5.83301 -76.5 -17.5s-45.5 -28.834 -61.5 -51.501s-24 -50 -24 -82s8 -59.333 24 -82s36.5 -39.834 61.5 -51.501s50.5 -17.5 76.5 -17.5c26.667 0 51.5 5.66699 74.5 17zM299.001 597.002l70 133h224l-120 -133h-174z" />
    <glyph glyph-name="ocircumflex" unicode="&#xf4;" 
d="M601 530c58 -25.333 103.334 -60.5 136.001 -105.5s49 -95.5 49 -151.5c0 -55.333 -16.5 -105.5 -49.5 -150.5s-78.333 -80.167 -136 -105.5s-122.5 -38 -194.5 -38c-69.333 0 -134.333 12.833 -195 38.5s-109.167 61 -145.5 106s-54.5 94.833 -54.5 149.5
c0 55.333 18.167 105.5 54.5 150.5s84.666 80.333 144.999 106s125.5 38.5 195.5 38.5c72 0 137 -12.667 195 -38zM480.501 139c23 11.333 41.5 28.502 55.5 51.502s21 50.5 21 82.5s-7 59.5 -21 82.5s-32.5 40.167 -55.5 51.5s-47.833 17 -74.5 17
c-26 0 -51.5 -5.83301 -76.5 -17.5s-45.5 -28.834 -61.5 -51.501s-24 -50 -24 -82s8 -59.333 24 -82s36.5 -39.834 61.5 -51.501s50.5 -17.5 76.5 -17.5c26.667 0 51.5 5.66699 74.5 17zM507.001 730.002l180 -136h-209l-81 61l-77 -61h-209l170 136h226z" />
    <glyph glyph-name="otilde" unicode="&#xf5;" 
d="M601 530c58 -25.333 103.334 -60.5 136.001 -105.5s49 -95.5 49 -151.5c0 -55.333 -16.5 -105.5 -49.5 -150.5s-78.333 -80.167 -136 -105.5s-122.5 -38 -194.5 -38c-69.333 0 -134.333 12.833 -195 38.5s-109.167 61 -145.5 106s-54.5 94.833 -54.5 149.5
c0 55.333 18.167 105.5 54.5 150.5s84.666 80.333 144.999 106s125.5 38.5 195.5 38.5c72 0 137 -12.667 195 -38zM480.501 139c23 11.333 41.5 28.502 55.5 51.502s21 50.5 21 82.5s-7 59.5 -21 82.5s-32.5 40.167 -55.5 51.5s-47.833 17 -74.5 17
c-26 0 -51.5 -5.83301 -76.5 -17.5s-45.5 -28.834 -61.5 -51.501s-24 -50 -24 -82s8 -59.333 24 -82s36.5 -39.834 61.5 -51.501s50.5 -17.5 76.5 -17.5c26.667 0 51.5 5.66699 74.5 17zM644.001 737.002c0 -98 -39.999 -147.001 -119.999 -147.001
c-22 0 -42.333 2.33301 -61 7s-41.334 11.334 -68.001 20.001c-33.333 8 -57.333 12 -72 12c-30.667 0 -46 -11 -46 -33h-131c0 98.667 40 148 120 148c19.333 0 38.5 -2.33301 57.5 -7s34.833 -9 47.5 -13s20.667 -6.66699 24 -8c33.333 -8 57.333 -12 72 -12
c31.333 0 47 11 47 33h130z" />
    <glyph glyph-name="odieresis" unicode="&#xf6;" 
d="M601 530c58 -25.333 103.334 -60.5 136.001 -105.5s49 -95.5 49 -151.5c0 -55.333 -16.5 -105.5 -49.5 -150.5s-78.333 -80.167 -136 -105.5s-122.5 -38 -194.5 -38c-69.333 0 -134.333 12.833 -195 38.5s-109.167 61 -145.5 106s-54.5 94.833 -54.5 149.5
c0 55.333 18.167 105.5 54.5 150.5s84.666 80.333 144.999 106s125.5 38.5 195.5 38.5c72 0 137 -12.667 195 -38zM480.501 139c23 11.333 41.5 28.502 55.5 51.502s21 50.5 21 82.5s-7 59.5 -21 82.5s-32.5 40.167 -55.5 51.5s-47.833 17 -74.5 17
c-26 0 -51.5 -5.83301 -76.5 -17.5s-45.5 -28.834 -61.5 -51.501s-24 -50 -24 -82s8 -59.333 24 -82s36.5 -39.834 61.5 -51.501s50.5 -17.5 76.5 -17.5c26.667 0 51.5 5.66699 74.5 17zM196.001 630.502c-18 18.333 -27 40.833 -27 67.5c0 26 9 48 27 66s40.333 27 67 27
c26 0 48.167 -9 66.5 -27s27.5 -40 27.5 -66c0 -26.667 -9.16699 -49.167 -27.5 -67.5s-40.5 -27.5 -66.5 -27.5c-26.667 0 -49 9.16699 -67 27.5zM462.001 630.502c-18 18.333 -27 40.833 -27 67.5c0 26 9 48 27 66s40.333 27 67 27c26 0 48.167 -9 66.5 -27
s27.5 -40 27.5 -66c0 -26.667 -9.16699 -49.167 -27.5 -67.5s-40.5 -27.5 -66.5 -27.5c-26.667 0 -49 9.16699 -67 27.5z" />
    <glyph glyph-name="divide" unicode="&#xf7;" horiz-adv-x="477" 
d="M186 454c-14.667 14.667 -22 32.667 -22 54s7.33301 39.333 22 54s32.667 22 54 22s39.333 -7.33301 54 -22s22 -32.667 22 -54s-7.33301 -39.333 -22 -54s-32.667 -22 -54 -22s-39.333 7.33301 -54 22zM462 381v-115h-447v115h447zM186 84
c-14.667 14.667 -22 32.667 -22 54s7.33301 39.333 22 54s32.667 22 54 22s39.333 -7.33301 54 -22s22 -32.667 22 -54s-7.33301 -39.333 -22 -54s-32.667 -22 -54 -22s-39.333 7.33301 -54 22z" />
    <glyph glyph-name="oslash" unicode="&#xf8;" horiz-adv-x="792" 
d="M642 507c44 -26.667 78.3359 -60.335 103.003 -101.002s37 -85 37 -133c0 -55.333 -16.5 -105.5 -49.5 -150.5s-78.333 -80.167 -136 -105.5s-122.5 -38 -194.5 -38c-42.667 0 -85.334 5.33301 -128.001 16l-19 -26h-153l54 75c-46 26.667 -82.167 59.834 -108.5 99.501
s-39.5 82.834 -39.5 129.501c0 55.333 18.167 105.5 54.5 150.5s84.666 80.333 144.999 106s125.166 38.5 194.499 38.5c42 0 82.667 -4.66699 122 -14l20 28h152zM263.003 191.999l166 230.001c-12 1.33301 -21 2 -27 2c-26 0 -51.5 -5.83301 -76.5 -17.5
s-45.5 -28.834 -61.5 -51.501s-24 -50 -24 -82c0 -30 7.66699 -57 23 -81zM476.503 139c23 11.333 41.668 28.5 56.001 51.5s21.5 50.5 21.5 82.5c0 30.667 -7 58 -21 82l-165 -230c11.333 -2 22.666 -3 33.999 -3c26.667 0 51.5 5.66699 74.5 17z" />
    <glyph glyph-name="ugrave" unicode="&#xf9;" horiz-adv-x="771" 
d="M515 545h230v-545h-230v68c-50.667 -57.333 -127.667 -86 -231 -86c-82 0 -145.5 26.333 -190.5 79s-67.5 139 -67.5 259v225h230v-222c0 -42 2.33301 -76.333 7 -103s16 -49 34 -67s46 -27 84 -27c52.667 0 88.167 18.167 106.5 54.5s27.5 83.833 27.5 142.5v222z
M180 730h224l70 -133h-174z" />
    <glyph glyph-name="uacute" unicode="&#xfa;" horiz-adv-x="771" 
d="M515 545h230v-545h-230v68c-50.667 -57.333 -127.667 -86 -231 -86c-82 0 -145.5 26.333 -190.5 79s-67.5 139 -67.5 259v225h230v-222c0 -42 2.33301 -76.333 7 -103s16 -49 34 -67s46 -27 84 -27c52.667 0 88.167 18.167 106.5 54.5s27.5 83.833 27.5 142.5v222z
M272 597l70 133h224l-120 -133h-174z" />
    <glyph glyph-name="ucircumflex" unicode="&#xfb;" horiz-adv-x="771" 
d="M515 545h230v-545h-230v68c-50.667 -57.333 -127.667 -86 -231 -86c-82 0 -145.5 26.333 -190.5 79s-67.5 139 -67.5 259v225h230v-222c0 -42 2.33301 -76.333 7 -103s16 -49 34 -67s46 -27 84 -27c52.667 0 88.167 18.167 106.5 54.5s27.5 83.833 27.5 142.5v222z
M490 730l180 -136h-209l-81 61l-77 -61h-209l170 136h226z" />
    <glyph glyph-name="udieresis" unicode="&#xfc;" horiz-adv-x="771" 
d="M515 545h230v-545h-230v68c-50.667 -57.333 -127.667 -86 -231 -86c-82 0 -145.5 26.333 -190.5 79s-67.5 139 -67.5 259v225h230v-222c0 -42 2.33301 -76.333 7 -103s16 -49 34 -67s46 -27 84 -27c52.667 0 88.167 18.167 106.5 54.5s27.5 83.833 27.5 142.5v222z
M177 622.5c-18 18.333 -27 40.833 -27 67.5c0 26 9 48 27 66s40.333 27 67 27c26 0 48.167 -9 66.5 -27s27.5 -40 27.5 -66c0 -26.667 -9.16699 -49.167 -27.5 -67.5s-40.5 -27.5 -66.5 -27.5c-26.667 0 -49 9.16699 -67 27.5zM443 622.5c-18 18.333 -27 40.833 -27 67.5
c0 26 9 48 27 66s40.333 27 67 27c26 0 48.167 -9 66.5 -27s27.5 -40 27.5 -66c0 -26.667 -9.16699 -49.167 -27.5 -67.5s-40.5 -27.5 -66.5 -27.5c-26.667 0 -49 9.16699 -67 27.5z" />
    <glyph glyph-name="yacute" unicode="&#xfd;" horiz-adv-x="876" 
d="M868 545l-336 -668.002c-22 -44 -64.5 -72.333 -127.5 -85s-133.833 -19 -212.5 -19v183c38 0 64.333 2.33301 79 7s22 11.334 22 20.001c0 2.66699 -1.33301 7.33398 -4 14.001l-281 548h246l186 -403l182 403h246zM318 596.998l70 133h224l-120 -133h-174z" />
    <glyph glyph-name="thorn" unicode="&#xfe;" horiz-adv-x="800" 
d="M780 179c-1.33301 -47.333 -13.1699 -92.332 -35.5029 -134.999s-53.5 -77.167 -93.5 -103.5s-85.333 -39.5 -136 -39.5c-115.333 0 -201.666 26.333 -258.999 79v-170h-230v735h230v-145c58 53.333 144.333 78.666 259 75.999c51.333 0 96.833 -12.667 136.5 -38
s70.834 -60 93.501 -104s34.334 -93.333 35.001 -148v-3v-4zM479.496 58.001c22.333 14 39.168 32.1689 50.501 54.502s17.333 46.166 18 71.499c-1.33301 46 -14.5 83.833 -39.5 113.5s-61.5 44.5 -109.5 44.5c-27.333 0 -51.833 -6.83301 -73.5 -20.5
s-38.5 -31.834 -50.5 -54.501s-18 -47 -18 -73h-1v-3h1c0 -46.667 13.167 -84 39.5 -112s60.5 -42 102.5 -42c31.333 0 58.166 7 80.499 21z" />
    <glyph glyph-name="ydieresis" unicode="&#xff;" horiz-adv-x="876" 
d="M868 545l-336 -668.002c-22 -44 -64.5 -72.333 -127.5 -85s-133.833 -19 -212.5 -19v183c38 0 64.333 2.33301 79 7s22 11.334 22 20.001c0 2.66699 -1.33301 7.33398 -4 14.001l-281 548h246l186 -403l182 403h246zM218 630.498c-18 18.333 -27 40.833 -27 67.5
c0 26 9 48 27 66s40.333 27 67 27c26 0 48.167 -9 66.5 -27s27.5 -40 27.5 -66c0 -26.667 -9.16699 -49.167 -27.5 -67.5s-40.5 -27.5 -66.5 -27.5c-26.667 0 -49 9.16699 -67 27.5zM484 630.498c-18 18.333 -27 40.833 -27 67.5c0 26 9 48 27 66s40.333 27 67 27
c26 0 48.167 -9 66.5 -27s27.5 -40 27.5 -66c0 -26.667 -9.16699 -49.167 -27.5 -67.5s-40.5 -27.5 -66.5 -27.5c-26.667 0 -49 9.16699 -67 27.5z" />
    <glyph glyph-name="Amacron" unicode="&#x100;" horiz-adv-x="1017" 
d="M1036 0h-249l-69 127h-419l-69 -127h-249l401 740h253zM509 514l-120 -220h239zM286 773v132h437v-132h-437z" />
    <glyph glyph-name="amacron" unicode="&#x101;" horiz-adv-x="786" 
d="M646 521c76 -32 114.001 -88.333 114.001 -169v-352h-218l-17 71v5c-16.667 -30 -51.834 -52 -105.501 -66s-112.167 -21 -175.5 -21c-50.667 0 -101.334 11.167 -152.001 33.5s-76 69.166 -76 140.499c0 112.667 73.667 169 221 169c94.667 0 160.667 0.833008 198 2.5
s62 5 74 10s18.333 14.167 19 27.5v13c-0.666992 22 -15.167 38.167 -43.5 48.5s-60.5 15.5 -96.5 15.5c-37.333 -0.666992 -69.166 -7.66699 -95.499 -21s-39.5 -33.666 -39.5 -60.999h-231c0 50.667 20 91.167 60 121.5s87.833 51.333 143.5 63s110.167 17.5 163.5 17.5
c95.333 0 181 -16 257 -48zM486.001 168c25.333 22 39 50 41 84v14c-25.333 -10.667 -65.666 -16 -120.999 -16c-57.333 0 -97.5 -4 -120.5 -12s-34.833 -22.667 -35.5 -44c2 -20 12.5 -34.833 31.5 -44.5s49.833 -14.5 92.5 -14.5c49.333 0 86.666 11 111.999 33z
M172.001 602v132h437v-132h-437z" />
    <glyph glyph-name="Abreve" unicode="&#x102;" horiz-adv-x="1017" 
d="M1036 0h-249l-69 127h-419l-69 -127h-249l401 740h253zM509 514l-120 -220h239zM749 975c0 -66 -22.832 -115.667 -68.499 -149s-104.834 -50 -177.501 -50c-74 0 -134 16.667 -180 50s-69 83 -69 149h137c0 -30.667 10.667 -56.5 32 -77.5s47.666 -31.5 78.999 -31.5
c30.667 0 56.834 10.5 78.501 31.5s32.5 46.833 32.5 77.5h136z" />
    <glyph glyph-name="abreve" unicode="&#x103;" horiz-adv-x="786" 
d="M646 521c76 -32 114.001 -88.333 114.001 -169v-352h-218l-17 71v5c-16.667 -30 -51.834 -52 -105.501 -66s-112.167 -21 -175.5 -21c-50.667 0 -101.334 11.167 -152.001 33.5s-76 69.166 -76 140.499c0 112.667 73.667 169 221 169c94.667 0 160.667 0.833008 198 2.5
s62 5 74 10s18.333 14.167 19 27.5v13c-0.666992 22 -15.167 38.167 -43.5 48.5s-60.5 15.5 -96.5 15.5c-37.333 -0.666992 -69.166 -7.66699 -95.499 -21s-39.5 -33.666 -39.5 -60.999h-231c0 50.667 20 91.167 60 121.5s87.833 51.333 143.5 63s110.167 17.5 163.5 17.5
c95.333 0 181 -16 257 -48zM486.001 168c25.333 22 39 50 41 84v14c-25.333 -10.667 -65.666 -16 -120.999 -16c-57.333 0 -97.5 -4 -120.5 -12s-34.833 -22.667 -35.5 -44c2 -20 12.5 -34.833 31.5 -44.5s49.833 -14.5 92.5 -14.5c49.333 0 86.666 11 111.999 33z
M636.001 801c0 -66 -22.832 -115.667 -68.499 -149s-104.834 -50 -177.501 -50c-74 0 -134 16.667 -180 50s-69 83 -69 149h137c0 -30.667 10.667 -56.5 32 -77.5s47.666 -31.5 78.999 -31.5c30.667 0 56.834 10.5 78.501 31.5s32.5 46.833 32.5 77.5h136z" />
    <glyph glyph-name="Aogonek" unicode="&#x104;" horiz-adv-x="1017" 
d="M782.5 -119c11 -12 34.166 -17.998 69.499 -17.998v-43c-45.333 -1.33301 -81.166 1.5 -107.499 8.5s-45.333 18.667 -57 35s-17.5 39.166 -17.5 68.499c0 32.667 7.33301 57.5 22 74.5s39 28.167 73 33.5l-47 87h-419l-69 -127h-249l401 740h253l401 -740h-206
c-26 -2.66699 -43.167 -9.83398 -51.5 -21.501s-12.5 -27.167 -12.5 -46.5c0 -22 5.5 -39 16.5 -51zM508.999 514.002l-120 -220h239z" />
    <glyph glyph-name="aogonek" unicode="&#x105;" horiz-adv-x="786" 
d="M760 0l-1 0.000976562v-1c-35.333 0 -58.5 -6 -69.5 -18s-16.5 -29 -16.5 -51s5.5 -39 16.5 -51s34.167 -18 69.5 -18v-43c-45.333 -1.33301 -81.166 1.5 -107.499 8.5s-45.333 18.667 -57 35s-17.5 39.166 -17.5 68.499c0 30 6.33301 53.333 19 70h-54l-17 71v5
c-16.667 -30 -51.834 -52 -105.501 -66s-112.167 -21 -175.5 -21c-50.667 0 -101.334 11.167 -152.001 33.5s-76 69.166 -76 140.499c0 112.667 73.667 169 221 169c94.667 0 160.667 0.833008 198 2.5s62 5 74 10s18.333 14.167 19 27.5v13
c-0.666992 22 -15.167 38.167 -43.5 48.5s-60.5 15.5 -96.5 15.5c-37.333 -0.666992 -69.166 -7.66699 -95.499 -21s-39.5 -33.666 -39.5 -60.999h-231c0 50.667 20 91.167 60 121.5s87.833 51.333 143.5 63s110.167 17.5 163.5 17.5c95.333 0 181 -16 257 -48
s114 -88.333 114 -169v-352zM486 168.001c25.333 22 39 50 41 84v14c-25.333 -10.667 -65.666 -16 -120.999 -16c-57.333 0 -97.5 -4 -120.5 -12s-34.833 -22.667 -35.5 -44c2 -20 12.5 -34.833 31.5 -44.5s49.833 -14.5 92.5 -14.5c49.333 0 86.666 11 111.999 33z" />
    <glyph glyph-name="Cacute" unicode="&#x106;" horiz-adv-x="1011" 
d="M86.5 569c43.667 59.333 103.333 105.83 179 139.497s159.5 50.5 251.5 50.5c82.667 0 157.334 -13.167 224.001 -39.5s121.334 -63.333 164.001 -111s71 -103.5 85 -167.5h-256c-10 26.667 -26.833 49.834 -50.5 69.501s-50.167 34.5 -79.5 44.5s-58 15 -86 15
c-39.333 0 -77.5 -8 -114.5 -24s-67 -39.167 -90 -69.5s-34.5 -66.166 -34.5 -107.499s11.333 -77.166 34 -107.499s52.167 -53.333 88.5 -69s75.166 -23.5 116.499 -23.5c46 0 88.5 11 127.5 33s67.833 53.333 86.5 94h257
c-14.667 -63.333 -43.334 -118.833 -86.001 -166.5s-97 -84.5 -163 -110.5s-140.333 -39 -223 -39c-91.333 0 -174.833 17 -250.5 51s-135.5 80.667 -179.5 140s-66 125.333 -66 198c0 74 21.833 140.667 65.5 200zM402.999 791.997l70 133h224l-120 -133h-174z" />
    <glyph glyph-name="cacute" unicode="&#x107;" horiz-adv-x="764" 
d="M61 420.5c33.333 45 78.9971 80.167 136.997 105.5s122 38 192 38c66.667 0 125.5 -10.167 176.5 -30.5s92.167 -48.833 123.5 -85.5s52 -79 62 -127h-230c-7.33301 30 -22.666 54 -45.999 72s-51.666 27 -84.999 27c-43.333 0 -78.666 -13.833 -105.999 -41.5
s-41 -64.167 -41 -109.5c0 -44 13.333 -80.167 40 -108.5s61.667 -42.5 105 -42.5c34 0 62.667 9 86 27s38.666 41.667 45.999 71h230c-7.33301 -45.333 -27.333 -86.333 -60 -123s-75.167 -65.667 -127.5 -87s-110.166 -32 -173.499 -32c-69.333 0 -133 12.833 -191 38.5
s-103.833 61 -137.5 106s-50.5 95.167 -50.5 150.5c0 56 16.667 106.5 50 151.5zM280.997 597l70 133h224l-120 -133h-174z" />
    <glyph glyph-name="Cdotaccent" unicode="&#x10a;" horiz-adv-x="1011" 
d="M86.5 569c43.667 59.333 103.333 105.83 179 139.497s159.5 50.5 251.5 50.5c82.667 0 157.334 -13.167 224.001 -39.5s121.334 -63.333 164.001 -111s71 -103.5 85 -167.5h-256c-10 26.667 -26.833 49.834 -50.5 69.501s-50.167 34.5 -79.5 44.5s-58 15 -86 15
c-39.333 0 -77.5 -8 -114.5 -24s-67 -39.167 -90 -69.5s-34.5 -66.166 -34.5 -107.499s11.333 -77.166 34 -107.499s52.167 -53.333 88.5 -69s75.166 -23.5 116.499 -23.5c46 0 88.5 11 127.5 33s67.833 53.333 86.5 94h257
c-14.667 -63.333 -43.334 -118.833 -86.001 -166.5s-97 -84.5 -163 -110.5s-140.333 -39 -223 -39c-91.333 0 -174.833 17 -250.5 51s-135.5 80.667 -179.5 140s-66 125.333 -66 198c0 74 21.833 140.667 65.5 200zM430.499 820.497c-18.333 18.333 -27.5 40.833 -27.5 67.5
c0 26 9.16699 48 27.5 66s40.833 27 67.5 27c26 0 48.167 -9 66.5 -27s27.5 -40 27.5 -66c0 -26.667 -9.16699 -49.167 -27.5 -67.5s-40.5 -27.5 -66.5 -27.5c-26.667 0 -49.167 9.16699 -67.5 27.5z" />
    <glyph glyph-name="cdotaccent" unicode="&#x10b;" horiz-adv-x="764" 
d="M61 420.5c33.333 45 78.9971 80.167 136.997 105.5s122 38 192 38c66.667 0 125.5 -10.167 176.5 -30.5s92.167 -48.833 123.5 -85.5s52 -79 62 -127h-230c-7.33301 30 -22.666 54 -45.999 72s-51.666 27 -84.999 27c-43.333 0 -78.666 -13.833 -105.999 -41.5
s-41 -64.167 -41 -109.5c0 -44 13.333 -80.167 40 -108.5s61.667 -42.5 105 -42.5c34 0 62.667 9 86 27s38.666 41.667 45.999 71h230c-7.33301 -45.333 -27.333 -86.333 -60 -123s-75.167 -65.667 -127.5 -87s-110.166 -32 -173.499 -32c-69.333 0 -133 12.833 -191 38.5
s-103.833 61 -137.5 106s-50.5 95.167 -50.5 150.5c0 56 16.667 106.5 50 151.5zM312.497 623.5c-18.333 18.333 -27.5 40.833 -27.5 67.5c0 26 9.16699 48 27.5 66s40.833 27 67.5 27c26 0 48.167 -9 66.5 -27s27.5 -40 27.5 -66c0 -26.667 -9.16699 -49.167 -27.5 -67.5
s-40.5 -27.5 -66.5 -27.5c-26.667 0 -49.167 9.16699 -67.5 27.5z" />
    <glyph glyph-name="Ccaron" unicode="&#x10c;" horiz-adv-x="1011" 
d="M86.5 569c43.667 59.333 103.333 105.83 179 139.497s159.5 50.5 251.5 50.5c82.667 0 157.334 -13.167 224.001 -39.5s121.334 -63.333 164.001 -111s71 -103.5 85 -167.5h-256c-10 26.667 -26.833 49.834 -50.5 69.501s-50.167 34.5 -79.5 44.5s-58 15 -86 15
c-39.333 0 -77.5 -8 -114.5 -24s-67 -39.167 -90 -69.5s-34.5 -66.166 -34.5 -107.499s11.333 -77.166 34 -107.499s52.167 -53.333 88.5 -69s75.166 -23.5 116.499 -23.5c46 0 88.5 11 127.5 33s67.833 53.333 86.5 94h257
c-14.667 -63.333 -43.334 -118.833 -86.001 -166.5s-97 -84.5 -163 -110.5s-140.333 -39 -223 -39c-91.333 0 -174.833 17 -250.5 51s-135.5 80.667 -179.5 140s-66 125.333 -66 198c0 74 21.833 140.667 65.5 200zM505.999 866.997l81 61h209l-180 -136h-226l-170 136h209z
" />
    <glyph glyph-name="ccaron" unicode="&#x10d;" horiz-adv-x="764" 
d="M61 420.5c33.333 45 78.9971 80.167 136.997 105.5s122 38 192 38c66.667 0 125.5 -10.167 176.5 -30.5s92.167 -48.833 123.5 -85.5s52 -79 62 -127h-230c-7.33301 30 -22.666 54 -45.999 72s-51.666 27 -84.999 27c-43.333 0 -78.666 -13.833 -105.999 -41.5
s-41 -64.167 -41 -109.5c0 -44 13.333 -80.167 40 -108.5s61.667 -42.5 105 -42.5c34 0 62.667 9 86 27s38.666 41.667 45.999 71h230c-7.33301 -45.333 -27.333 -86.333 -60 -123s-75.167 -65.667 -127.5 -87s-110.166 -32 -173.499 -32c-69.333 0 -133 12.833 -191 38.5
s-103.833 61 -137.5 106s-50.5 95.167 -50.5 150.5c0 56 16.667 106.5 50 151.5zM377.997 672l81 61h209l-180 -136h-226l-170 136h209z" />
    <glyph glyph-name="Dcaron" unicode="&#x10e;" horiz-adv-x="908" 
d="M831.5 180c-37 -56 -89.5 -100 -157.5 -132s-147 -48 -237 -48v-1h-199v1h-197v740h395c90 0 169.167 -16 237.5 -48s121 -76 158 -132s55.5 -119.667 55.5 -191c0 -70 -18.5 -133 -55.5 -189zM442 198c58 0 106.167 14.168 144.5 42.501s57.5 71.166 57.5 128.499
c0 32 -9.33301 61.167 -28 87.5s-43.5 47 -74.5 62s-64.167 22.5 -99.5 22.5h-154v-343h154zM380 849.001l81 61h209l-180 -136h-226l-170 136h209z" />
    <glyph glyph-name="dcaron" unicode="&#x10f;" horiz-adv-x="975" 
d="M811 739h162v-124c-1.33301 -26.667 -9.83301 -48.667 -25.5 -66s-39.167 -26 -70.5 -26h-67v48h19c11.333 0 18.333 2.66699 21 8s4 14 4 26v10h-43v124zM538 740h230.003v-738h-210l-12 65c-56.667 -54.667 -145.334 -80.667 -266.001 -78
c-51.333 0 -96.833 12.833 -136.5 38.5s-70.834 60.667 -93.501 105s-34.334 93.833 -35.001 148.5v3v3c1.33301 47.333 13 92.333 35 135s53 77.167 93 103.5s85.667 39.5 137 39.5c115.333 0 201.333 -26 258 -78v253zM468.503 144.5c21.667 13.667 38.667 31.833 51 54.5
s18.5 47 18.5 73v3c0 46.667 -13.167 84 -39.5 112s-60.5 42 -102.5 42c-47.333 0 -83.833 -14.5 -109.5 -43.5s-38.834 -63.5 -39.501 -103.5c0.666992 -46 13.667 -83.833 39 -113.5s62 -44.5 110 -44.5c26.667 0 50.834 6.83301 72.501 20.5z" />
    <glyph glyph-name="Dcroat" unicode="&#x110;" horiz-adv-x="930" 
d="M853 180c-36.667 -56 -89 -100.001 -157 -132.001s-147 -48 -237 -48v-1h-199v1h-197v284h-60v176h60v280h395c90 0 169.167 -15.833 237.5 -47.5s120.833 -75.667 157.5 -132s55 -120.166 55 -191.499c0 -70 -18.333 -133 -55 -189zM463 197.999
c58 0 106.167 14.168 144.5 42.501s57.5 71.166 57.5 128.499c0 32 -9.16699 61.167 -27.5 87.5s-43 47 -74 62s-64.5 22.5 -100.5 22.5h-154v-81h167v-176h-167v-86h154z" />
    <glyph glyph-name="dcroat" unicode="&#x111;" horiz-adv-x="857" 
d="M842 695l0.00292969 -118h-74v-575h-210l-12 65c-56.667 -54.667 -145.334 -80.667 -266.001 -78c-51.333 0 -96.833 12.833 -136.5 38.5s-70.834 60.667 -93.501 105s-34.334 93.833 -35.001 148.5v3v3c1.33301 47.333 13 92.333 35 135s53 77.167 93 103.5
s85.667 39.5 137 39.5c115.333 0 201.333 -26 258 -78v90h-140v118h140v45h230v-45h74zM468.503 144.5c21.667 13.667 38.667 31.833 51 54.5s18.5 47 18.5 73v3c0 46.667 -13.167 84 -39.5 112s-60.5 42 -102.5 42c-47.333 0 -83.833 -14.5 -109.5 -43.5
s-38.834 -63.5 -39.501 -103.5c0.666992 -46 13.667 -83.833 39 -113.5s62 -44.5 110 -44.5c26.667 0 50.834 6.83301 72.501 20.5z" />
    <glyph glyph-name="Emacron" unicode="&#x112;" horiz-adv-x="861" 
d="M750 288h-462v-113l546 4v-179h-793v740h793l1 -179h-547v-98h462v-175zM206 774v132h437v-132h-437z" />
    <glyph glyph-name="emacron" unicode="&#x113;" horiz-adv-x="791" 
d="M778 250l-533 0.000976562c4.66699 -42 20.5 -76.5 47.5 -103.5s63.833 -40.5 110.5 -40.5c38 0 71.833 9.16699 101.5 27.5s44.5 46.5 44.5 84.5h229c0 -77.333 -33.167 -136.333 -99.5 -177s-158.5 -61 -276.5 -61c-72.667 0 -138.667 12.333 -198 37
s-106.333 59.5 -141 104.5s-52 96.5 -52 154.5c0 58.667 17.167 110.5 51.5 155.5s81.333 79.667 141 104s125.834 36.5 198.501 36.5c74.667 0 140.167 -12 196.5 -36s100.166 -57.833 131.499 -101.5s47.333 -94.834 48 -153.501v-5h2h-2v-26zM301 422.001
c-23.333 -18.667 -39.333 -44.667 -48 -78h290c-7.33301 33.333 -22 59.333 -44 78s-54.333 28 -97 28c-44 0 -77.667 -9.33301 -101 -28zM186 604.001v132h437v-132h-437z" />
    <glyph glyph-name="Edotaccent" unicode="&#x116;" horiz-adv-x="861" 
d="M750 288h-462v-113l546 4v-179h-793v740h793l1 -179h-547v-98h462v-175zM363.5 810.5c-18.333 18.333 -27.5 40.833 -27.5 67.5c0 26 9.16699 48 27.5 66s40.833 27 67.5 27c26 0 48.167 -9 66.5 -27s27.5 -40 27.5 -66c0 -26.667 -9.16699 -49.167 -27.5 -67.5
s-40.5 -27.5 -66.5 -27.5c-26.667 0 -49.167 9.16699 -67.5 27.5z" />
    <glyph glyph-name="edotaccent" unicode="&#x117;" horiz-adv-x="791" 
d="M778 250l-533 0.000976562c4.66699 -42 20.5 -76.5 47.5 -103.5s63.833 -40.5 110.5 -40.5c38 0 71.833 9.16699 101.5 27.5s44.5 46.5 44.5 84.5h229c0 -77.333 -33.167 -136.333 -99.5 -177s-158.5 -61 -276.5 -61c-72.667 0 -138.667 12.333 -198 37
s-106.333 59.5 -141 104.5s-52 96.5 -52 154.5c0 58.667 17.167 110.5 51.5 155.5s81.333 79.667 141 104s125.834 36.5 198.501 36.5c74.667 0 140.167 -12 196.5 -36s100.166 -57.833 131.499 -101.5s47.333 -94.834 48 -153.501v-5h2h-2v-26zM301 422.001
c-23.333 -18.667 -39.333 -44.667 -48 -78h290c-7.33301 33.333 -22 59.333 -44 78s-54.333 28 -97 28c-44 0 -77.667 -9.33301 -101 -28zM329.5 631.501c-18.333 18.333 -27.5 40.833 -27.5 67.5c0 26 9.16699 48 27.5 66s40.833 27 67.5 27c26 0 48.167 -9 66.5 -27
s27.5 -40 27.5 -66c0 -26.667 -9.16699 -49.167 -27.5 -67.5s-40.5 -27.5 -66.5 -27.5c-26.667 0 -49.167 9.16699 -67.5 27.5z" />
    <glyph glyph-name="Eogonek" unicode="&#x118;" horiz-adv-x="861" 
d="M288 288l-0.000976562 -112.999l546 4v-179h-1c-35.333 0 -58.5 -6 -69.5 -18s-16.5 -29 -16.5 -51s5.5 -39 16.5 -51s34.167 -18 69.5 -18v-43c-45.333 -1.33301 -81.166 1.5 -107.499 8.5s-45.333 18.667 -57 35s-17.5 39.166 -17.5 68.499c0 30 6 53 18 69h-628v740
h793l1 -179h-547v-98h462v-175h-462z" />
    <glyph glyph-name="eogonek" unicode="&#x119;" horiz-adv-x="791" 
d="M778 250l-533.001 0.000976562c4.66699 -42 20.5 -76.5 47.5 -103.5s63.833 -40.5 110.5 -40.5c38 0 71.833 9.16699 101.5 27.5s44.5 46.5 44.5 84.5h229c0 -77.333 -32.833 -136.166 -98.5 -176.499s-157.167 -60.833 -274.5 -61.5c-7.33301 -10 -11 -25 -11 -45
c0 -22 5.5 -39 16.5 -51s34.167 -18 69.5 -18v-43c-45.333 -1.33301 -81.166 1.5 -107.499 8.5s-45.333 18.667 -57 35s-17.5 39.166 -17.5 68.499c0 20 3 37.667 9 53c-57.333 10 -108.333 28.167 -153 54.5s-79.667 59.5 -105 99.5s-38 84.667 -38 134
c0 58.667 17.167 110.5 51.5 155.5s81.333 79.667 141 104s125.834 36.5 198.501 36.5c74.667 0 140.167 -12 196.5 -36s100.166 -57.833 131.499 -101.5s47.333 -94.834 48 -153.501v-5h2h-2v-26zM300.999 422.001c-23.333 -18.667 -39.333 -44.667 -48 -78h290
c-7.33301 33.333 -22 59.333 -44 78s-54.333 28 -97 28c-44 0 -77.667 -9.33301 -101 -28z" />
    <glyph glyph-name="Ecaron" unicode="&#x11a;" horiz-adv-x="861" 
d="M750 288h-462v-113l546 4v-179h-793v740h793l1 -179h-547v-98h462v-175zM426 849l81 61h209l-180 -136h-226l-170 136h209z" />
    <glyph glyph-name="ecaron" unicode="&#x11b;" horiz-adv-x="791" 
d="M778 250l-533 0.000976562c4.66699 -42 20.5 -76.5 47.5 -103.5s63.833 -40.5 110.5 -40.5c38 0 71.833 9.16699 101.5 27.5s44.5 46.5 44.5 84.5h229c0 -77.333 -33.167 -136.333 -99.5 -177s-158.5 -61 -276.5 -61c-72.667 0 -138.667 12.333 -198 37
s-106.333 59.5 -141 104.5s-52 96.5 -52 154.5c0 58.667 17.167 110.5 51.5 155.5s81.333 79.667 141 104s125.834 36.5 198.501 36.5c74.667 0 140.167 -12 196.5 -36s100.166 -57.833 131.499 -101.5s47.333 -94.834 48 -153.501v-5h2h-2v-26zM301 422.001
c-23.333 -18.667 -39.333 -44.667 -48 -78h290c-7.33301 33.333 -22 59.333 -44 78s-54.333 28 -97 28c-44 0 -77.667 -9.33301 -101 -28zM400 680.001l81 61h209l-180 -136h-226l-170 136h209z" />
    <glyph glyph-name="Gbreve" unicode="&#x11e;" horiz-adv-x="1012" 
d="M990 0l-154.999 -0.000976562l-19 57c-84 -51.333 -184 -77 -300 -77c-92 0 -175.667 17 -251 51s-134.833 80.667 -178.5 140s-65.5 125.333 -65.5 198c0 74 22 140.667 66 200s103.667 105.833 179 139.5s158.666 50.5 249.999 50.5c82 0 156.333 -11.667 223 -35
s121.667 -57.5 165 -102.5s71.333 -99.167 84 -162.5l-257 -1c-13.333 38.667 -39.833 67 -79.5 85s-84.5 27 -134.5 27c-41.333 0 -79 -8.16699 -113 -24.5s-60.833 -39.666 -80.5 -69.999s-29.5 -65.833 -29.5 -106.5c0 -41.333 10 -77.166 30 -107.499s47 -53.333 81 -69
s71.333 -23.5 112 -23.5s78.667 7.66699 114 23s63 37.666 83 66.999h-194v132h469v-87zM756.001 990.999c0 -66 -22.832 -115.667 -68.499 -149s-104.834 -50 -177.501 -50c-74 0 -134 16.667 -180 50s-69 83 -69 149h137c0 -30.667 10.667 -56.5 32 -77.5
s47.666 -31.5 78.999 -31.5c30.667 0 56.834 10.5 78.501 31.5s32.5 46.833 32.5 77.5h136z" />
    <glyph glyph-name="gbreve" unicode="&#x11f;" horiz-adv-x="794" 
d="M765 545v-544.998c-2.66699 -52.667 -23.5 -94.834 -62.5 -126.501s-85 -54 -138 -67s-104.167 -19.5 -153.5 -19.5c-73.333 0 -134 2.5 -182 7.5s-91.5 20.167 -130.5 45.5s-58.5 65.666 -58.5 120.999h234c0 -19.333 8.5 -33.166 25.5 -41.499s32 -12.833 45 -13.5
s35.167 -1 66.5 -1c30 0 58.167 7.5 84.5 22.5s39.5 42.5 39.5 82.5v48c-55.333 -50.667 -141 -76 -257 -76c-50.667 0 -96 13.167 -136 39.5s-71.5 60.833 -94.5 103.5s-35.167 87.667 -36.5 135v4v3c0.666992 54.667 12.334 104 35.001 148s54.167 78.667 94.5 104
s86.166 38 137.499 38c119.333 3.33301 207 -22.334 263 -77.001l13 65h211zM496 158.502c26 27 38.999 65.5 38.999 115.5v3c0 25.333 -6 49.333 -18 72s-28.667 40.667 -50 54s-45 20 -71 20c-48 0 -85 -14.5 -111 -43.5s-39.667 -66.833 -41 -113.5
c1.33301 -42.667 14.833 -78 40.5 -106s61.834 -42 108.501 -42c42.667 0 77 13.5 103 40.5zM637.999 783.002c0 -66 -22.832 -115.667 -68.499 -149s-104.834 -50 -177.501 -50c-74 0 -134 16.667 -180 50s-69 83 -69 149h137c0 -30.667 10.667 -56.5 32 -77.5
s47.666 -31.5 78.999 -31.5c30.667 0 56.834 10.5 78.501 31.5s32.5 46.833 32.5 77.5h136z" />
    <glyph glyph-name="Gdotaccent" unicode="&#x120;" horiz-adv-x="1012" 
d="M990 0l-154.999 -0.000976562l-19 57c-84 -51.333 -184 -77 -300 -77c-92 0 -175.667 17 -251 51s-134.833 80.667 -178.5 140s-65.5 125.333 -65.5 198c0 74 22 140.667 66 200s103.667 105.833 179 139.5s158.666 50.5 249.999 50.5c82 0 156.333 -11.667 223 -35
s121.667 -57.5 165 -102.5s71.333 -99.167 84 -162.5l-257 -1c-13.333 38.667 -39.833 67 -79.5 85s-84.5 27 -134.5 27c-41.333 0 -79 -8.16699 -113 -24.5s-60.833 -39.666 -80.5 -69.999s-29.5 -65.833 -29.5 -106.5c0 -41.333 10 -77.166 30 -107.499s47 -53.333 81 -69
s71.333 -23.5 112 -23.5s78.667 7.66699 114 23s63 37.666 83 66.999h-194v132h469v-87zM440.501 810.499c-18.333 18.333 -27.5 40.833 -27.5 67.5c0 26 9.16699 48 27.5 66s40.833 27 67.5 27c26 0 48.167 -9 66.5 -27s27.5 -40 27.5 -66
c0 -26.667 -9.16699 -49.167 -27.5 -67.5s-40.5 -27.5 -66.5 -27.5c-26.667 0 -49.167 9.16699 -67.5 27.5z" />
    <glyph glyph-name="gdotaccent" unicode="&#x121;" horiz-adv-x="794" 
d="M765 545v-544.998c-2.66699 -52.667 -23.5 -94.834 -62.5 -126.501s-85 -54 -138 -67s-104.167 -19.5 -153.5 -19.5c-73.333 0 -134 2.5 -182 7.5s-91.5 20.167 -130.5 45.5s-58.5 65.666 -58.5 120.999h234c0 -19.333 8.5 -33.166 25.5 -41.499s32 -12.833 45 -13.5
s35.167 -1 66.5 -1c30 0 58.167 7.5 84.5 22.5s39.5 42.5 39.5 82.5v48c-55.333 -50.667 -141 -76 -257 -76c-50.667 0 -96 13.167 -136 39.5s-71.5 60.833 -94.5 103.5s-35.167 87.667 -36.5 135v4v3c0.666992 54.667 12.334 104 35.001 148s54.167 78.667 94.5 104
s86.166 38 137.499 38c119.333 3.33301 207 -22.334 263 -77.001l13 65h211zM496 158.502c26 27 38.999 65.5 38.999 115.5v3c0 25.333 -6 49.333 -18 72s-28.667 40.667 -50 54s-45 20 -71 20c-48 0 -85 -14.5 -111 -43.5s-39.667 -66.833 -41 -113.5
c1.33301 -42.667 14.833 -78 40.5 -106s61.834 -42 108.501 -42c42.667 0 77 13.5 103 40.5zM316.499 612.502c-18.333 18.333 -27.5 40.833 -27.5 67.5c0 26 9.16699 48 27.5 66s40.833 27 67.5 27c26 0 48.167 -9 66.5 -27s27.5 -40 27.5 -66
c0 -26.667 -9.16699 -49.167 -27.5 -67.5s-40.5 -27.5 -66.5 -27.5c-26.667 0 -49.167 9.16699 -67.5 27.5z" />
    <glyph glyph-name="uni0122" unicode="&#x122;" horiz-adv-x="1012" 
d="M990 0l-154.999 -0.000976562l-19 57c-84 -51.333 -184 -77 -300 -77c-92 0 -175.667 17 -251 51s-134.833 80.667 -178.5 140s-65.5 125.333 -65.5 198c0 74 22 140.667 66 200s103.667 105.833 179 139.5s158.666 50.5 249.999 50.5c82 0 156.333 -11.667 223 -35
s121.667 -57.5 165 -102.5s71.333 -99.167 84 -162.5l-257 -1c-13.333 38.667 -39.833 67 -79.5 85s-84.5 27 -134.5 27c-41.333 0 -79 -8.16699 -113 -24.5s-60.833 -39.666 -80.5 -69.999s-29.5 -65.833 -29.5 -106.5c0 -41.333 10 -77.166 30 -107.499s47 -53.333 81 -69
s71.333 -23.5 112 -23.5s78.667 7.66699 114 23s63 37.666 83 66.999h-194v132h469v-87zM443.001 -50.001h162v-124c-1.33301 -26.667 -9.83301 -48.667 -25.5 -66s-39.167 -26 -70.5 -26h-67v48h19c11.333 0 18.333 2.66699 21 8s4 14 4 26v10h-43v124z" />
    <glyph glyph-name="uni0123" unicode="&#x123;" horiz-adv-x="794" 
d="M765 545v-544.998c-2.66699 -52.667 -23.5 -94.834 -62.5 -126.501s-85 -54 -138 -67s-104.167 -19.5 -153.5 -19.5c-73.333 0 -134 2.5 -182 7.5s-91.5 20.167 -130.5 45.5s-58.5 65.666 -58.5 120.999h234c0 -19.333 8.5 -33.166 25.5 -41.499s32 -12.833 45 -13.5
s35.167 -1 66.5 -1c30 0 58.167 7.5 84.5 22.5s39.5 42.5 39.5 82.5v48c-55.333 -50.667 -141 -76 -257 -76c-50.667 0 -96 13.167 -136 39.5s-71.5 60.833 -94.5 103.5s-35.167 87.667 -36.5 135v4v3c0.666992 54.667 12.334 104 35.001 148s54.167 78.667 94.5 104
s86.166 38 137.499 38c119.333 3.33301 207 -22.334 263 -77.001l13 65h211zM496 158.502c26 27 38.999 65.5 38.999 115.5v3c0 25.333 -6 49.333 -18 72s-28.667 40.667 -50 54s-45 20 -71 20c-48 0 -85 -14.5 -111 -43.5s-39.667 -66.833 -41 -113.5
c1.33301 -42.667 14.833 -78 40.5 -106s61.834 -42 108.501 -42c42.667 0 77 13.5 103 40.5zM417.999 715.002h43v-124h-162v124c1.33301 26.667 9.83301 48.667 25.5 66s39.167 26 70.5 26h67v-48h-19c-11.333 0 -18.333 -2.66699 -21 -8s-4 -14 -4 -26v-10z" />
    <glyph glyph-name="Hbar" unicode="&#x126;" horiz-adv-x="1104" 
d="M1003 660h81v-121h-81v-539h-246v283h-395v-283h-247v539h-82v121h82v80h247v-80h395v80h246v-80zM362 477h395v62h-395v-62z" />
    <glyph glyph-name="hbar" unicode="&#x127;" horiz-adv-x="825" 
d="M732.5 483c47 -53.333 70.5 -139.334 70.5 -258.001v-225h-230v222c0 42.667 -2.16699 77.334 -6.5 104.001s-15.5 48.834 -33.5 66.501s-46 26.5 -84 26.5c-40 0 -69.833 -9.16699 -89.5 -27.5s-32 -40.833 -37 -67.5s-7.5 -60.334 -7.5 -101.001v-223h-230v574h-74v117
h74v49h230v-49h140v-117h-140v-95c50.667 56 127 84 229 84c78.667 0 141.5 -26.667 188.5 -80z" />
    <glyph glyph-name="Imacron" unicode="&#x12a;" horiz-adv-x="329" 
d="M288 0h-247v740h247v-740zM-50 774v132h437v-132h-437z" />
    <glyph glyph-name="imacron" unicode="&#x12b;" horiz-adv-x="480" 
d="M21 610v133h437v-133h-437zM359 0h-230v560h230v-560z" />
    <glyph glyph-name="Iogonek" unicode="&#x12e;" horiz-adv-x="329" 
d="M41 740l246.999 0.000976562v-740h-2c-35.333 0 -58.5 -6 -69.5 -18s-16.5 -29 -16.5 -51s5.5 -39 16.5 -51s34.167 -18 69.5 -18v-43c-45.333 -1.33301 -81.166 1.5 -107.499 8.5s-45.333 18.667 -57 35s-17.5 39.166 -17.5 68.499c0 30 6 53 18 69h-81v740z" />
    <glyph glyph-name="iogonek" unicode="&#x12f;" horiz-adv-x="283" 
d="M26 589v151h230v-151h-230zM26 0l-0.000976562 560.001h230v-560h-6c-35.333 0 -58.5 -6 -69.5 -18s-16.5 -29 -16.5 -51s5.5 -39 16.5 -51s34.167 -18 69.5 -18v-43c-45.333 -1.33301 -81.166 1.5 -107.499 8.5s-45.333 18.667 -57 35s-17.5 39.166 -17.5 68.499
c0 30 6 53 18 69h-60z" />
    <glyph glyph-name="Idotaccent" unicode="&#x130;" horiz-adv-x="329" 
d="M288 0h-247v740h247v-740zM90.5 810.5c-18.333 18.333 -27.5 40.833 -27.5 67.5c0 26 9.16699 48 27.5 66s40.833 27 67.5 27c26 0 48.167 -9 66.5 -27s27.5 -40 27.5 -66c0 -26.667 -9.16699 -49.167 -27.5 -67.5s-40.5 -27.5 -66.5 -27.5
c-26.667 0 -49.167 9.16699 -67.5 27.5z" />
    <glyph glyph-name="dotlessi" unicode="&#x131;" horiz-adv-x="283" 
d="M256 0h-230v560h230v-560z" />
    <glyph glyph-name="uni0136" unicode="&#x136;" horiz-adv-x="872" 
d="M488 401l403 -401h-303l-300 310v-310h-247v740h247v-257l282 257h306zM357 -33h162v-124c-1.33301 -26.667 -9.83301 -48.667 -25.5 -66s-39.167 -26 -70.5 -26h-67v48h19c11.333 0 18.333 2.66699 21 8s4 14 4 26v10h-43v124z" />
    <glyph glyph-name="uni0137" unicode="&#x137;" horiz-adv-x="741" 
d="M478 301l273 -301h-263l-234 252v-252h-230v740h230v-392l199 197h267zM304 -36h162v-124c-1.33301 -26.667 -9.83301 -48.667 -25.5 -66s-39.167 -26 -70.5 -26h-67v48h19c11.333 0 18.333 2.66699 21 8s4 14 4 26v10h-43v124z" />
    <glyph glyph-name="Lacute" unicode="&#x139;" horiz-adv-x="780" 
d="M288 740v-550h466v-190h-713v740h247zM74 773l70 133h224l-120 -133h-174z" />
    <glyph glyph-name="lacute" unicode="&#x13a;" horiz-adv-x="286" 
d="M256 0h-230v740h230v-740zM51 777l70 133h224l-120 -133h-174z" />
    <glyph glyph-name="uni013B" unicode="&#x13b;" horiz-adv-x="780" 
d="M288 740v-550h466v-190h-713v740h247zM298 -34h162v-124c-1.33301 -26.667 -9.83301 -48.667 -25.5 -66s-39.167 -26 -70.5 -26h-67v48h19c11.333 0 18.333 2.66699 21 8s4 14 4 26v10h-43v124z" />
    <glyph glyph-name="uni013C" unicode="&#x13c;" horiz-adv-x="286" 
d="M256 0h-230v740h230v-740zM61 -36h162v-124c-1.33301 -26.667 -9.83301 -48.667 -25.5 -66s-39.167 -26 -70.5 -26h-67v48h19c11.333 0 18.333 2.66699 21 8s4 14 4 26v10h-43v124z" />
    <glyph glyph-name="Lcaron" unicode="&#x13d;" horiz-adv-x="780" 
d="M288 740v-550h466v-190h-713v740h247zM167 849l81 61h209l-180 -136h-226l-170 136h209z" />
    <glyph glyph-name="lcaron" unicode="&#x13e;" horiz-adv-x="286" 
d="M256 0h-230v740h230v-740zM145 849l81 61h209l-180 -136h-226l-170 136h209z" />
    <glyph glyph-name="Lslash" unicode="&#x141;" horiz-adv-x="809" 
d="M330 354v-164h466v-190h-712v236l-76 -36v143l76 37v360h246v-242l121 58v-144z" />
    <glyph glyph-name="lslash" unicode="&#x142;" horiz-adv-x="435" 
d="M331 519l92 44v-144l-92 -44v-375h-230v265l-90 -43v143l90 43v332h230v-221z" />
    <glyph glyph-name="Nacute" unicode="&#x143;" horiz-adv-x="1028" 
d="M288 0h-247v740zM986 0h-246h246zM740 287v453h246v-740h-246l-452 453v-453h-247v740h247zM407 777l70 133h224l-120 -133h-174z" />
    <glyph glyph-name="nacute" unicode="&#x144;" horiz-adv-x="766" 
d="M677.5 484c45 -52.667 67.499 -139 67.499 -259v-225h-230v222c0 42 -2.33301 76.333 -7 103s-16 49 -34 67s-46 27 -84 27c-40 0 -69.667 -8.5 -89 -25.5s-31.666 -38.833 -36.999 -65.5s-8 -61.667 -8 -105v-223h-230v545h230v-68c50.667 57.333 127.667 86 231 86
c82 0 145.5 -26.333 190.5 -79zM293.999 592l70 133h224l-120 -133h-174z" />
    <glyph glyph-name="uni0145" unicode="&#x145;" horiz-adv-x="1028" 
d="M288 0h-247v740zM986 0h-246h246zM740 287v453h246v-740h-246l-452 453v-453h-247v740h247zM429 -34h162v-124c-1.33301 -26.667 -9.83301 -48.667 -25.5 -66s-39.167 -26 -70.5 -26h-67v48h19c11.333 0 18.333 2.66699 21 8s4 14 4 26v10h-43v124z" />
    <glyph glyph-name="uni0146" unicode="&#x146;" horiz-adv-x="766" 
d="M677.5 484c45 -52.667 67.499 -139 67.499 -259v-225h-230v222c0 42 -2.33301 76.333 -7 103s-16 49 -34 67s-46 27 -84 27c-40 0 -69.667 -8.5 -89 -25.5s-31.666 -38.833 -36.999 -65.5s-8 -61.667 -8 -105v-223h-230v545h230v-68c50.667 57.333 127.667 86 231 86
c82 0 145.5 -26.333 190.5 -79zM307.999 -36h162v-124c-1.33301 -26.667 -9.83301 -48.667 -25.5 -66s-39.167 -26 -70.5 -26h-67v48h19c11.333 0 18.333 2.66699 21 8s4 14 4 26v10h-43v124z" />
    <glyph glyph-name="Ncaron" unicode="&#x147;" horiz-adv-x="1028" 
d="M288 0h-247v740zM986 0h-246h246zM740 287v453h246v-740h-246l-452 453v-453h-247v740h247zM515 849l81 61h209l-180 -136h-226l-170 136h209z" />
    <glyph glyph-name="ncaron" unicode="&#x148;" horiz-adv-x="766" 
d="M677.5 484c45 -52.667 67.499 -139 67.499 -259v-225h-230v222c0 42 -2.33301 76.333 -7 103s-16 49 -34 67s-46 27 -84 27c-40 0 -69.667 -8.5 -89 -25.5s-31.666 -38.833 -36.999 -65.5s-8 -61.667 -8 -105v-223h-230v545h230v-68c50.667 57.333 127.667 86 231 86
c82 0 145.5 -26.333 190.5 -79zM384.999 670l81 61h209l-180 -136h-226l-170 136h209z" />
    <glyph glyph-name="Eng" unicode="&#x14a;" horiz-adv-x="1028" 
d="M288 0h-247v740zM986 0h-246h246zM986 134h1v-139c0 -68.667 -13.833 -122 -41.5 -160s-71.5 -65 -131.5 -81s-142.333 -24 -247 -24v181c44 0 84 6 120 18s53.667 35.667 53 71l-452 453v-453h-247v740h247l452 -453v453h246v-606z" />
    <glyph glyph-name="eng" unicode="&#x14b;" horiz-adv-x="765" 
d="M676.5 484c45 -52.667 67.5 -139.001 67.5 -259.001v-229c0 -69.333 -14.333 -122.833 -43 -160.5s-72.167 -63.834 -130.5 -78.501s-137.5 -22 -237.5 -22v164c45.333 0 80 1.83301 104 5.5s42.833 12.834 56.5 27.501s20.5 37.334 20.5 68.001v222
c0 42 -2.33301 76.333 -7 103s-16 49 -34 67s-46 27 -84 27c-40.667 0 -70.667 -8.5 -90 -25.5s-31.5 -38.667 -36.5 -65s-7.5 -61.5 -7.5 -105.5v-223h-230v545h230v-68c50.667 57.333 127.667 86 231 86c82 0 145.5 -26.333 190.5 -79z" />
    <glyph glyph-name="Omacron" unicode="&#x14c;" horiz-adv-x="1009" 
d="M753.5 705.5c73.667 -33.667 131.333 -79.998 173 -138.998s62.5 -125.5 62.5 -199.5c0 -73.333 -20.833 -139.333 -62.5 -198s-99.167 -104.834 -172.5 -138.501s-155.666 -50.5 -246.999 -50.5c-88 0 -169.333 16.833 -244 50.5s-133.834 80 -177.501 139
s-65.5 124.833 -65.5 197.5c0 73.333 21.833 139.666 65.5 198.999s102.667 105.833 177 139.5s155.5 50.5 243.5 50.5c91.333 0 173.833 -16.833 247.5 -50.5zM614.499 191.002c34.333 16 62.1699 39.001 83.5029 69.001s32 65.667 32 107s-10.833 77.166 -32.5 107.499
s-49.834 53.333 -84.501 69s-70.667 23.5 -108 23.5c-38 0 -74 -8 -108 -24s-61.5 -39.167 -82.5 -69.5s-31.5 -65.833 -31.5 -106.5c0 -41.333 10.667 -77 32 -107s49.166 -53 83.499 -69s70.5 -24 108.5 -24c37.333 0 73.166 8 107.499 24zM283.003 792.003v132h437v-132
h-437z" />
    <glyph glyph-name="omacron" unicode="&#x14d;" 
d="M601 530c58 -25.333 103.334 -60.5 136.001 -105.5s49 -95.5 49 -151.5c0 -55.333 -16.5 -105.5 -49.5 -150.5s-78.333 -80.167 -136 -105.5s-122.5 -38 -194.5 -38c-69.333 0 -134.333 12.833 -195 38.5s-109.167 61 -145.5 106s-54.5 94.833 -54.5 149.5
c0 55.333 18.167 105.5 54.5 150.5s84.666 80.333 144.999 106s125.5 38.5 195.5 38.5c72 0 137 -12.667 195 -38zM480.501 139c23 11.333 41.5 28.502 55.5 51.502s21 50.5 21 82.5s-7 59.5 -21 82.5s-32.5 40.167 -55.5 51.5s-47.833 17 -74.5 17
c-26 0 -51.5 -5.83301 -76.5 -17.5s-45.5 -28.834 -61.5 -51.501s-24 -50 -24 -82s8 -59.333 24 -82s36.5 -39.834 61.5 -51.501s50.5 -17.5 76.5 -17.5c26.667 0 51.5 5.66699 74.5 17zM188.001 603.002v132h437v-132h-437z" />
    <glyph glyph-name="Ohungarumlaut" unicode="&#x150;" horiz-adv-x="1009" 
d="M753.5 705.5c73.667 -33.667 131.333 -79.998 173 -138.998s62.5 -125.5 62.5 -199.5c0 -73.333 -20.833 -139.333 -62.5 -198s-99.167 -104.834 -172.5 -138.501s-155.666 -50.5 -246.999 -50.5c-88 0 -169.333 16.833 -244 50.5s-133.834 80 -177.501 139
s-65.5 124.833 -65.5 197.5c0 73.333 21.833 139.666 65.5 198.999s102.667 105.833 177 139.5s155.5 50.5 243.5 50.5c91.333 0 173.833 -16.833 247.5 -50.5zM614.499 191.002c34.333 16 62.1699 39.001 83.5029 69.001s32 65.667 32 107s-10.833 77.166 -32.5 107.499
s-49.834 53.333 -84.501 69s-70.667 23.5 -108 23.5c-38 0 -74 -8 -108 -24s-61.5 -39.167 -82.5 -69.5s-31.5 -65.833 -31.5 -106.5c0 -41.333 10.667 -77 32 -107s49.166 -53 83.499 -69s70.5 -24 108.5 -24c37.333 0 73.166 8 107.499 24zM329.003 790.003l70 133h140
l-70 -133h-140zM530.003 790.003l70 133h140l-70 -133h-140z" />
    <glyph glyph-name="ohungarumlaut" unicode="&#x151;" 
d="M601 530c58 -25.333 103.334 -60.5 136.001 -105.5s49 -95.5 49 -151.5c0 -55.333 -16.5 -105.5 -49.5 -150.5s-78.333 -80.167 -136 -105.5s-122.5 -38 -194.5 -38c-69.333 0 -134.333 12.833 -195 38.5s-109.167 61 -145.5 106s-54.5 94.833 -54.5 149.5
c0 55.333 18.167 105.5 54.5 150.5s84.666 80.333 144.999 106s125.5 38.5 195.5 38.5c72 0 137 -12.667 195 -38zM480.501 139c23 11.333 41.5 28.502 55.5 51.502s21 50.5 21 82.5s-7 59.5 -21 82.5s-32.5 40.167 -55.5 51.5s-47.833 17 -74.5 17
c-26 0 -51.5 -5.83301 -76.5 -17.5s-45.5 -28.834 -61.5 -51.501s-24 -50 -24 -82s8 -59.333 24 -82s36.5 -39.834 61.5 -51.501s50.5 -17.5 76.5 -17.5c26.667 0 51.5 5.66699 74.5 17zM214.001 601.002l70 133h140l-70 -133h-140zM415.001 601.002l70 133h140l-70 -133
h-140z" />
    <glyph glyph-name="OE" unicode="&#x152;" horiz-adv-x="1577" 
d="M1003 288v-112.999l546 4v-179h-792v32c-75.333 -34.667 -158.666 -52 -249.999 -52c-88 0 -169.333 16.833 -244 50.5s-133.834 80 -177.501 139s-65.5 124.833 -65.5 197.5c0 73.333 21.833 139.666 65.5 198.999s102.667 105.833 177 139.5s155.5 50.5 243.5 50.5
c92 0 175.667 -17.333 251 -52v36h792l1 -179h-547v-98h462v-175h-462zM614.5 191.001c34.333 16 62.1699 39.001 83.5029 69.001s32 65.667 32 107s-10.833 77.166 -32.5 107.499s-49.834 53.333 -84.501 69s-70.667 23.5 -108 23.5c-38 0 -74 -8 -108 -24
s-61.5 -39.167 -82.5 -69.5s-31.5 -65.833 -31.5 -106.5c0 -41.333 10.667 -77 32 -107s49.166 -53 83.499 -69s70.5 -24 108.5 -24c37.333 0 73.166 8 107.499 24z" />
    <glyph glyph-name="oe" unicode="&#x153;" horiz-adv-x="1342" 
d="M1328 247l-531.998 0.00195312c4.66699 -42.667 20.334 -77.334 47.001 -104.001s63.334 -40 110.001 -40c37.333 0 71 9.16699 101 27.5s45 46.5 45 84.5h229c0 -78 -33 -137.167 -99 -177.5s-158.333 -60.5 -277 -60.5c-54.667 0 -105.834 7.16699 -153.501 21.5
s-89.167 34.5 -124.5 60.5c-34.667 -25.333 -74.834 -45 -120.501 -59s-94.834 -21 -147.501 -21c-69.333 0 -134.333 12.833 -195 38.5s-109.167 61 -145.5 106s-54.5 94.833 -54.5 149.5c0 55.333 18.167 105.5 54.5 150.5s84.666 80.333 144.999 106
s125.5 38.5 195.5 38.5c52.667 0 102 -7 148 -21s86 -33.667 120 -59c35.333 26 76.833 46 124.5 60s98.834 21 153.501 21c74.667 0 140.167 -12 196.5 -36s100.166 -57.833 131.499 -101.5s47.333 -94.834 48 -153.501v-5h2h-2v-26zM803.002 341.002h290
c-14 70.667 -60.667 106 -140 106c-81.333 0 -131.333 -35.333 -150 -106zM480.502 139.002c23 11.333 41.5 28.502 55.5 51.502s21 50.5 21 82.5s-7 59.5 -21 82.5s-32.5 40.167 -55.5 51.5s-47.833 17 -74.5 17c-26 0 -51.5 -5.83301 -76.5 -17.5
s-45.5 -28.834 -61.5 -51.501s-24 -50 -24 -82s8 -59.333 24 -82s36.5 -39.834 61.5 -51.501s50.5 -17.5 76.5 -17.5c26.667 0 51.5 5.66699 74.5 17z" />
    <glyph glyph-name="Racute" unicode="&#x154;" horiz-adv-x="941" 
d="M635 1l-205 238.999h-153v-239h-236v740h559c62 0 116.833 -10.333 164.5 -31s84.667 -49.5 111 -86.5s39.5 -79.833 39.5 -128.5v-4c0 -63.333 -18.5 -115.666 -55.5 -156.999s-88.167 -69 -153.5 -83l215 -250h-286zM666.5 545.999c-11 12 -25.168 19.333 -42.501 22
s-42.666 4 -75.999 4h-36c-49.333 -1.33301 -127.666 -2 -234.999 -2v-159h269h2c33.333 0 58.666 1.33301 75.999 4s31.5 9.5 42.5 20.5s16.5 28.833 16.5 53.5c0 26 -5.5 45 -16.5 57zM354.999 773.999l70 133h224l-120 -133h-174z" />
    <glyph glyph-name="racute" unicode="&#x155;" horiz-adv-x="528" 
d="M254 450c53.333 58.667 137.667 94 253 106v-174h-133c-41.333 0 -71.333 -15.5 -90 -46.5s-28 -71.5 -28 -121.5v-214h-230v545h209zM151.001 578l70 133h224l-120 -133h-174z" />
    <glyph glyph-name="uni0156" unicode="&#x156;" horiz-adv-x="941" 
d="M635 1l-205 238.999h-153v-239h-236v740h559c62 0 116.833 -10.333 164.5 -31s84.667 -49.5 111 -86.5s39.5 -79.833 39.5 -128.5v-4c0 -63.333 -18.5 -115.666 -55.5 -156.999s-88.167 -69 -153.5 -83l215 -250h-286zM666.5 545.999c-11 12 -25.168 19.333 -42.501 22
s-42.666 4 -75.999 4h-36c-49.333 -1.33301 -127.666 -2 -234.999 -2v-159h269h2c33.333 0 58.666 1.33301 75.999 4s31.5 9.5 42.5 20.5s16.5 28.833 16.5 53.5c0 26 -5.5 45 -16.5 57zM361.999 -31.001h162v-124c-1.33301 -26.667 -9.83301 -48.667 -25.5 -66
s-39.167 -26 -70.5 -26h-67v48h19c11.333 0 18.333 2.66699 21 8s4 14 4 26v10h-43v124z" />
    <glyph glyph-name="uni0157" unicode="&#x157;" horiz-adv-x="528" 
d="M254 450c53.333 58.667 137.667 94 253 106v-174h-133c-41.333 0 -71.333 -15.5 -90 -46.5s-28 -71.5 -28 -121.5v-214h-230v545h209zM58.001 -33h162v-124c-1.33301 -26.667 -9.83301 -48.667 -25.5 -66s-39.167 -26 -70.5 -26h-67v48h19c11.333 0 18.333 2.66699 21 8
s4 14 4 26v10h-43v124z" />
    <glyph glyph-name="Rcaron" unicode="&#x158;" horiz-adv-x="941" 
d="M635 1l-205 238.999h-153v-239h-236v740h559c62 0 116.833 -10.333 164.5 -31s84.667 -49.5 111 -86.5s39.5 -79.833 39.5 -128.5v-4c0 -63.333 -18.5 -115.666 -55.5 -156.999s-88.167 -69 -153.5 -83l215 -250h-286zM666.5 545.999c-11 12 -25.168 19.333 -42.501 22
s-42.666 4 -75.999 4h-36c-49.333 -1.33301 -127.666 -2 -234.999 -2v-159h269h2c33.333 0 58.666 1.33301 75.999 4s31.5 9.5 42.5 20.5s16.5 28.833 16.5 53.5c0 26 -5.5 45 -16.5 57zM458.999 847.999l81 61h209l-180 -136h-226l-170 136h209z" />
    <glyph glyph-name="rcaron" unicode="&#x159;" horiz-adv-x="528" 
d="M254 450c53.333 58.667 137.667 94 253 106v-174h-133c-41.333 0 -71.333 -15.5 -90 -46.5s-28 -71.5 -28 -121.5v-214h-230v545h209zM260.001 654l81 61h209l-180 -136h-226l-170 136h209z" />
    <glyph glyph-name="Sacute" unicode="&#x15a;" horiz-adv-x="948" 
d="M583 440c65.333 0 122.499 -4.49805 171.499 -13.498s90 -28.167 123 -57.5s49.5 -72 49.5 -128c0 -103.333 -45.833 -173.166 -137.5 -209.499s-194.5 -54.5 -308.5 -54.5c-113.333 0 -218.333 18.5 -315 55.5s-145 107.5 -145 211.5l255 1
c0 -46 20.833 -75.167 62.5 -87.5s90.5 -18.5 146.5 -18.5c52.667 0 97.834 7.66699 135.501 23s56.5 40.333 56.5 75v1c0 19.333 -11.667 33.666 -35 42.999s-48.333 15 -75 17s-58.667 3.33301 -96 4h-75c-72 0 -134.5 4.5 -187.5 13.5s-97.5 28.833 -133.5 59.5
s-54 76 -54 136c0 104 46.833 171.833 140.5 203.5s200.167 47.5 319.5 47.5c112 0 214.333 -18.333 307 -55s139 -107.334 139 -212.001h-251c0 33.333 -18.833 58.166 -56.5 74.499s-83.5 25.5 -137.5 27.5c-58 0 -107 -6.66699 -147 -20s-60 -34.333 -60 -63
c0 -30 20.333 -50 61 -60s86.667 -15 138 -15zM380.999 796.002l70 133h224l-120 -133h-174z" />
    <glyph glyph-name="sacute" unicode="&#x15b;" horiz-adv-x="762" 
d="M429 325l57 0.998047c78.667 0 142.5 -10.167 191.5 -30.5s73.5 -60.833 73.5 -121.5c0 -78.667 -36.5 -131.167 -109.5 -157.5s-156.5 -39.5 -250.5 -39.5c-93.333 0 -178.833 13.833 -256.5 41.5s-116.5 80.834 -116.5 159.501h232
c0 -31.333 13.667 -52.166 41 -62.499s60.666 -15.5 99.999 -15.5c44.667 0 77.834 5.5 99.501 16.5s32.5 28.833 32.5 53.5c0 22 -12.667 35.833 -38 41.5s-57.333 8.5 -96 8.5h-35c-60.667 0 -114.5 3.16699 -161.5 9.5s-87.833 21.5 -122.5 45.5s-52 60 -52 108
c0 76 37.5 125.667 112.5 149s161.5 35 259.5 35c92.667 0 176 -13.667 250 -41s111 -80.333 111 -159l-230 1c0 34 -17.333 55 -52 63s-62 12 -82 12c-30.667 0 -61.167 -3.5 -91.5 -10.5s-45.5 -22.5 -45.5 -46.5c0 -40 45 -60.667 135 -62c19.333 0 34 0.333008 44 1z
M280 599.998l70 133h224l-120 -133h-174z" />
    <glyph glyph-name="Scedilla" unicode="&#x15e;" horiz-adv-x="948" 
d="M583 440c65.333 0 122.498 -4.49805 171.498 -13.498s90 -28.167 123 -57.5s49.5 -72 49.5 -128c0 -92 -37.5 -157.167 -112.5 -195.5s-164.5 -60.5 -268.5 -66.5v-22c38 0 72.833 -6.16699 104.5 -18.5s47.167 -36.166 46.5 -71.499
c0 -45.333 -23.667 -75.833 -71 -91.5s-99 -23.5 -155 -23.5c-136 0 -204 41 -204 123h111c0 -19.333 10 -31.833 30 -37.5s37.333 -8.5 52 -8.5c16 0 33.833 2 53.5 6s29.5 14 29.5 30c0 20 -25 30 -75 30h-51v84c-105.333 6 -197.666 28.5 -276.999 67.5
s-119 104.833 -119 197.5l255 1c0 -46 20.833 -75.167 62.5 -87.5s90.5 -18.5 146.5 -18.5c52.667 0 97.834 7.66699 135.501 23s56.5 40.333 56.5 75v1c0 19.333 -11.667 33.666 -35 42.999s-48.333 15 -75 17s-58.667 3.33301 -96 4h-75c-72 0 -134.5 4.5 -187.5 13.5
s-97.5 28.833 -133.5 59.5s-54 76 -54 136c0 104 46.833 171.833 140.5 203.5s200.167 47.5 319.5 47.5c112 0 214.333 -18.333 307 -55s139 -107.334 139 -212.001h-251c0 33.333 -18.833 58.166 -56.5 74.499s-83.5 25.5 -137.5 27.5c-58 0 -107 -6.66699 -147 -20
s-60 -34.333 -60 -63c0 -30 20.333 -50 61 -60s86.667 -15 138 -15z" />
    <glyph glyph-name="scedilla" unicode="&#x15f;" horiz-adv-x="762" 
d="M429 325l56.999 0.998047c78.667 0 142.5 -10.167 191.5 -30.5s73.5 -60.833 73.5 -121.5c0 -69.333 -29.5 -118.166 -88.5 -146.499s-130.167 -44.833 -213.5 -49.5v-23c38 0 72.833 -6.16699 104.5 -18.5s47.167 -36.166 46.5 -71.499
c0 -45.333 -23.667 -75.833 -71 -91.5s-98.666 -23.5 -153.999 -23.5c-136.667 0 -205 41 -205 123h111c0 -20 10.167 -32.833 30.5 -38.5s37.833 -8.5 52.5 -8.5c16 0 33.667 2 53 6s29 14.333 29 31c0 20 -25 30 -75 30h-51v86c-83.333 6.66699 -154.5 24.667 -213.5 54
s-88.5 77.666 -88.5 144.999h232c0 -31.333 13.667 -52.166 41 -62.499s60.666 -15.5 99.999 -15.5c44.667 0 77.834 5.5 99.501 16.5s32.5 28.833 32.5 53.5c0 22 -12.667 35.833 -38 41.5s-57.333 8.5 -96 8.5h-35c-60.667 0 -114.5 3.16699 -161.5 9.5
s-87.833 21.5 -122.5 45.5s-52 60 -52 108c0 76 37.5 125.667 112.5 149s161.5 35 259.5 35c92.667 0 176 -13.667 250 -41s111 -80.333 111 -159l-230 1c0 34 -17.333 55 -52 63s-62 12 -82 12c-30.667 0 -61.167 -3.5 -91.5 -10.5s-45.5 -22.5 -45.5 -46.5
c0 -40 45 -60.667 135 -62c19.333 0 34 0.333008 44 1z" />
    <glyph glyph-name="Scaron" unicode="&#x160;" horiz-adv-x="948" 
d="M583 440c65.333 0 122.499 -4.49805 171.499 -13.498s90 -28.167 123 -57.5s49.5 -72 49.5 -128c0 -103.333 -45.833 -173.166 -137.5 -209.499s-194.5 -54.5 -308.5 -54.5c-113.333 0 -218.333 18.5 -315 55.5s-145 107.5 -145 211.5l255 1
c0 -46 20.833 -75.167 62.5 -87.5s90.5 -18.5 146.5 -18.5c52.667 0 97.834 7.66699 135.501 23s56.5 40.333 56.5 75v1c0 19.333 -11.667 33.666 -35 42.999s-48.333 15 -75 17s-58.667 3.33301 -96 4h-75c-72 0 -134.5 4.5 -187.5 13.5s-97.5 28.833 -133.5 59.5
s-54 76 -54 136c0 104 46.833 171.833 140.5 203.5s200.167 47.5 319.5 47.5c112 0 214.333 -18.333 307 -55s139 -107.334 139 -212.001h-251c0 33.333 -18.833 58.166 -56.5 74.499s-83.5 25.5 -137.5 27.5c-58 0 -107 -6.66699 -147 -20s-60 -34.333 -60 -63
c0 -30 20.333 -50 61 -60s86.667 -15 138 -15zM480.999 871.002l81 61h209l-180 -136h-226l-170 136h209z" />
    <glyph glyph-name="scaron" unicode="&#x161;" horiz-adv-x="762" 
d="M429 325l57 0.998047c78.667 0 142.5 -10.167 191.5 -30.5s73.5 -60.833 73.5 -121.5c0 -78.667 -36.5 -131.167 -109.5 -157.5s-156.5 -39.5 -250.5 -39.5c-93.333 0 -178.833 13.833 -256.5 41.5s-116.5 80.834 -116.5 159.501h232
c0 -31.333 13.667 -52.166 41 -62.499s60.666 -15.5 99.999 -15.5c44.667 0 77.834 5.5 99.501 16.5s32.5 28.833 32.5 53.5c0 22 -12.667 35.833 -38 41.5s-57.333 8.5 -96 8.5h-35c-60.667 0 -114.5 3.16699 -161.5 9.5s-87.833 21.5 -122.5 45.5s-52 60 -52 108
c0 76 37.5 125.667 112.5 149s161.5 35 259.5 35c92.667 0 176 -13.667 250 -41s111 -80.333 111 -159l-230 1c0 34 -17.333 55 -52 63s-62 12 -82 12c-30.667 0 -61.167 -3.5 -91.5 -10.5s-45.5 -22.5 -45.5 -46.5c0 -40 45 -60.667 135 -62c19.333 0 34 0.333008 44 1z
M379 674.998l81 61h209l-180 -136h-226l-170 136h209z" />
    <glyph glyph-name="uni0162" unicode="&#x162;" horiz-adv-x="926" 
d="M26 540v200h874zM588 0l-56 -0.000976562v-39c38 0 72.833 -6.16699 104.5 -18.5s47.167 -36.166 46.5 -71.499c0 -45.333 -23.667 -75.833 -71 -91.5s-99 -23.5 -155 -23.5c-136 0 -204 41 -204 123h111c0 -20 10 -32.833 30 -38.5s37.333 -8.5 52 -8.5
c16 0 33.833 2 53.5 6s29.5 14.333 29.5 31c0 20 -25 30 -75 30h-51v101h-61v539h-316v201h874v-201h-312v-539z" />
    <glyph glyph-name="uni0163" unicode="&#x163;" horiz-adv-x="486" 
d="M360 0l-50 -0.000976562v-33c38 0 72.833 -6.16699 104.5 -18.5s47.167 -36.166 46.5 -71.499c0 -45.333 -23.667 -75.833 -71 -91.5s-99 -23.5 -155 -23.5c-136 0 -204 41 -204 123h111c0 -19.333 10 -31.833 30 -37.5s37.333 -8.5 52 -8.5c16 0 33.833 2 53.5 6
s29.5 14 29.5 30c0 20 -25 30 -75 30h-51v95h-51v388h-109v157h109v118l230 93v-211h104v-157h-104v-388z" />
    <glyph glyph-name="Tcaron" unicode="&#x164;" horiz-adv-x="926" 
d="M26 540v200h874zM900 740v-201h-312v-539h-246v539h-316v201h874zM466 848l81 61h209l-180 -136h-226l-170 136h209z" />
    <glyph glyph-name="tcaron" unicode="&#x165;" horiz-adv-x="486" 
d="M360 545h104v-157h-104v-388h-230v388h-109v157h109v118l230 93v-211zM246 849l81 61h209l-180 -136h-226l-170 136h209z" />
    <glyph glyph-name="Tbar" unicode="&#x166;" horiz-adv-x="924" 
d="M26 540v200h874zM900 740v-201h-312v-126h190v-121h-190v-292h-246v292h-192v121h192v126h-316v201h874z" />
    <glyph glyph-name="tbar" unicode="&#x167;" horiz-adv-x="476" 
d="M461 545v-157h-104v-62h104v-135h-104v-191h-230v191h-109v135h109v62h-109v157h109v118l230 93v-211h104z" />
    <glyph glyph-name="Umacron" unicode="&#x16a;" horiz-adv-x="983" 
d="M695 740l252.001 -0.000976562v-379c0 -72 -20 -137 -60 -195s-94 -103.5 -162 -136.5s-142.333 -49.5 -223 -49.5c-86.667 0 -165.334 16.333 -236.001 49s-126.5 77.834 -167.5 135.501s-61.833 122.5 -62.5 194.5v381h256v-381
c0 -60.667 20.833 -105.334 62.5 -134.001s91.167 -43 148.5 -43c30 0 59.667 5.83301 89 17.5s53.833 30.834 73.5 57.501s29.5 60.667 29.5 102v381zM273.001 777.999v132h437v-132h-437z" />
    <glyph glyph-name="umacron" unicode="&#x16b;" horiz-adv-x="771" 
d="M515 545h230v-545h-230v68c-50.667 -57.333 -127.667 -86 -231 -86c-82 0 -145.5 26.333 -190.5 79s-67.5 139 -67.5 259v225h230v-222c0 -42 2.33301 -76.333 7 -103s16 -49 34 -67s46 -27 84 -27c52.667 0 88.167 18.167 106.5 54.5s27.5 83.833 27.5 142.5v222z
M168 579v132h437v-132h-437z" />
    <glyph glyph-name="Uring" unicode="&#x16e;" horiz-adv-x="983" 
d="M695 740l252.001 -0.000976562v-379c0 -72 -20 -137 -60 -195s-94 -103.5 -162 -136.5s-142.333 -49.5 -223 -49.5c-86.667 0 -165.334 16.333 -236.001 49s-126.5 77.834 -167.5 135.501s-61.833 122.5 -62.5 194.5v381h256v-381
c0 -60.667 20.833 -105.334 62.5 -134.001s91.167 -43 148.5 -43c30 0 59.667 5.83301 89 17.5s53.833 30.834 73.5 57.501s29.5 60.667 29.5 102v381zM354.001 1016c14.667 24.667 34.501 44.333 59.501 59s52.167 22 81.5 22c28.667 0 55.5 -7.33301 80.5 -22
s44.833 -34.5 59.5 -59.5s22 -51.833 22 -80.5c0 -29.333 -7.33301 -56.5 -22 -81.5s-34.334 -44.833 -59.001 -59.5s-51.667 -22 -81 -22s-56.5 7.33301 -81.5 22s-44.833 34.5 -59.5 59.5s-22 52.167 -22 81.5s7.33301 56.333 22 81zM446.502 886.998
c13 -13.333 29.167 -20 48.5 -20c18.667 0 34.5 6.66699 47.5 20s19.5 29.333 19.5 48c0 18 -6.66699 33.667 -20 47s-29 20 -47 20c-18.667 0 -34.667 -6.5 -48 -19.5s-20 -28.833 -20 -47.5s6.5 -34.667 19.5 -48z" />
    <glyph glyph-name="uring" unicode="&#x16f;" horiz-adv-x="771" 
d="M515 545h230v-545h-230v68c-50.667 -57.333 -127.667 -86 -231 -86c-82 0 -145.5 26.333 -190.5 79s-67.5 139 -67.5 259v225h230v-222c0 -42 2.33301 -76.333 7 -103s16 -49 34 -67s46 -27 84 -27c52.667 0 88.167 18.167 106.5 54.5s27.5 83.833 27.5 142.5v222z
M248 824c14.667 24.667 34.501 44.333 59.501 59s52.167 22 81.5 22c28.667 0 55.5 -7.33301 80.5 -22s44.833 -34.5 59.5 -59.5s22 -51.833 22 -80.5c0 -29.333 -7.33301 -56.5 -22 -81.5s-34.334 -44.833 -59.001 -59.5s-51.667 -22 -81 -22s-56.5 7.33301 -81.5 22
s-44.833 34.5 -59.5 59.5s-22 52.167 -22 81.5s7.33301 56.333 22 81zM340.501 694.999c13 -13.333 29.167 -20 48.5 -20c18.667 0 34.5 6.66699 47.5 20s19.5 29.333 19.5 48c0 18 -6.66699 33.667 -20 47s-29 20 -47 20c-18.667 0 -34.667 -6.5 -48 -19.5
s-20 -28.833 -20 -47.5s6.5 -34.667 19.5 -48z" />
    <glyph glyph-name="Uhungarumlaut" unicode="&#x170;" horiz-adv-x="983" 
d="M695 740l252.001 -0.000976562v-379c0 -72 -20 -137 -60 -195s-94 -103.5 -162 -136.5s-142.333 -49.5 -223 -49.5c-86.667 0 -165.334 16.333 -236.001 49s-126.5 77.834 -167.5 135.501s-61.833 122.5 -62.5 194.5v381h256v-381
c0 -60.667 20.833 -105.334 62.5 -134.001s91.167 -43 148.5 -43c30 0 59.667 5.83301 89 17.5s53.833 30.834 73.5 57.501s29.5 60.667 29.5 102v381zM309.001 776.999l70 133h140l-70 -133h-140zM510.001 776.999l70 133h140l-70 -133h-140z" />
    <glyph glyph-name="uhungarumlaut" unicode="&#x171;" horiz-adv-x="771" 
d="M515 545h230v-545h-230v68c-50.667 -57.333 -127.667 -86 -231 -86c-82 0 -145.5 26.333 -190.5 79s-67.5 139 -67.5 259v225h230v-222c0 -42 2.33301 -76.333 7 -103s16 -49 34 -67s46 -27 84 -27c52.667 0 88.167 18.167 106.5 54.5s27.5 83.833 27.5 142.5v222z
M213 579l70 133h140l-70 -133h-140zM414 579l70 133h140l-70 -133h-140z" />
    <glyph glyph-name="Uogonek" unicode="&#x172;" horiz-adv-x="983" 
d="M695 740l251.999 0.000976562v-379c0 -63.333 -15.667 -121.5 -47 -174.5s-74.333 -96.833 -129 -131.5s-116 -57.334 -184 -68.001v-3c-35.333 0 -58.5 -6 -69.5 -18s-16.5 -29 -16.5 -51s5.5 -39 16.5 -51s34.167 -18 69.5 -18v-43
c-45.333 -1.33301 -81.166 1.5 -107.499 8.5s-45.333 18.667 -57 35s-17.5 39.166 -17.5 68.499c0 30 6.33301 53.333 19 70c-74 9.33301 -140.333 31 -199 65s-104.667 77.833 -138 131.5s-50.333 112.834 -51 177.501v381h256v-381
c0 -60.667 20.833 -105.334 62.5 -134.001s91.167 -43 148.5 -43c30 0 59.667 5.83301 89 17.5s53.833 30.834 73.5 57.501s29.5 60.667 29.5 102v381z" />
    <glyph glyph-name="uogonek" unicode="&#x173;" horiz-adv-x="771" 
d="M515 545l229.999 0.000976562v-545h-1c-35.333 0 -58.5 -6 -69.5 -18s-16.5 -29 -16.5 -51s5.5 -39 16.5 -51s34.167 -18 69.5 -18v-43c-45.333 -1.33301 -81.166 1.5 -107.499 8.5s-45.333 18.667 -57 35s-17.5 39.166 -17.5 68.499c0 30 6 53 18 69h-65v68
c-50.667 -57.333 -127.667 -86 -231 -86c-82 0 -145.5 26.333 -190.5 79s-67.5 139 -67.5 259v225h230v-222c0 -42 2.33301 -76.333 7 -103s16 -49 34 -67s46 -27 84 -27c52.667 0 88.167 18.167 106.5 54.5s27.5 83.833 27.5 142.5v222z" />
    <glyph glyph-name="Wcircumflex" unicode="&#x174;" horiz-adv-x="1543" 
d="M1053 288l238 452h250l-389 -740h-250l-131 404l-133 -404h-250l-387 740h253l235 -452l158 452h252zM880 910l180 -136h-209l-81 61l-77 -61h-209l170 136h226z" />
    <glyph glyph-name="wcircumflex" unicode="&#x175;" horiz-adv-x="1175" 
d="M781 210l146 335h241l-277 -545h-205l-99 292l-100 -292h-204l-277 545h240l148 -336l94 336h198zM701 730l180 -136h-209l-81 61l-77 -61h-209l170 136h226z" />
    <glyph glyph-name="Ycircumflex" unicode="&#x176;" horiz-adv-x="974" 
d="M718 740h255l-354 -429v-311h-265v310l-353 430h255l225 -275zM592 910l180 -136h-209l-81 61l-77 -61h-209l170 136h226z" />
    <glyph glyph-name="ycircumflex" unicode="&#x177;" horiz-adv-x="876" 
d="M868 545l-336 -668.002c-22 -44 -64.5 -72.333 -127.5 -85s-133.833 -19 -212.5 -19v183c38 0 64.333 2.33301 79 7s22 11.334 22 20.001c0 2.66699 -1.33301 7.33398 -4 14.001l-281 548h246l186 -403l182 403h246zM526 729.998l180 -136h-209l-81 61l-77 -61h-209
l170 136h226z" />
    <glyph glyph-name="Ydieresis" unicode="&#x178;" horiz-adv-x="974" 
d="M718 740h255l-354 -429v-311h-265v310l-353 430h255l225 -275zM284 810.5c-18 18.333 -27 40.833 -27 67.5c0 26 9 48 27 66s40.333 27 67 27c26 0 48.167 -9 66.5 -27s27.5 -40 27.5 -66c0 -26.667 -9.16699 -49.167 -27.5 -67.5s-40.5 -27.5 -66.5 -27.5
c-26.667 0 -49 9.16699 -67 27.5zM550 810.5c-18 18.333 -27 40.833 -27 67.5c0 26 9 48 27 66s40.333 27 67 27c26 0 48.167 -9 66.5 -27s27.5 -40 27.5 -66c0 -26.667 -9.16699 -49.167 -27.5 -67.5s-40.5 -27.5 -66.5 -27.5c-26.667 0 -49 9.16699 -67 27.5z" />
    <glyph glyph-name="Zacute" unicode="&#x179;" horiz-adv-x="921" 
d="M35 740h855v-198l-527 -345l524 -1v-196h-856v197h2l526 346l-524 1v196zM349 777l70 133h224l-120 -133h-174z" />
    <glyph glyph-name="zacute" unicode="&#x17a;" horiz-adv-x="760" 
d="M26 545l708 -1v-160l-395 -223l395 -1v-160l-708 1v161l398 223l-398 1v159zM279 578l70 133h224l-120 -133h-174z" />
    <glyph glyph-name="Zdotaccent" unicode="&#x17b;" horiz-adv-x="921" 
d="M35 740h855v-198l-527 -345l524 -1v-196h-856v197h2l526 346l-524 1v196zM394.5 810.5c-18.333 18.333 -27.5 40.833 -27.5 67.5c0 26 9.16699 48 27.5 66s40.833 27 67.5 27c26 0 48.167 -9 66.5 -27s27.5 -40 27.5 -66c0 -26.667 -9.16699 -49.167 -27.5 -67.5
s-40.5 -27.5 -66.5 -27.5c-26.667 0 -49.167 9.16699 -67.5 27.5z" />
    <glyph glyph-name="zdotaccent" unicode="&#x17c;" horiz-adv-x="760" 
d="M26 545l708 -1v-160l-395 -223l395 -1v-160l-708 1v161l398 223l-398 1v159zM320.5 605.5c-18.333 18.333 -27.5 40.833 -27.5 67.5c0 26 9.16699 48 27.5 66s40.833 27 67.5 27c26 0 48.167 -9 66.5 -27s27.5 -40 27.5 -66c0 -26.667 -9.16699 -49.167 -27.5 -67.5
s-40.5 -27.5 -66.5 -27.5c-26.667 0 -49.167 9.16699 -67.5 27.5z" />
    <glyph glyph-name="Zcaron" unicode="&#x17d;" horiz-adv-x="921" 
d="M35 740h855v-198l-527 -345l524 -1v-196h-856v197h2l526 346l-524 1v196zM470 849l81 61h209l-180 -136h-226l-170 136h209z" />
    <glyph glyph-name="zcaron" unicode="&#x17e;" horiz-adv-x="760" 
d="M26 545l708 -1v-160l-395 -223l395 -1v-160l-708 1v161l398 223l-398 1v159zM385 653l81 61h209l-180 -136h-226l-170 136h209z" />
    <glyph glyph-name="uni0218" unicode="&#x218;" horiz-adv-x="948" 
d="M583 440c65.333 0 122.499 -4.49805 171.499 -13.498s90 -28.167 123 -57.5s49.5 -72 49.5 -128c0 -103.333 -45.833 -173.166 -137.5 -209.499s-194.5 -54.5 -308.5 -54.5c-113.333 0 -218.333 18.5 -315 55.5s-145 107.5 -145 211.5l255 1
c0 -46 20.833 -75.167 62.5 -87.5s90.5 -18.5 146.5 -18.5c52.667 0 97.834 7.66699 135.501 23s56.5 40.333 56.5 75v1c0 19.333 -11.667 33.666 -35 42.999s-48.333 15 -75 17s-58.667 3.33301 -96 4h-75c-72 0 -134.5 4.5 -187.5 13.5s-97.5 28.833 -133.5 59.5
s-54 76 -54 136c0 104 46.833 171.833 140.5 203.5s200.167 47.5 319.5 47.5c112 0 214.333 -18.333 307 -55s139 -107.334 139 -212.001h-251c0 33.333 -18.833 58.166 -56.5 74.499s-83.5 25.5 -137.5 27.5c-58 0 -107 -6.66699 -147 -20s-60 -34.333 -60 -63
c0 -30 20.333 -50 61 -60s86.667 -15 138 -15zM406.999 -52.998h162v-124c-1.33301 -26.667 -9.83301 -48.667 -25.5 -66s-39.167 -26 -70.5 -26h-67v48h19c11.333 0 18.333 2.66699 21 8s4 14 4 26v10h-43v124z" />
    <glyph glyph-name="uni0219" unicode="&#x219;" horiz-adv-x="762" 
d="M429 325l57 0.998047c78.667 0 142.5 -10.167 191.5 -30.5s73.5 -60.833 73.5 -121.5c0 -78.667 -36.5 -131.167 -109.5 -157.5s-156.5 -39.5 -250.5 -39.5c-93.333 0 -178.833 13.833 -256.5 41.5s-116.5 80.834 -116.5 159.501h232
c0 -31.333 13.667 -52.166 41 -62.499s60.666 -15.5 99.999 -15.5c44.667 0 77.834 5.5 99.501 16.5s32.5 28.833 32.5 53.5c0 22 -12.667 35.833 -38 41.5s-57.333 8.5 -96 8.5h-35c-60.667 0 -114.5 3.16699 -161.5 9.5s-87.833 21.5 -122.5 45.5s-52 60 -52 108
c0 76 37.5 125.667 112.5 149s161.5 35 259.5 35c92.667 0 176 -13.667 250 -41s111 -80.333 111 -159l-230 1c0 34 -17.333 55 -52 63s-62 12 -82 12c-30.667 0 -61.167 -3.5 -91.5 -10.5s-45.5 -22.5 -45.5 -46.5c0 -40 45 -60.667 135 -62c19.333 0 34 0.333008 44 1z
M306 -56.002h162v-124c-1.33301 -26.667 -9.83301 -48.667 -25.5 -66s-39.167 -26 -70.5 -26h-67v48h19c11.333 0 18.333 2.66699 21 8s4 14 4 26v10h-43v124z" />
    <glyph glyph-name="uni021A" unicode="&#x21a;" horiz-adv-x="926" 
d="M26 540v200h874zM900 740v-201h-312v-539h-246v539h-316v201h874zM380 -33h162v-124c-1.33301 -26.667 -9.83301 -48.667 -25.5 -66s-39.167 -26 -70.5 -26h-67v48h19c11.333 0 18.333 2.66699 21 8s4 14 4 26v10h-43v124z" />
    <glyph glyph-name="uni021B" unicode="&#x21b;" horiz-adv-x="486" 
d="M360 545h104v-157h-104v-388h-230v388h-109v157h109v118l230 93v-211zM166 -33h162v-124c-1.33301 -26.667 -9.83301 -48.667 -25.5 -66s-39.167 -26 -70.5 -26h-67v48h19c11.333 0 18.333 2.66699 21 8s4 14 4 26v10h-43v124z" />
    <glyph glyph-name="uni02BC" unicode="&#x2bc;" horiz-adv-x="231" 
d="M15 623v117h201v-117l-87 -104h-111l88 104h-91z" />
    <glyph glyph-name="circumflex" unicode="&#x2c6;" horiz-adv-x="590" 
d="M405 910l180 -136h-209l-81 61l-77 -61h-209l170 136h226z" />
    <glyph glyph-name="caron" unicode="&#x2c7;" horiz-adv-x="600" 
d="M295 849l81 61h209l-180 -136h-226l-170 136h209z" />
    <glyph glyph-name="breve" unicode="&#x2d8;" horiz-adv-x="596" 
d="M545 924c0 -66 -22.832 -115.667 -68.499 -149s-104.834 -50 -177.501 -50c-74 0 -134 16.667 -180 50s-69 83 -69 149h137c0 -30.667 10.667 -56.5 32 -77.5s47.666 -31.5 78.999 -31.5c30.667 0 56.834 10.5 78.501 31.5s32.5 46.833 32.5 77.5h136z" />
    <glyph glyph-name="dotaccent" unicode="&#x2d9;" horiz-adv-x="351" 
d="M108.5 810.5c-18.333 18.333 -27.5 40.833 -27.5 67.5c0 26 9.16699 48 27.5 66s40.833 27 67.5 27c26 0 48.167 -9 66.5 -27s27.5 -40 27.5 -66c0 -26.667 -9.16699 -49.167 -27.5 -67.5s-40.5 -27.5 -66.5 -27.5c-26.667 0 -49.167 9.16699 -67.5 27.5z" />
    <glyph glyph-name="ring" unicode="&#x2da;" horiz-adv-x="469" 
d="M72 1016c14.667 24.667 34.501 44.333 59.501 59s52.167 22 81.5 22c28.667 0 55.5 -7.33301 80.5 -22s44.833 -34.5 59.5 -59.5s22 -51.833 22 -80.5c0 -29.333 -7.33301 -56.5 -22 -81.5s-34.334 -44.833 -59.001 -59.5s-51.667 -22 -81 -22s-56.5 7.33301 -81.5 22
s-44.833 34.5 -59.5 59.5s-22 52.167 -22 81.5s7.33301 56.333 22 81zM164.501 886.999c13 -13.333 29.167 -20 48.5 -20c18.667 0 34.5 6.66699 47.5 20s19.5 29.333 19.5 48c0 18 -6.66699 33.667 -20 47s-29 20 -47 20c-18.667 0 -34.667 -6.5 -48 -19.5
s-20 -28.833 -20 -47.5s6.5 -34.667 19.5 -48z" />
    <glyph glyph-name="ogonek" unicode="&#x2db;" horiz-adv-x="600" 
d="M485 4c-35.333 0 -58.5 -5.99805 -69.5 -17.998s-16.5 -29 -16.5 -51s5.5 -39 16.5 -51s34.167 -18 69.5 -18v-43c-45.333 -1.33301 -81.166 1.5 -107.499 8.5s-45.333 18.667 -57 35s-17.5 39.166 -17.5 68.499s5.83301 52.166 17.5 68.499s30.667 28 57 35
s62.166 9.83301 107.499 8.5v-43z" />
    <glyph glyph-name="tilde" unicode="&#x2dc;" horiz-adv-x="600" 
d="M552 940c0 -98 -39.999 -147.001 -119.999 -147.001c-22 0 -42.333 2.33301 -61 7s-41.334 11.334 -68.001 20.001c-33.333 8 -57.333 12 -72 12c-30.667 0 -46 -11 -46 -33h-131c0 98.667 40 148 120 148c19.333 0 38.5 -2.33301 57.5 -7s34.833 -9 47.5 -13
s20.667 -6.66699 24 -8c33.333 -8 57.333 -12 72 -12c31.333 0 47 11 47 33h130z" />
    <glyph glyph-name="hungarumlaut" unicode="&#x2dd;" horiz-adv-x="600" 
d="M96 777l70 133h140l-70 -133h-140zM297 777l70 133h140l-70 -133h-140z" />
    <glyph glyph-name="gravecomb" unicode="&#x300;" horiz-adv-x="0" 
d="M-416 910h224l70 -133h-174z" />
    <glyph glyph-name="acutecomb" unicode="&#x301;" horiz-adv-x="0" 
d="M-398 777l70 133h224l-120 -133h-174z" />
    <glyph glyph-name="uni0302" unicode="&#x302;" horiz-adv-x="0" 
d="M-185 910l180 -136h-209l-81 61l-77 -61h-209l170 136h226z" />
    <glyph glyph-name="tildecomb" unicode="&#x303;" horiz-adv-x="0" 
d="M-48 940c0 -98 -39.999 -147.001 -119.999 -147.001c-22 0 -42.333 2.33301 -61 7s-41.334 11.334 -68.001 20.001c-33.333 8 -57.333 12 -72 12c-30.667 0 -46 -11 -46 -33h-131c0 98.667 40 148 120 148c19.333 0 38.5 -2.33301 57.5 -7s34.833 -9 47.5 -13
s20.667 -6.66699 24 -8c33.333 -8 57.333 -12 72 -12c31.333 0 47 11 47 33h130z" />
    <glyph glyph-name="uni0304" unicode="&#x304;" horiz-adv-x="0" 
d="M-515 778v132h437v-132h-437z" />
    <glyph glyph-name="uni0306" unicode="&#x306;" horiz-adv-x="0" 
d="M-51 924c0 -66 -22.832 -115.667 -68.499 -149s-104.834 -50 -177.501 -50c-74 0 -134 16.667 -180 50s-69 83 -69 149h137c0 -30.667 10.667 -56.5 32 -77.5s47.666 -31.5 78.999 -31.5c30.667 0 56.834 10.5 78.501 31.5s32.5 46.833 32.5 77.5h136z" />
    <glyph glyph-name="uni0307" unicode="&#x307;" horiz-adv-x="0" 
d="M-242.5 810.5c-18.333 18.333 -27.5 40.833 -27.5 67.5c0 26 9.16699 48 27.5 66s40.833 27 67.5 27c26 0 48.167 -9 66.5 -27s27.5 -40 27.5 -66c0 -26.667 -9.16699 -49.167 -27.5 -67.5s-40.5 -27.5 -66.5 -27.5c-26.667 0 -49.167 9.16699 -67.5 27.5z" />
    <glyph glyph-name="uni0308" unicode="&#x308;" horiz-adv-x="0" 
d="M-546 810.5c-18 18.333 -27 40.833 -27 67.5c0 26 9 48 27 66s40.333 27 67 27c26 0 48.167 -9 66.5 -27s27.5 -40 27.5 -66c0 -26.667 -9.16699 -49.167 -27.5 -67.5s-40.5 -27.5 -66.5 -27.5c-26.667 0 -49 9.16699 -67 27.5zM-280 810.5
c-18 18.333 -27 40.833 -27 67.5c0 26 9 48 27 66s40.333 27 67 27c26 0 48.167 -9 66.5 -27s27.5 -40 27.5 -66c0 -26.667 -9.16699 -49.167 -27.5 -67.5s-40.5 -27.5 -66.5 -27.5c-26.667 0 -49 9.16699 -67 27.5z" />
    <glyph glyph-name="uni030A" unicode="&#x30a;" horiz-adv-x="0" 
d="M-353 1016c14.667 24.667 34.501 44.333 59.501 59s52.167 22 81.5 22c28.667 0 55.5 -7.33301 80.5 -22s44.833 -34.5 59.5 -59.5s22 -51.833 22 -80.5c0 -29.333 -7.33301 -56.5 -22 -81.5s-34.334 -44.833 -59.001 -59.5s-51.667 -22 -81 -22s-56.5 7.33301 -81.5 22
s-44.833 34.5 -59.5 59.5s-22 52.167 -22 81.5s7.33301 56.333 22 81zM-260.499 886.999c13 -13.333 29.167 -20 48.5 -20c18.667 0 34.5 6.66699 47.5 20s19.5 29.333 19.5 48c0 18 -6.66699 33.667 -20 47s-29 20 -47 20c-18.667 0 -34.667 -6.5 -48 -19.5
s-20 -28.833 -20 -47.5s6.5 -34.667 19.5 -48z" />
    <glyph glyph-name="uni030B" unicode="&#x30b;" horiz-adv-x="0" 
d="M-504 777l70 133h140l-70 -133h-140zM-303 777l70 133h140l-70 -133h-140z" />
    <glyph glyph-name="uni030C" unicode="&#x30c;" horiz-adv-x="0" 
d="M-305 849l81 61h209l-180 -136h-226l-170 136h209z" />
    <glyph glyph-name="uni0312" unicode="&#x312;" horiz-adv-x="0" 
d="M-59 846h43v-124h-162v124c1.33301 26.667 9.83301 48.667 25.5 66s39.167 26 70.5 26h67v-48h-19c-11.333 0 -18.333 -2.66699 -21 -8s-4 -14 -4 -26v-10z" />
    <glyph glyph-name="uni0326" unicode="&#x326;" horiz-adv-x="0" 
d="M-177 -3h162v-124c-1.33301 -26.667 -9.83301 -48.667 -25.5 -66s-39.167 -26 -70.5 -26h-67v48h19c11.333 0 18.333 2.66699 21 8s4 14 4 26v10h-43v124z" />
    <glyph glyph-name="uni0327" unicode="&#x327;" horiz-adv-x="0" 
d="M-250 -42c38 0 72.832 -6.16797 104.499 -18.501s47.167 -36.166 46.5 -71.499c0 -45.333 -23.667 -75.833 -71 -91.5s-98.666 -23.5 -153.999 -23.5c-136.667 0 -205 41 -205 123h111c0 -20 10.167 -32.833 30.5 -38.5s37.833 -8.5 52.5 -8.5c16 0 33.667 2 53 6
s29 14.333 29 31c0 20 -25 30 -75 30h-51v202h129v-140z" />
    <glyph glyph-name="uni0328" unicode="&#x328;" horiz-adv-x="0" 
d="M-115 4c-35.333 0 -58.5 -5.99805 -69.5 -17.998s-16.5 -29 -16.5 -51s5.5 -39 16.5 -51s34.167 -18 69.5 -18v-43c-45.333 -1.33301 -81.166 1.5 -107.499 8.5s-45.333 18.667 -57 35s-17.5 39.166 -17.5 68.499s5.83301 52.166 17.5 68.499s30.667 28 57 35
s62.166 9.83301 107.499 8.5v-43z" />
    <glyph glyph-name="Alphatonos" unicode="&#x386;" horiz-adv-x="600" 
 />
    <glyph glyph-name="uni0400" unicode="&#x400;" horiz-adv-x="861" 
d="M750 288h-462v-113l546 4v-179h-793v740h793l1 -179h-547v-98h462v-175zM242 910h224l70 -133h-174z" />
    <glyph glyph-name="uni0401" unicode="&#x401;" horiz-adv-x="861" 
d="M215.5 796.5c-18.333 18.333 -27.5 40.5 -27.5 66.5s9.16699 48 27.5 66s40.5 27 66.5 27s48 -9 66 -27s27 -40 27 -66s-9 -48.167 -27 -66.5s-40 -27.5 -66 -27.5s-48.167 9.16699 -66.5 27.5zM516 796.5c-18 18.333 -27 40.5 -27 66.5s9 48 27 66s40.333 27 67 27
c26 0 48 -9 66 -27s27 -40 27 -66s-9 -48.167 -27 -66.5s-40 -27.5 -66 -27.5c-26.667 0 -49 9.16699 -67 27.5zM750 287h-462v-112l546 4v-179h-793v740h793l1 -179h-547v-97h462v-177z" />
    <glyph glyph-name="uni0402" unicode="&#x402;" horiz-adv-x="1030" 
d="M859 482c47.333 -20 84.165 -49.334 110.498 -88.001s39.5 -85 39.5 -139v-4c0 -50 -12.667 -93.833 -38 -131.5s-61.666 -67 -108.999 -88s-103.666 -31.5 -168.999 -31.5h-183v161h128c44.667 0 80.167 6 106.5 18s39.5 36.667 39.5 74
c0 38.667 -13.167 68.5 -39.5 89.5s-75.5 31.5 -147.5 31.5c-48 0 -86.333 -3.16699 -115 -9.5s-55 -14.166 -79 -23.499v-341h-247v604h-145v136h618v-136h-226v-134c70.667 28 167.334 42 290.001 42c63.333 0 118.666 -10 165.999 -30z" />
    <glyph glyph-name="uni0403" unicode="&#x403;" horiz-adv-x="780" 
d="M759 740v-175h-471v-565h-247v740h718zM268 777l70 133h224l-120 -133h-174z" />
    <glyph glyph-name="uni0404" unicode="&#x404;" horiz-adv-x="1003" 
d="M649 201.5c37.333 21.667 63.6641 53.168 78.9971 94.501h257c-14.667 -63.333 -43.334 -118.833 -86.001 -166.5s-97 -84.5 -163 -110.5s-140.333 -39 -223 -39c-98.667 0 -185.5 16.833 -260.5 50.5s-133 80 -174 139s-61.5 125.5 -61.5 199.5s21.833 140.667 65.5 200
s103.334 105.833 179.001 139.5s159.5 50.5 251.5 50.5c82.667 0 157.334 -13.167 224.001 -39.5s121.334 -63.333 164.001 -111s71 -103.5 85 -167.5h-256c-13.333 40 -40.833 71.5 -82.5 94.5s-86.167 34.5 -133.5 34.5c-48 0 -93.167 -11.333 -135.5 -34
s-72.166 -54.334 -89.499 -95.001h296v-142h-297c16.667 -40.667 46 -72.5 88 -95.5s88 -34.5 138 -34.5c52.667 0 97.667 10.833 135 32.5z" />
    <glyph glyph-name="uni0405" unicode="&#x405;" horiz-adv-x="948" 
d="M583 440c65.333 0 122.499 -4.49805 171.499 -13.498s90 -28.167 123 -57.5s49.5 -72 49.5 -128c0 -103.333 -45.833 -173.166 -137.5 -209.499s-194.5 -54.5 -308.5 -54.5c-113.333 0 -218.333 18.5 -315 55.5s-145 107.5 -145 211.5l255 1
c0 -46 20.833 -75.167 62.5 -87.5s90.5 -18.5 146.5 -18.5c52.667 0 97.834 7.66699 135.501 23s56.5 40.333 56.5 75v1c0 19.333 -11.667 33.666 -35 42.999s-48.333 15 -75 17s-58.667 3.33301 -96 4h-75c-72 0 -134.5 4.5 -187.5 13.5s-97.5 28.833 -133.5 59.5
s-54 76 -54 136c0 104 46.833 171.833 140.5 203.5s200.167 47.5 319.5 47.5c112 0 214.333 -18.333 307 -55s139 -107.334 139 -212.001h-251c0 33.333 -18.833 58.166 -56.5 74.499s-83.5 25.5 -137.5 27.5c-58 0 -107 -6.66699 -147 -20s-60 -34.333 -60 -63
c0 -30 20.333 -50 61 -60s86.667 -15 138 -15z" />
    <glyph glyph-name="uni0406" unicode="&#x406;" horiz-adv-x="329" 
d="M288 0h-247v740h247v-740z" />
    <glyph glyph-name="uni0407" unicode="&#x407;" horiz-adv-x="329" 
d="M288 0h-247v740h247v-740zM-41 810.5c-18 18.333 -27 40.833 -27 67.5c0 26 9 48 27 66s40.333 27 67 27c26 0 48.167 -9 66.5 -27s27.5 -40 27.5 -66c0 -26.667 -9.16699 -49.167 -27.5 -67.5s-40.5 -27.5 -66.5 -27.5c-26.667 0 -49 9.16699 -67 27.5zM225 810.5
c-18 18.333 -27 40.833 -27 67.5c0 26 9 48 27 66s40.333 27 67 27c26 0 48.167 -9 66.5 -27s27.5 -40 27.5 -66c0 -26.667 -9.16699 -49.167 -27.5 -67.5s-40.5 -27.5 -66.5 -27.5c-26.667 0 -49 9.16699 -67 27.5z" />
    <glyph glyph-name="uni0408" unicode="&#x408;" horiz-adv-x="821" 
d="M780 740v-444.998c0 -48 -10.833 -94 -32.5 -138s-61 -81.167 -118 -111.5s-134.833 -45.5 -233.5 -45.5c-93.333 0 -168 18.667 -224 56s-95.167 80.666 -117.5 129.999s-33.5 94.333 -33.5 135h232c0 -40.667 13 -75.667 39 -105s64.333 -44 115 -44
c38.667 0 70.667 11.167 96 33.5s38 52.166 38 89.499v445h239z" />
    <glyph glyph-name="uni0409" unicode="&#x409;" horiz-adv-x="1473" 
d="M802 278c-0.666992 -6 -1 -15 -1 -27zM1310 482c47.333 -20 84.168 -49.334 110.501 -88.001s39.5 -85 39.5 -139v-4c0 -49.333 -13.167 -93 -39.5 -131s-63.333 -67.5 -111 -88.5s-102.5 -31.5 -164.5 -31.5h-458v565h-244c-14.667 -87.333 -30 -162.166 -46 -224.499
s-38.667 -127.5 -68 -195.5c-30 -63.333 -71.833 -103.5 -125.5 -120.5s-95.667 -25.333 -126 -25s-47.5 0.5 -51.5 0.5v199c32 0 56.333 6.16699 73 18.5s28.667 29.5 36 51.5c43.333 141.333 71 298.333 83 471h716v-228h208h2c63.333 0 118.666 -10 165.999 -30z
M1179 165.999c17.333 4 31.332 12.833 41.999 26.5s16 34.5 16 62.5s-5.16699 48.667 -15.5 62s-23.666 21.5 -39.999 24.5s-38.833 4.5 -67.5 4.5h-1h-179v-185c82 0 131.667 -0.333008 149 -1h30c26.667 0 48.667 2 66 6z" />
    <glyph glyph-name="uni040A" unicode="&#x40a;" horiz-adv-x="1470" 
d="M796 273c-0.666992 -4.66699 -1 -11.667 -1 -21zM1304 482c47.333 -20 84.168 -49.333 110.501 -88s39.5 -85 39.5 -139v-4c0 -49.333 -13.167 -93 -39.5 -131s-63.333 -67.5 -111 -88.5s-102.5 -31.5 -164.5 -31.5h-456v283h-395v-283h-247v740h247v-263h395v263h246
v-228h207h2c63.333 0 118.666 -10 165.999 -30zM1173 166.5c18 4.33301 31.832 13.5 41.499 27.5s14.5 34.333 14.5 61c0 27.333 -4.83301 47.5 -14.5 60.5s-23.167 21.333 -40.5 25s-41.666 5.5 -72.999 5.5h-1h-171v-185c78 0 125.333 -0.333008 142 -1h30
c30 0 54 2.16699 72 6.5z" />
    <glyph glyph-name="uni040B" unicode="&#x40b;" horiz-adv-x="1018" 
d="M791.5 527.5c57.667 -23.667 104.833 -60.6689 141.5 -111.002s55 -113.166 55 -188.499v-228h-232v225c0 50.667 -17 90.834 -51 120.501s-82.333 44.5 -145 44.5c-60.667 0 -104.834 -13.5 -132.501 -40.5s-41.5 -67.5 -41.5 -121.5v-228h-231v604h-144v136h638v-136
h-263v-122c52.667 54 127.334 81 224.001 81c63.333 0 123.833 -11.833 181.5 -35.5z" />
    <glyph glyph-name="uni040C" unicode="&#x40c;" horiz-adv-x="884" 
d="M488 401l403 -401h-303l-300 310v-310h-247v740h247v-257l282 257h306zM325 777l70 133h224l-120 -133h-174z" />
    <glyph glyph-name="uni040D" unicode="&#x40d;" horiz-adv-x="985" 
d="M288 740v-459l410 459h246v-740h-246v460l-410 -460h-247v740h247zM324 910h224l70 -133h-174z" />
    <glyph glyph-name="uni040E" unicode="&#x40e;" horiz-adv-x="908" 
d="M922 740l-372 -628c-24 -44.667 -72.5 -75.167 -145.5 -91.5s-147.833 -23.833 -224.5 -22.5v181c36.667 0 62.834 2 78.501 6s24.667 9 27 15s3.16602 15.667 2.49902 29l-302 511h261l204 -372l210 372h261zM714 945c0 -66 -22.833 -115.667 -68.5 -149
s-104.834 -50 -177.501 -50c-74.667 0 -135.167 16.667 -181.5 50s-68.833 83 -67.5 149h140c0 -29.333 9.83301 -54.166 29.5 -74.499s45.834 -30.5 78.501 -30.5s58.667 10.167 78 30.5s29 45.166 29 74.499h140z" />
    <glyph glyph-name="uni040F" unicode="&#x40f;" horiz-adv-x="990" 
d="M701 175v565h248v-740h-351v-95h-206v95h-351v740h248v-565h412z" />
    <glyph glyph-name="uni0410" unicode="&#x410;" horiz-adv-x="1017" 
d="M1036 0h-249l-69 127h-419l-69 -127h-249l401 740h253zM509 514l-120 -220h239z" />
    <glyph glyph-name="uni0411" unicode="&#x411;" horiz-adv-x="959" 
d="M782.5 455.5c59 -17.667 101.333 -43.832 127 -78.499s38.5 -78.667 38.5 -132v-3c0 -72 -29.167 -130.333 -87.5 -175s-152.5 -67.334 -282.5 -68.001h-537v740h851v-163h-619v-94h274c98 0 176.5 -8.83301 235.5 -26.5zM660 189.502c24.667 11 37 33.167 37 66.5
c0 22 -5.83301 38.5 -17.5 49.5s-28.334 18 -50.001 21s-52.167 4.5 -91.5 4.5h-1h-264v-156c125.333 0 205.333 -0.666992 240 -2h25c56.667 0 97.334 5.5 122.001 16.5z" />
    <glyph glyph-name="uni0412" unicode="&#x412;" horiz-adv-x="1012" 
d="M947 329.5c28.667 -27.667 43 -67.1699 43 -118.503v-4c0 -75.333 -31.167 -128.5 -93.5 -159.5s-151.833 -46.833 -268.5 -47.5h-2h-39h-546v740h633c77.333 -0.666992 139 -16.667 185 -48s69 -75.666 69 -132.999v-4c0 -43.333 -9 -78.666 -27 -105.999
s-45 -47.666 -81 -60.999c56 -11.333 98.333 -30.833 127 -58.5zM631.5 452.497c15.667 1.66699 29.001 7.50195 40.001 17.502s16.5 26.667 16.5 50c0 21.333 -5.33301 36.666 -16 45.999s-24.334 15.166 -41.001 17.499s-41 3.5 -73 3.5h-1h-285v-136
c68.667 0 114 -0.333008 136 -1h48h102c33.333 0 57.833 0.833008 73.5 2.5zM675.001 170.499c18.667 2.33301 33.666 9.00195 44.999 20.002s17 28.5 17 52.5c0 23.333 -5.66699 40.166 -17 50.499s-26.333 16.666 -45 18.999s-46.667 3.5 -84 3.5h-1h-318v-148
c94 0 160.833 -0.166992 200.5 -0.5s66.834 -0.5 81.501 -0.5h37c37.333 0 65.333 1.16699 84 3.5z" />
    <glyph glyph-name="uni0413" unicode="&#x413;" horiz-adv-x="780" 
d="M759 740v-175h-471v-565h-247v740h718z" />
    <glyph glyph-name="uni0414" unicode="&#x414;" horiz-adv-x="1033" 
d="M919 180l99 0.000976562v-276h-231v95l-542 1v-96h-231v276h74c36 70 65 132.667 87 188s38.833 113.166 50.5 173.499s17.5 126.5 17.5 198.5h675zM458 563.001c-10.667 -64 -26.833 -125.333 -48.5 -184s-50.167 -125 -85.5 -199h365v382z" />
    <glyph glyph-name="uni0415" unicode="&#x415;" horiz-adv-x="861" 
d="M750 288h-462v-113l546 4v-179h-793v740h793l1 -179h-547v-98h462v-175z" />
    <glyph glyph-name="uni0416" unicode="&#x416;" horiz-adv-x="1429" 
d="M1033 401l404 -401h-304l-300 311v-311h-246v302l-292 -302h-303l403 401l-388 339h306l274 -250v250h246v-258l283 258h306z" />
    <glyph glyph-name="uni0417" unicode="&#x417;" horiz-adv-x="965" 
d="M943 245c-0.666992 -92.667 -42.6689 -160.337 -126.002 -203.004s-192 -64 -326 -64c-151.333 0 -267 25.833 -347 77.5s-120 129.5 -120 233.5h234c0 -51.333 22.667 -88.833 68 -112.5s100.333 -35.167 165 -34.5c56.667 -1.33301 105 6.33398 145 23.001
s60.333 43.334 61 80.001c0 18.667 -5 32.834 -15 42.501s-25.667 16.334 -47 20.001s-51.333 5.5 -90 5.5h-185v144h185c53.333 0 91.333 6.66699 114 20s34 29.666 34 48.999c0 24.667 -19.5 42.834 -58.5 54.501s-86.833 17.834 -143.5 18.501
c-64.667 0 -119.667 -6.83301 -165 -20.5s-68 -34.834 -68 -63.501h-234c0 96 48.5 161.167 145.5 195.5s204.167 51.5 321.5 51.5c71.333 0 137.833 -4.5 199.5 -13.5s115.834 -29.833 162.501 -62.5s70 -81 70 -145c0 -65.333 -40 -110 -120 -134
c86.667 -26 133.334 -79.333 140.001 -160v-2v0z" />
    <glyph glyph-name="uni0418" unicode="&#x418;" horiz-adv-x="985" 
d="M288 740v-459l410 459h246v-740h-246v460l-410 -460h-247v740h247z" />
    <glyph glyph-name="uni0419" unicode="&#x419;" horiz-adv-x="985" 
d="M311 774.5c-46 33 -68.667 82.833 -68 149.5h133c0 -30.667 10.833 -56.334 32.5 -77.001s49.167 -31 82.5 -31c32.667 0 59.834 10.333 81.501 31s32.5 46.334 32.5 77.001h133c0 -66 -22.833 -115.667 -68.5 -149s-104.834 -50 -177.501 -50
c-74.667 0 -135 16.5 -181 49.5zM288 281l410 459h246v-740h-246v460l-410 -460h-247v740h247v-459z" />
    <glyph glyph-name="uni041A" unicode="&#x41a;" horiz-adv-x="884" 
d="M488 401l403 -401h-303l-300 310v-310h-247v740h247v-257l282 257h306z" />
    <glyph glyph-name="uni041B" unicode="&#x41b;" horiz-adv-x="970" 
d="M929 740v-740.001h-247v565h-244c-14.667 -87.333 -30 -162.166 -46 -224.499s-38.667 -127.5 -68 -195.5c-30 -63.333 -71.833 -103.5 -125.5 -120.5s-95.667 -25.333 -126 -25s-47.5 0.5 -51.5 0.5v199c32 0 56.333 6.16699 73 18.5s28.667 29.5 36 51.5
c43.333 141.333 71 298.333 83 471h716z" />
    <glyph glyph-name="uni041C" unicode="&#x41c;" horiz-adv-x="1140" 
d="M1098 740v-740h-246v334l-163 -334h-227l-174 338v-338h-247v740h282l252 -509l248 509h275z" />
    <glyph glyph-name="uni041D" unicode="&#x41d;" horiz-adv-x="970" 
d="M288 477h395v263h246v-740h-246v283h-395v-283h-247v740h247v-263z" />
    <glyph glyph-name="uni041E" unicode="&#x41e;" horiz-adv-x="1009" 
d="M753.5 705.5c73.667 -33.667 131.333 -79.998 173 -138.998s62.5 -125.5 62.5 -199.5c0 -73.333 -20.833 -139.333 -62.5 -198s-99.167 -104.834 -172.5 -138.501s-155.666 -50.5 -246.999 -50.5c-88 0 -169.333 16.833 -244 50.5s-133.834 80 -177.501 139
s-65.5 124.833 -65.5 197.5c0 73.333 21.833 139.666 65.5 198.999s102.667 105.833 177 139.5s155.5 50.5 243.5 50.5c91.333 0 173.833 -16.833 247.5 -50.5zM614.499 191.002c34.333 16 62.1699 39.001 83.5029 69.001s32 65.667 32 107s-10.833 77.166 -32.5 107.499
s-49.834 53.333 -84.501 69s-70.667 23.5 -108 23.5c-38 0 -74 -8 -108 -24s-61.5 -39.167 -82.5 -69.5s-31.5 -65.833 -31.5 -106.5c0 -41.333 10.667 -77 32 -107s49.166 -53 83.499 -69s70.5 -24 108.5 -24c37.333 0 73.166 8 107.499 24z" />
    <glyph glyph-name="uni041F" unicode="&#x41f;" horiz-adv-x="990" 
d="M949 740v-740h-248v565h-412v-565h-248v740h908z" />
    <glyph glyph-name="uni0420" unicode="&#x420;" horiz-adv-x="936" 
d="M764.5 709c47.667 -20.667 84.668 -49.5 111.001 -86.5s39.5 -79.833 39.5 -128.5v-4c0 -80 -27.333 -141.833 -82 -185.5s-129.334 -65.5 -224.001 -65.5h-321v-239h-247v740h559c62 0 116.833 -10.333 164.5 -31zM633.501 417c17 2 31.166 8.33301 42.499 19
s17 28.334 17 53.001c0 25.333 -5.66699 43.666 -17 54.999s-26 18.333 -44 21s-43.333 4 -76 4h-33c-13.333 0 -36.666 -0.166992 -69.999 -0.5s-88.333 -0.5 -165 -0.5v-154h267h1c34.667 0 60.5 1 77.5 3z" />
    <glyph glyph-name="uni0421" unicode="&#x421;" horiz-adv-x="1011" 
d="M86.5 569c43.667 59.333 103.333 105.83 179 139.497s159.5 50.5 251.5 50.5c82.667 0 157.334 -13.167 224.001 -39.5s121.334 -63.333 164.001 -111s71 -103.5 85 -167.5h-256c-10 26.667 -26.833 49.834 -50.5 69.501s-50.167 34.5 -79.5 44.5s-58 15 -86 15
c-39.333 0 -77.5 -8 -114.5 -24s-67 -39.167 -90 -69.5s-34.5 -66.166 -34.5 -107.499s11.333 -77.166 34 -107.499s52.167 -53.333 88.5 -69s75.166 -23.5 116.499 -23.5c46 0 88.5 11 127.5 33s67.833 53.333 86.5 94h257
c-14.667 -63.333 -43.334 -118.833 -86.001 -166.5s-97 -84.5 -163 -110.5s-140.333 -39 -223 -39c-91.333 0 -174.833 17 -250.5 51s-135.5 80.667 -179.5 140s-66 125.333 -66 198c0 74 21.833 140.667 65.5 200z" />
    <glyph glyph-name="uni0422" unicode="&#x422;" horiz-adv-x="926" 
d="M26 540v200h874zM900 740v-201h-312v-539h-246v539h-316v201h874z" />
    <glyph glyph-name="uni0423" unicode="&#x423;" horiz-adv-x="908" 
d="M922 740l-372 -628c-24 -44.667 -72.5 -75.167 -145.5 -91.5s-147.833 -23.833 -224.5 -22.5v181c36.667 0 62.834 2 78.501 6s24.667 9 27 15s3.16602 15.667 2.49902 29l-302 511h261l204 -372l210 372h261z" />
    <glyph glyph-name="uni0424" unicode="&#x424;" horiz-adv-x="1364" 
d="M1289 216.5c-42.667 -45.667 -101.668 -81.668 -177.001 -108.001s-159.666 -39.5 -252.999 -39.5h-46v-69h-246v69h-39h-6h-1c-90 0 -174 13.333 -252 40s-140.5 62.834 -187.5 108.501s-70.5 96.167 -70.5 151.5c0 56 23.167 106.667 69.5 152s108.333 81.333 186 108
s161.5 40.334 251.5 41.001h49v70h246v-70h46c94 -0.666992 178.5 -14 253.5 -40s133.833 -61.833 176.5 -107.5s64 -96.834 64 -153.501c0 -56 -21.333 -106.833 -64 -152.5zM566.999 239.999l-0.00195312 258.999h-37c-65.333 0 -123.666 -10.167 -174.999 -30.5
s-77 -53.5 -77 -99.5c0 -45.333 25.833 -78.166 77.5 -98.499s109.834 -30.5 174.501 -30.5h37zM855.997 239.998c65.333 0 121 10 167 30s69 53 69 99c0 46.667 -23.167 80 -69.5 100s-101.833 30 -166.5 30h-43v-259h43z" />
    <glyph glyph-name="uni0425" unicode="&#x425;" horiz-adv-x="932" 
d="M648 740h278l-289 -373l289 -367h-278l-182 229l-182 -229h-278l290 367l-290 373h278l182 -230z" />
    <glyph glyph-name="uni0426" unicode="&#x426;" horiz-adv-x="1072" 
d="M696 740h247v-562h118v-308h-247v130h-773v740h247v-562h408v562z" />
    <glyph glyph-name="uni0427" unicode="&#x427;" horiz-adv-x="900" 
d="M628 740h231.001v-740h-231v258c-52.667 -54 -127.334 -81 -224.001 -81c-63.333 0 -123.833 11.833 -181.5 35.5s-104.834 60.667 -141.501 111s-55 113.5 -55 189.5v227h232v-224c0 -50.667 17 -91 51 -121s82.333 -45 145 -45c60.667 0 104.834 13.667 132.501 41
s41.5 68 41.5 122v227z" />
    <glyph glyph-name="uni0428" unicode="&#x428;" horiz-adv-x="1449" 
d="M41 740h247h-247zM847 178h314v562h246v-740h-1366v740h247v-562h313v562h246v-562z" />
    <glyph glyph-name="uni0429" unicode="&#x429;" horiz-adv-x="1544" 
d="M1161 740h246v-562h118v-308h-246v130h-1238v740h247v-562h313v562h246v-562h314v562z" />
    <glyph glyph-name="uni042A" unicode="&#x42a;" horiz-adv-x="1062" 
d="M383 273c-0.666992 -4.66699 -1 -11.667 -1 -21zM753 511c88 -4 158 -28.333 210 -73s78 -105.667 78 -183v-4c0 -49.333 -13.167 -93 -39.5 -131s-63.333 -67.5 -111 -88.5s-102.5 -31.5 -164.5 -31.5h-537v567h-178v173h424v-228h318v-1zM788 179
c20.667 12.667 30.999 38.334 30.999 77.001c0 27.333 -5 47.666 -15 60.999s-23.5 22 -40.5 26s-39.833 6 -68.5 6h-1h-259v-188c78.667 0 133.834 -0.166992 165.501 -0.5s53.167 -0.5 64.5 -0.5h30c41.333 0 72.333 6.33301 93 19z" />
    <glyph glyph-name="uni042B" unicode="&#x42b;" horiz-adv-x="1216" 
d="M578 512c63.333 0 118.668 -10 166.001 -30s84.166 -49.333 110.499 -88s39.5 -85 39.5 -139v-4c0 -49.333 -13.167 -93 -39.5 -131s-63.333 -67.5 -111 -88.5s-102.5 -31.5 -164.5 -31.5h-538v740h247v-228h290zM929.002 0v740h246v-740h-246zM640.502 179
c20.333 12.667 30.501 38.334 30.501 77.001c0 27.333 -5 47.666 -15 60.999s-23.333 22 -40 26s-39.334 6 -68.001 6h-1h-259v-188c78.667 0 133.834 -0.166992 165.501 -0.5s53.167 -0.5 64.5 -0.5h30c41.333 0 72.166 6.33301 92.499 19z" />
    <glyph glyph-name="uni042C" unicode="&#x42c;" horiz-adv-x="915" 
d="M744 482c47.333 -20 84.168 -49.333 110.501 -88s39.5 -85 39.5 -139v-4c0 -49.333 -13.167 -93 -39.5 -131s-63.333 -67.5 -111 -88.5s-102.5 -31.5 -164.5 -31.5h-538v740h247v-228h288h2c63.333 0 118.666 -10 165.999 -30zM640.502 179
c20.333 12.667 30.501 38.334 30.501 77.001c0 27.333 -5 47.666 -15 60.999s-23.333 22 -40 26s-39.334 6 -68.001 6h-1h-259v-188c78.667 0 133.834 -0.166992 165.501 -0.5s53.167 -0.5 64.5 -0.5h30c41.333 0 72.166 6.33301 92.499 19z" />
    <glyph glyph-name="uni042D" unicode="&#x42d;" horiz-adv-x="1003" 
d="M925 169.5c-40.667 -59 -98.498 -105.334 -173.498 -139.001s-161.833 -50.5 -260.5 -50.5c-82.667 0 -157.167 13 -223.5 39s-120.833 62.833 -163.5 110.5s-71.334 103.167 -86.001 166.5h257c15.333 -41.333 41.666 -72.833 78.999 -94.5s82.666 -32.5 135.999 -32.5
c49.333 0 95 11.5 137 34.5s71.333 54.833 88 95.5h-297v142h296c-17.333 40.667 -47 72.334 -89 95.001s-87 34 -135 34c-47.333 0 -92 -11.5 -134 -34.5s-69.333 -54.5 -82 -94.5h-256c13.333 64 41.333 119.833 84 167.5s97.334 84.667 164.001 111
s141.667 39.5 225 39.5c92 0 175.667 -16.833 251 -50.5s134.833 -80.167 178.5 -139.5s65.5 -126 65.5 -200s-20.333 -140.5 -61 -199.5z" />
    <glyph glyph-name="uni042E" unicode="&#x42e;" horiz-adv-x="1352" 
d="M1095.5 709.5c73 -33.667 130.499 -79.999 172.499 -138.999s63 -125.5 63 -199.5c0 -73.333 -20.833 -139.333 -62.5 -198s-99.167 -104.834 -172.5 -138.501s-155.666 -50.5 -246.999 -50.5c-74.667 0 -145.5 12.333 -212.5 37s-124.333 59.167 -172 103.5
s-80.5 94.833 -98.5 151.5h-79v-271h-246v740h246v-261h85c20.667 54 54.5 102 101.5 144s103.167 74.5 168.5 97.5s134.333 34.5 207 34.5c91.333 0 173.5 -16.833 246.5 -50.5zM956.999 194.501c34 15.667 61.667 38.668 83 69.001s32 66.166 32 107.499
c0 40.667 -10.667 76.167 -32 106.5s-49 53.5 -83 69.5s-70 24 -108 24c-38.667 0 -76 -8 -112 -24s-65.5 -39.167 -88.5 -69.5s-34.5 -65.833 -34.5 -106.5s11.667 -76.167 35 -106.5s53 -53.5 89 -69.5s73 -24 111 -24s74 7.83301 108 23.5z" />
    <glyph glyph-name="uni042F" unicode="&#x42f;" horiz-adv-x="927" 
d="M682 466v-55c0.666992 42.667 0.666992 61 0 55zM886 1l-235 0.000976562v239h-161l-205 -239h-279l215 250c-65.333 14 -116.5 41.667 -153.5 83s-55.5 93.666 -55.5 156.999v4c0 48.667 13.167 91.5 39.5 128.5s63.333 65.833 111 86.5s102.5 31 164.5 31h559v-740z
M317.5 568.001c-17.667 -2.66699 -32 -10 -43 -22s-16.5 -31 -16.5 -57c0 -24.667 5.5 -42.5 16.5 -53.5s25.333 -17.833 43 -20.5s43.5 -4 77.5 -4h1h255v159c-100 0 -173.333 0.666992 -220 2h-36c-34 0 -59.833 -1.33301 -77.5 -4z" />
    <glyph glyph-name="uni0430" unicode="&#x430;" horiz-adv-x="786" 
d="M646 521c76 -32 114.001 -88.333 114.001 -169v-352h-218l-17 71v5c-16.667 -30 -51.834 -52 -105.501 -66s-112.167 -21 -175.5 -21c-50.667 0 -101.334 11.167 -152.001 33.5s-76 69.166 -76 140.499c0 112.667 73.667 169 221 169c94.667 0 160.667 0.833008 198 2.5
s62 5 74 10s18.333 14.167 19 27.5v13c-0.666992 22 -15.167 38.167 -43.5 48.5s-60.5 15.5 -96.5 15.5c-37.333 -0.666992 -69.166 -7.66699 -95.499 -21s-39.5 -33.666 -39.5 -60.999h-231c0 50.667 20 91.167 60 121.5s87.833 51.333 143.5 63s110.167 17.5 163.5 17.5
c95.333 0 181 -16 257 -48zM486.001 168c25.333 22 39 50 41 84v14c-25.333 -10.667 -65.666 -16 -120.999 -16c-57.333 0 -97.5 -4 -120.5 -12s-34.833 -22.667 -35.5 -44c2 -20 12.5 -34.833 31.5 -44.5s49.833 -14.5 92.5 -14.5c49.333 0 86.666 11 111.999 33z" />
    <glyph glyph-name="uni0431" unicode="&#x431;" horiz-adv-x="816" 
d="M787 252l-0.00195312 -1.00098c-0.666992 -89.333 -35.167 -156.166 -103.5 -200.499s-158.166 -66.5 -269.499 -66.5c-124 0 -218.667 23.333 -284 70s-104.666 123.667 -117.999 231c-0.666992 10 -1 25 -1 45c0 108.667 21 190.5 63 245.5s92.833 90.333 152.5 106
s129.167 23.5 208.5 23.5h2c28.667 -1.33301 62.5 0 101.5 4s58.5 14.333 58.5 31l203 -1c0 -58 -17.167 -101.167 -51.5 -129.5s-77.166 -46.333 -128.499 -54s-115.666 -11.5 -192.999 -11.5c-90.667 0 -149.334 -33.667 -176.001 -101c32.667 14.667 69 24.5 109 29.5
s83 7.5 129 7.5c89.333 0 161.166 -19.833 215.499 -59.5s81.833 -95.5 82.5 -167.5v-1zM517.498 169.499c27.667 13.667 41.5 41.834 41.5 84.501c0 40 -13.333 68.167 -40 84.5s-59.667 24.5 -99 24.5c-57.333 -0.666992 -99.5 -7.33398 -126.5 -20.001
s-42.833 -32 -47.5 -58c-0.666992 -5.33301 -1 -12.666 -1 -21.999c0 -37.333 10.5 -64.333 31.5 -81s42.667 -26.334 65 -29.001s50.5 -4 84.5 -4c33.333 0 63.833 6.83301 91.5 20.5z" />
    <glyph glyph-name="uni0432" unicode="&#x432;" horiz-adv-x="808" 
d="M250 194c-0.666992 -4 -1 -10 -1 -18zM764.5 241.5c21.667 -20.333 32.502 -49.5 32.502 -87.5v-2c0 -53.333 -23.833 -91.833 -71.5 -115.5s-119.5 -36.167 -215.5 -37.5h-2h-25h-457v546h513v-1h2c67.333 0 119.166 -11.333 155.499 -34s54.5 -55.667 54.5 -99v-3
c0 -32 -6.83301 -58 -20.5 -78s-34.834 -35 -63.501 -45c43.333 -8.66699 75.833 -23.167 97.5 -43.5zM484.002 331c12.667 1.33301 23.332 5.66699 31.999 13s13 19.333 13 36c0 15.333 -4.16699 26.5 -12.5 33.5s-19 11.333 -32 13s-31.833 2.5 -56.5 2.5h-178v-99
c80 0 128.833 -0.166992 146.5 -0.5s27.167 -0.5 28.5 -0.5h3c24.667 0 43.334 0.666992 56.001 2zM518.5 128.501c15.667 1.66699 28.5 6.16699 38.5 13.5s15 19.333 15 36s-5 28.667 -15 36s-22.833 11.833 -38.5 13.5s-38.167 2.5 -67.5 2.5h-1h-200v-104h201
c29.333 0 51.833 0.833008 67.5 2.5z" />
    <glyph glyph-name="uni0433" unicode="&#x433;" horiz-adv-x="573" 
d="M558 545v-156h-287v-389h-245v545h532z" />
    <glyph glyph-name="uni0434" unicode="&#x434;" horiz-adv-x="999" 
d="M889 161h98.999v-257h-231v95l-515 1v-96h-231v257h93c22 33.333 38.333 66.333 49 99s17.834 70 21.501 112s5.5 99.667 5.5 173h708zM404.999 392c-1.33301 -53.333 -5.66797 -97.333 -13.001 -132s-19.666 -67.667 -36.999 -99h304v230z" />
    <glyph glyph-name="uni0435" unicode="&#x435;" horiz-adv-x="791" 
d="M778 250l-533 0.000976562c4.66699 -42 20.5 -76.5 47.5 -103.5s63.833 -40.5 110.5 -40.5c38 0 71.833 9.16699 101.5 27.5s44.5 46.5 44.5 84.5h229c0 -77.333 -33.167 -136.333 -99.5 -177s-158.5 -61 -276.5 -61c-72.667 0 -138.667 12.333 -198 37
s-106.333 59.5 -141 104.5s-52 96.5 -52 154.5c0 58.667 17.167 110.5 51.5 155.5s81.333 79.667 141 104s125.834 36.5 198.501 36.5c74.667 0 140.167 -12 196.5 -36s100.166 -57.833 131.499 -101.5s47.333 -94.834 48 -153.501v-5h2h-2v-26zM301 422.001
c-23.333 -18.667 -39.333 -44.667 -48 -78h290c-7.33301 33.333 -22 59.333 -44 78s-54.333 28 -97 28c-44 0 -77.667 -9.33301 -101 -28z" />
    <glyph glyph-name="uni0436" unicode="&#x436;" horiz-adv-x="1173" 
d="M916 301l266 -301h-258l-223 248v-248h-230v246l-222 -246h-258l266 301l-238 244h261l191 -193v193h230v-194l192 194h261z" />
    <glyph glyph-name="uni0437" unicode="&#x437;" horiz-adv-x="758" 
d="M747 186c-0.666992 -68 -33.666 -118.501 -98.999 -151.501s-152.666 -49.5 -261.999 -49.5c-79.333 0 -147.333 11.333 -204 34s-99.334 52.334 -128.001 89.001s-43 75 -43 115h227c0 -30.667 14.333 -53.667 43 -69s63.667 -23.666 105 -24.999
c36.667 -2 67.834 1.66699 93.501 11s38.5 25.333 38.5 48c-0.666992 14.667 -9.33398 25 -26.001 31s-44.334 9 -83.001 9h-94v110h94c41.333 0 69.333 3.33301 84 10s22 16 22 28c0 17.333 -12.5 30.166 -37.5 38.499s-55.5 12.5 -91.5 12.5
c-41.333 0 -76.333 -4.66699 -105 -14s-43 -24.333 -43 -45h-227c0 48.667 20.5 87.5 61.5 116.5s90 49.333 147 61s112.5 17.5 166.5 17.5c52.667 0 105 -5.33301 157 -16s96.333 -29.5 133 -56.5s55 -63.833 55 -110.5c0 -42.667 -26.333 -73 -79 -91
c63.333 -18.667 95 -52.667 95 -102v-1v0z" />
    <glyph glyph-name="uni0438" unicode="&#x438;" 
d="M249 231l291 314h230v-545h-230v315l-291 -315h-223v545h223v-314z" />
    <glyph glyph-name="uni0439" unicode="&#x439;" 
d="M235 602c-42.667 30.667 -63.998 76.667 -63.998 138h131c0 -26 9 -47.167 27 -63.5s41.333 -24.5 70 -24.5c29.333 0 53.333 8.16699 72 24.5s28 37.5 28 63.5h131c0 -61.333 -21.333 -107.333 -64 -138s-97.334 -46 -164.001 -46
c-68.667 0 -124.334 15.333 -167.001 46zM249.002 231l291 314h230v-545h-230v315l-291 -315h-223v545h223v-314z" />
    <glyph glyph-name="uni043A" unicode="&#x43a;" horiz-adv-x="771" 
d="M494 301l285 -301h-268l-255 253v-253h-230v545h230v-199l224 199h271z" />
    <glyph glyph-name="uni043B" unicode="&#x43b;" horiz-adv-x="826" 
d="M800 543l-0.000976562 -543h-230v388h-204c-6.66699 -81.333 -13.667 -140.833 -21 -178.5s-18.666 -69.167 -33.999 -94.5c-26.667 -46 -62.667 -77.167 -108 -93.5s-90.666 -24.5 -135.999 -24.5c-16 0 -29.667 0.666992 -41 2v170c25.333 0 44.166 2.83301 56.499 8.5
s21 13 26 22s10.833 23.833 17.5 44.5c10 35.333 16.167 71 18.5 107s3.5 89 3.5 159v33h652z" />
    <glyph glyph-name="uni043C" unicode="&#x43c;" horiz-adv-x="1081" 
d="M1054 545v-545h-230v278l-174 -278h-210l-184 278v-278h-230v545h263l256 -386l256 386h253z" />
    <glyph glyph-name="uni043D" unicode="&#x43d;" horiz-adv-x="783" 
d="M527 348v197h229v-545h-229v203h-279v-203h-222v545h222v-197h279z" />
    <glyph glyph-name="uni043E" unicode="&#x43e;" 
d="M601 530c58 -25.333 103.334 -60.5 136.001 -105.5s49 -95.5 49 -151.5c0 -55.333 -16.5 -105.5 -49.5 -150.5s-78.333 -80.167 -136 -105.5s-122.5 -38 -194.5 -38c-69.333 0 -134.333 12.833 -195 38.5s-109.167 61 -145.5 106s-54.5 94.833 -54.5 149.5
c0 55.333 18.167 105.5 54.5 150.5s84.666 80.333 144.999 106s125.5 38.5 195.5 38.5c72 0 137 -12.667 195 -38zM480.501 139c23 11.333 41.5 28.502 55.5 51.502s21 50.5 21 82.5s-7 59.5 -21 82.5s-32.5 40.167 -55.5 51.5s-47.833 17 -74.5 17
c-26 0 -51.5 -5.83301 -76.5 -17.5s-45.5 -28.834 -61.5 -51.501s-24 -50 -24 -82s8 -59.333 24 -82s36.5 -39.834 61.5 -51.501s50.5 -17.5 76.5 -17.5c26.667 0 51.5 5.66699 74.5 17z" />
    <glyph glyph-name="uni043F" unicode="&#x43f;" horiz-adv-x="770" 
d="M26 545h718v-545h-230v386h-258v-386h-230v545z" />
    <glyph glyph-name="uni0440" unicode="&#x440;" horiz-adv-x="796" 
d="M779 260c-1.33301 -47.333 -13.1689 -92.332 -35.502 -134.999s-53.5 -77.167 -93.5 -103.5s-85.333 -39.5 -136 -39.5c-115.333 0 -201.333 26 -258 78v-250h-230v735h211l13 -70c56 57.333 144 84.666 264 81.999c51.333 0 96.833 -12.667 136.5 -38
s70.834 -60 93.501 -104s34.334 -93.333 35.001 -148v-3v-4zM507.497 161.501c25.667 29 39.166 63.5 40.499 103.5c-1.33301 46 -14.5 83.833 -39.5 113.5s-61.5 44.5 -109.5 44.5c-27.333 0 -51.833 -6.83301 -73.5 -20.5s-38.667 -32 -51 -55s-18.5 -47.5 -18.5 -73.5v-2
c0 -46.667 13.167 -84 39.5 -112s60.833 -42 103.5 -42c46.667 0 82.834 14.5 108.501 43.5z" />
    <glyph glyph-name="uni0441" unicode="&#x441;" horiz-adv-x="764" 
d="M61 420.5c33.333 45 78.9971 80.167 136.997 105.5s122 38 192 38c66.667 0 125.5 -10.167 176.5 -30.5s92.167 -48.833 123.5 -85.5s52 -79 62 -127h-230c-7.33301 30 -22.666 54 -45.999 72s-51.666 27 -84.999 27c-43.333 0 -78.666 -13.833 -105.999 -41.5
s-41 -64.167 -41 -109.5c0 -44 13.333 -80.167 40 -108.5s61.667 -42.5 105 -42.5c34 0 62.667 9 86 27s38.666 41.667 45.999 71h230c-7.33301 -45.333 -27.333 -86.333 -60 -123s-75.167 -65.667 -127.5 -87s-110.166 -32 -173.499 -32c-69.333 0 -133 12.833 -191 38.5
s-103.833 61 -137.5 106s-50.5 95.167 -50.5 150.5c0 56 16.667 106.5 50 151.5z" />
    <glyph glyph-name="uni0442" unicode="&#x442;" horiz-adv-x="776" 
d="M754 545v-170h-249v-375h-230v375h-252v170h731z" />
    <glyph glyph-name="uni0443" unicode="&#x443;" horiz-adv-x="876" 
d="M868 545l-336 -668.002c-22 -44 -64.5 -72.333 -127.5 -85s-133.833 -19 -212.5 -19v183c38 0 64.333 2.33301 79 7s22 11.334 22 20.001c0 2.66699 -1.33301 7.33398 -4 14.001l-281 548h246l186 -403l182 403h246z" />
    <glyph glyph-name="uni0444" unicode="&#x444;" horiz-adv-x="1121" 
d="M1053 125.5c-37.333 -43 -88.834 -76.9971 -154.501 -101.997s-139.5 -37.5 -221.5 -37.5v-1h-5v-150h-230v150h-6v1c-75.333 0.666992 -145.666 13.5 -210.999 38.5s-117.333 59 -156 102s-58 90.833 -58 143.5c0 51.333 18.5 98.166 55.5 140.499
s86.667 76.166 149 101.499s129.833 39.333 202.5 42v1h24v185h230v-185h5c82 -0.666992 155.833 -13.334 221.5 -38.001s117.167 -58.5 154.5 -101.5s56 -91.5 56 -145.5c0 -53.333 -18.667 -101.5 -56 -144.5zM269.499 199.003c21 -18.667 47 -32.332 78 -40.999
s62.167 -13 93.5 -13h1v250h-1c-32 0 -63.333 -4.16699 -94 -12.5s-56.5 -21.833 -77.5 -40.5s-31.5 -42.667 -31.5 -72c0 -28.667 10.5 -52.334 31.5 -71.001zM675.999 145.005c53.333 0 100.5 10.333 141.5 31s61.5 52 61.5 94c0 42.667 -20.333 74.167 -61 94.5
s-88 30.5 -142 30.5h-4v-250h4z" />
    <glyph glyph-name="uni0445" unicode="&#x445;" horiz-adv-x="816" 
d="M563 545h261l-246 -275l246 -270h-261l-155 169l-156 -169h-261l247 270l-247 275h261l156 -170z" />
    <glyph glyph-name="uni0446" unicode="&#x446;" horiz-adv-x="873" 
d="M771 545v-385h93v-273h-230v113h-608v545h230v-385h285v385h230z" />
    <glyph glyph-name="uni0447" unicode="&#x447;" horiz-adv-x="776" 
d="M750 545l-0.000976562 -544.998h-230v187c-39.333 -41.333 -96.333 -62 -171 -62c-215.333 0 -323 104.667 -323 314v106h230v-111c0 -38.667 3 -69.834 9 -93.501s18.667 -42.334 38 -56.001s48.333 -20.5 87 -20.5c40.667 0 70.334 6.83301 89.001 20.5
s30.167 31.167 34.5 52.5s6.5 52.333 6.5 93v115h230z" />
    <glyph glyph-name="uni0448" unicode="&#x448;" horiz-adv-x="1189" 
d="M932 160v385h230v-545h-1136v545h230v-385h223v385h231v-385h222z" />
    <glyph glyph-name="uni0449" unicode="&#x449;" horiz-adv-x="1265" 
d="M1162 545v-415h94v-240h-233v110h-997v545h230v-385h223v385h231v-385h222v385h230z" />
    <glyph glyph-name="uni044A" unicode="&#x44a;" horiz-adv-x="888" 
d="M807.5 352c46.333 -34 69.501 -84.334 69.501 -151.001v-3c0 -63.333 -18.5 -112.166 -55.5 -146.499s-100.167 -51.5 -189.5 -51.5c-18.667 -0 -32.334 0.333008 -41.001 1v-1h-449l-2 375h-132v170h361l1 -142h218h2c98.667 0 171.167 -17 217.5 -51zM622.001 134.999
c14.667 2.66699 27.001 9.33203 37.001 19.999s15 27.334 15 50.001c0 23.333 -5.16699 40 -15.5 50s-22.5 15.833 -36.5 17.5s-35.667 2.5 -65 2.5h-1h-186l1 -143c99.333 0 154.666 -0.333008 165.999 -1h25c25.333 0 45.333 1.33301 60 4z" />
    <glyph glyph-name="uni044B" unicode="&#x44b;" horiz-adv-x="1051" 
d="M694.5 352c46.333 -34 69.501 -84.334 69.501 -151.001v-3c0 -63.333 -18.5 -112.166 -55.5 -146.499s-100.167 -51.5 -189.5 -51.5c-18.667 -0 -32.334 0.333008 -41.001 1v-1h-449l-3 545h230l1 -142h218h2c98.667 0 171.167 -17 217.5 -51zM794.001 -0.000976562v545
h230v-545h-230zM510.001 134.999c14.667 2.66699 27 9.33203 37 19.999s15 27.334 15 50.001c0 23.333 -5.16699 40 -15.5 50s-22.5 15.833 -36.5 17.5s-35.667 2.5 -65 2.5h-1h-187l1 -143c99.333 0 155 -0.333008 167 -1h25c25.333 0 45.333 1.33301 60 4z" />
    <glyph glyph-name="uni044C" unicode="&#x44c;" horiz-adv-x="779" 
d="M694.5 352c46.333 -34 69.501 -84.334 69.501 -151.001v-3c0 -63.333 -18.5 -112.166 -55.5 -146.499s-100.167 -51.5 -189.5 -51.5c-18.667 -0 -32.334 0.333008 -41.001 1v-1h-449l-3 545h230l1 -142h218h2c98.667 0 171.167 -17 217.5 -51zM510.001 134.999
c14.667 2.66699 27 9.33203 37 19.999s15 27.334 15 50.001c0 23.333 -5.16699 40 -15.5 50s-22.5 15.833 -36.5 17.5s-35.667 2.5 -65 2.5h-1h-187l1 -143c99.333 0 155 -0.333008 167 -1h25c25.333 0 45.333 1.33301 60 4z" />
    <glyph glyph-name="uni044D" unicode="&#x44d;" horiz-adv-x="767" 
d="M565.5 526c57.667 -25.333 103.163 -60.499 136.496 -105.499s50 -95.5 50 -151.5c0 -55.333 -16.833 -105.5 -50.5 -150.5s-79.334 -80.333 -137.001 -106s-121.167 -38.5 -190.5 -38.5c-63.333 0 -121.166 10.667 -173.499 32s-95 50.333 -128 87
s-53.167 77.667 -60.5 123h231c6.66699 -30 21.834 -53.833 45.501 -71.5s52.834 -26.5 87.501 -26.5c31.333 0 58.666 8 81.999 24s40 37.667 50 65h-156v126h156c-11.333 27.333 -28.666 48.666 -51.999 63.999s-51 23 -83 23c-33.333 0 -61.666 -9 -84.999 -27
s-38.666 -42 -45.999 -72h-231c10.667 48 31.667 90.333 63 127s72.5 65.167 123.5 85.5s109.833 30.5 176.5 30.5c70 0 133.833 -12.667 191.5 -38z" />
    <glyph glyph-name="uni044E" unicode="&#x44e;" horiz-adv-x="1086" 
d="M890.5 530c57.667 -25.333 102.834 -60.499 135.501 -105.499s49 -95.5 49 -151.5c0 -55.333 -16.333 -105.5 -49 -150.5s-77.834 -80.167 -135.501 -105.5s-122.5 -38 -194.5 -38c-60 0 -117.167 9.83301 -171.5 29.5s-100.333 47.167 -138 82.5
s-62.834 75.333 -75.501 120h-55v-211h-230v546h230v-185h63c16.667 40.667 43.834 76.667 81.501 108s82.167 55.666 133.5 72.999s105.333 26 162 26c72 0 136.833 -12.667 194.5 -38zM770.5 140.001c23 12 41.332 29.333 54.999 52s20.5 49.667 20.5 81
c0 46.667 -14.333 83.5 -43 110.5s-64.334 40.5 -107.001 40.5c-26 0 -51.333 -6 -76 -18s-45 -29.5 -61 -52.5s-24 -49.833 -24 -80.5s7.83301 -57.5 23.5 -80.5s35.834 -40.5 60.501 -52.5s50.334 -18 77.001 -18s51.5 6 74.5 18z" />
    <glyph glyph-name="uni044F" unicode="&#x44f;" horiz-adv-x="806" 
d="M561 1l-1 139h-140l-153 -139h-245l169 155c-56 14 -99.667 36.833 -131 68.5s-47 71.167 -47 118.5v4c0 39.333 13.167 74 39.5 104s63.333 53.333 111 70s102.5 25 164.5 25h450l2 -545h-219zM306.5 406c-19.667 -2 -35.5 -7.83301 -47.5 -17.5s-18 -25.167 -18 -46.5
c0 -20 6 -34.5 18 -43.5s27.833 -14.5 47.5 -16.5s49.167 -3 88.5 -3h1h164v129c-73.333 0 -117.333 0.333008 -132 1h-33c-39.333 0 -68.833 -1 -88.5 -3z" />
    <glyph glyph-name="uni0450" unicode="&#x450;" horiz-adv-x="791" 
d="M778 250l-533 0.000976562c4.66699 -42 20.5 -76.5 47.5 -103.5s63.833 -40.5 110.5 -40.5c38 0 71.833 9.16699 101.5 27.5s44.5 46.5 44.5 84.5h229c0 -77.333 -33.167 -136.333 -99.5 -177s-158.5 -61 -276.5 -61c-72.667 0 -138.667 12.333 -198 37
s-106.333 59.5 -141 104.5s-52 96.5 -52 154.5c0 58.667 17.167 110.5 51.5 155.5s81.333 79.667 141 104s125.834 36.5 198.501 36.5c74.667 0 140.167 -12 196.5 -36s100.166 -57.833 131.499 -101.5s47.333 -94.834 48 -153.501v-5h2h-2v-26zM301 422.001
c-23.333 -18.667 -39.333 -44.667 -48 -78h290c-7.33301 33.333 -22 59.333 -44 78s-54.333 28 -97 28c-44 0 -77.667 -9.33301 -101 -28zM192 730.001h224l70 -133h-174z" />
    <glyph glyph-name="uni0451" unicode="&#x451;" horiz-adv-x="791" 
d="M209.5 615c-15.667 15.333 -23.5 34.333 -23.5 57c0 22 7.83301 40.667 23.5 56s34.834 23 57.501 23c21.333 0 39.833 -7.66699 55.5 -23s23.5 -34 23.5 -56c0 -22.667 -7.66699 -41.667 -23 -57s-34 -23 -56 -23c-22.667 0 -41.834 7.66699 -57.501 23zM468 615
c-15.333 15.333 -23 34.333 -23 57c0 22 7.66699 40.667 23 56s34 23 56 23c22.667 0 41.667 -7.66699 57 -23s23 -34 23 -56c0 -22.667 -7.66699 -41.667 -23 -57s-34.333 -23 -57 -23c-22 0 -40.667 7.66699 -56 23zM778 250h-533.001c4.66699 -42 20.5 -76.5 47.5 -103.5
s63.833 -40.5 110.5 -40.5c38 0 71.833 9.16699 101.5 27.5s44.5 46.5 44.5 84.5h229c0 -77.333 -33.167 -136.333 -99.5 -177s-158.5 -61 -276.5 -61c-72.667 0 -138.667 12.333 -198 37s-106.333 59.5 -141 104.5s-52 96.5 -52 154.5c0 58.667 17.167 110.5 51.5 155.5
s81.333 79.667 141 104s125.834 36.5 198.501 36.5c72 0 136.333 -12 193 -36s101.167 -58 133.5 -102s48.833 -95 49.5 -153v-5h2h-2v-26zM300.999 422c-23.333 -18.667 -39.333 -44.667 -48 -78h290c-7.33301 33.333 -22 59.333 -44 78s-54.333 28 -97 28
c-44 0 -77.667 -9.33301 -101 -28z" />
    <glyph glyph-name="uni0452" unicode="&#x452;" horiz-adv-x="807" 
d="M723.5 423c46.333 -53.333 69.5 -139.331 69.5 -257.998v-170c0 -69.333 -14.333 -122.833 -43 -160.5s-72.167 -63.667 -130.5 -78s-137.5 -21.5 -237.5 -21.5v164c48.667 0 84 1.33301 106 4s40 11.167 54 25.5s21 38.166 21 71.499v162c0 44 -2.5 79.667 -7.5 107
s-16.5 49.666 -34.5 66.999s-45.333 26 -82 26c-38 0 -66.5 -9.66699 -85.5 -29s-31.167 -42.833 -36.5 -70.5s-8 -60.167 -8 -97.5v-165h-230v535h-80v134h80v71h230v-71h212v-134h-212v-115c50 55.333 123 83 219 83c84 0 149.167 -26.667 195.5 -80z" />
    <glyph glyph-name="uni0453" unicode="&#x453;" horiz-adv-x="573" 
d="M558 545v-156h-287v-389h-245v545h532zM169 597l70 133h224l-120 -133h-174z" />
    <glyph glyph-name="uni0454" unicode="&#x454;" horiz-adv-x="767" 
d="M478.5 144.5c23.667 17.667 39.166 41.499 46.499 71.499h230c-8 -45.333 -28.333 -86.333 -61 -123s-75 -65.667 -127 -87s-110 -32 -174 -32c-68.667 0 -132 12.833 -190 38.5s-103.833 61 -137.5 106s-50.5 95.167 -50.5 150.5c0 56 16.667 106.5 50 151.5
s78.833 80.167 136.5 105.5s121.5 38 191.5 38c66.667 0 125.5 -10.167 176.5 -30.5s92.333 -48.833 124 -85.5s52.5 -79 62.5 -127h-230c-7.33301 30 -22.833 54 -46.5 72s-52.167 27 -85.5 27c-32 0 -59.667 -7.66699 -83 -23s-40.666 -36.666 -51.999 -63.999h156v-126
h-156c10 -27.333 26.667 -49 50 -65s50.666 -24 81.999 -24c34.667 0 63.834 8.83301 87.501 26.5z" />
    <glyph glyph-name="uni0455" unicode="&#x455;" horiz-adv-x="762" 
d="M429 325l57 0.998047c78.667 0 142.5 -10.167 191.5 -30.5s73.5 -60.833 73.5 -121.5c0 -78.667 -36.5 -131.167 -109.5 -157.5s-156.5 -39.5 -250.5 -39.5c-93.333 0 -178.833 13.833 -256.5 41.5s-116.5 80.834 -116.5 159.501h232
c0 -31.333 13.667 -52.166 41 -62.499s60.666 -15.5 99.999 -15.5c44.667 0 77.834 5.5 99.501 16.5s32.5 28.833 32.5 53.5c0 22 -12.667 35.833 -38 41.5s-57.333 8.5 -96 8.5h-35c-60.667 0 -114.5 3.16699 -161.5 9.5s-87.833 21.5 -122.5 45.5s-52 60 -52 108
c0 76 37.5 125.667 112.5 149s161.5 35 259.5 35c92.667 0 176 -13.667 250 -41s111 -80.333 111 -159l-230 1c0 34 -17.333 55 -52 63s-62 12 -82 12c-30.667 0 -61.167 -3.5 -91.5 -10.5s-45.5 -22.5 -45.5 -46.5c0 -40 45 -60.667 135 -62c19.333 0 34 0.333008 44 1z
" />
    <glyph glyph-name="uni0456" unicode="&#x456;" horiz-adv-x="283" 
d="M256 740h-230v-151h230v151zM256 0h-230v560h230v-560z" />
    <glyph glyph-name="uni0457" unicode="&#x457;" horiz-adv-x="504" 
d="M52.5 610.5c-18.333 18.333 -27.5 40.833 -27.5 67.5c0 26 9.16699 48 27.5 66s40.833 27 67.5 27c26 0 48 -9 66 -27s27 -40 27 -66c0 -26.667 -9 -49.167 -27 -67.5s-40 -27.5 -66 -27.5c-26.667 0 -49.167 9.16699 -67.5 27.5zM318.5 610.5
c-18.333 18.333 -27.5 40.833 -27.5 67.5c0 26 9.16699 48 27.5 66s40.833 27 67.5 27c26 0 48 -9 66 -27s27 -40 27 -66c0 -26.667 -9 -49.167 -27 -67.5s-40 -27.5 -66 -27.5c-26.667 0 -49.167 9.16699 -67.5 27.5zM367 0h-230v545h230v-545z" />
    <glyph glyph-name="uni0458" unicode="&#x458;" horiz-adv-x="299" 
d="M39 590v150h230v-150h-230zM39 561l230 -0.000976562v-585c0 -77.333 -28 -130.166 -84 -158.499s-119.333 -42.5 -190 -42.5c-24 0 -45.667 1.33301 -65 4v180c32 0 55.667 2.16699 71 6.5s25.5 11.5 30.5 21.5s7.5 25 7.5 45v529z" />
    <glyph glyph-name="uni0459" unicode="&#x459;" horiz-adv-x="1273" 
d="M1184.5 352c46.333 -34 69.5 -84.334 69.5 -151.001v-3c0 -63.333 -18.5 -112.166 -55.5 -146.499s-100.167 -51.5 -189.5 -51.5c-18.667 -0 -32.334 0.333008 -41.001 1v-1h-398v388h-204c-6.66699 -81.333 -13.667 -140.833 -21 -178.5s-18.666 -69.167 -33.999 -94.5
c-26.667 -46 -62.667 -77.167 -108 -93.5s-90.666 -24.5 -135.999 -24.5c-16 0 -29.667 0.666992 -41 2v170c25.333 0 44.166 2.83301 56.499 8.5s21 13 26 22s10.833 23.833 17.5 44.5c10 35.333 16.167 71 18.5 107s3.5 89 3.5 159v33h652v-140h165h2
c98.667 0 171.167 -17 217.5 -51zM1000 134.999c14.667 2.66699 27 9.33203 37 19.999s15 27.334 15 50.001c0 23.333 -5.16699 40 -15.5 50s-22.5 15.833 -36.5 17.5s-35.667 2.5 -65 2.5h-1h-134v-143c66.667 0 105 -0.333008 115 -1h25c25.333 0 45.333 1.33301 60 4z
" />
    <glyph glyph-name="uni045A" unicode="&#x45a;" horiz-adv-x="1228" 
d="M1140.5 352c46.333 -34 69.501 -84.334 69.501 -151.001v-3c0 -63.333 -18.5 -112.166 -55.5 -146.499s-100.167 -51.5 -189.5 -51.5c-18.667 -0 -32.334 0.333008 -41.001 1v-1h-397v203h-279v-203h-222v545h222v-197h279v197h229v-142h165h2
c98.667 0 171.167 -17 217.5 -51zM955.001 134.999c14.667 2.66699 27 9.33203 37 19.999s15 27.334 15 50.001c0 23.333 -5.16699 40 -15.5 50s-22.5 15.833 -36.5 17.5s-35.667 2.5 -65 2.5h-1h-133v-143c66 0 104 -0.333008 114 -1h25c25.333 0 45.333 1.33301 60 4z" />
    <glyph glyph-name="uni045B" unicode="&#x45b;" horiz-adv-x="820" 
d="M729.5 423.5c46.333 -53 69.5 -139.166 69.5 -258.499v-165h-230v162c0 44 -2.5 79.667 -7.5 107s-16.5 49.666 -34.5 66.999s-45.333 26 -82 26c-38 0 -66.5 -9.66699 -85.5 -29s-31.167 -42.833 -36.5 -70.5s-8 -60.167 -8 -97.5v-165h-230v535h-80v134h80v71h230v-71
h212v-134h-212v-115c50 55.333 123 83 219 83c84 0 149.167 -26.5 195.5 -79.5z" />
    <glyph glyph-name="uni045C" unicode="&#x45c;" horiz-adv-x="771" 
d="M494 301l285 -301h-268l-255 253v-253h-230v545h230v-199l224 199h271zM261 597l70 133h224l-120 -133h-174z" />
    <glyph glyph-name="uni045D" unicode="&#x45d;" 
d="M249 231l291 314h230v-545h-230v315l-291 -315h-223v545h223v-314zM202 730h224l70 -133h-174z" />
    <glyph glyph-name="uni045E" unicode="&#x45e;" horiz-adv-x="876" 
d="M868 545l-336 -668.002c-22 -44 -64.5 -72.333 -127.5 -85s-133.833 -19 -212.5 -19v183c38 0 64.333 2.33301 79 7s22 11.334 22 20.001c0 2.66699 -1.33301 7.33398 -4 14.001l-281 548h246l186 -403l182 403h246zM672 767.998c0 -66 -22.833 -115.667 -68.5 -149
s-104.834 -50 -177.501 -50c-74.667 0 -135.167 16.667 -181.5 50s-68.833 83 -67.5 149h140c0 -29.333 9.83301 -54.166 29.5 -74.499s45.834 -30.5 78.501 -30.5s58.667 10.167 78 30.5s29 45.166 29 74.499h140z" />
    <glyph glyph-name="uni045F" unicode="&#x45f;" horiz-adv-x="770" 
d="M514 545h230v-545h-249v-87h-197v87h-272v545h230v-386h258v386z" />
    <glyph glyph-name="uni0462" unicode="&#x462;" horiz-adv-x="1015" 
d="M850 482c47.333 -20 84.168 -49.333 110.501 -88s39.5 -85 39.5 -139v-4c0 -49.333 -13.167 -93 -39.5 -131s-63.333 -67.5 -111 -88.5s-102.5 -31.5 -164.5 -31.5h-537v559h-137v134h137v47h246v-47h273v-134h-273v-47h288h2c63.333 0 118.666 -10 165.999 -30z
M747.002 179c20.667 12.667 30.999 38.334 30.999 77.001c0 27.333 -5 47.666 -15 60.999s-23.5 22 -40.5 26s-39.833 6 -68.5 6h-1h-259v-188c78.667 0 133.834 -0.166992 165.501 -0.5s53.167 -0.5 64.5 -0.5h30c41.333 0 72.333 6.33301 93 19z" />
    <glyph glyph-name="uni0463" unicode="&#x463;" horiz-adv-x="849" 
d="M763.5 352c46.333 -34 69.501 -84.334 69.501 -151.001v-3c0 -63.333 -18.5 -112.166 -55.5 -146.499s-100.167 -51.5 -189.5 -51.5c-18.667 -0 -32.334 0.333008 -41.001 1v-1h-449l-3 473v25h-90v136h90v106h230v-106h202v-136h-202l1 -95h218h2
c98.667 0 171.167 -17 217.5 -51zM578.501 134.999c15 2.66699 27.5 9.33203 37.5 19.999s15 27.334 15 50.001c0 23.333 -5.16699 40 -15.5 50s-22.5 15.833 -36.5 17.5s-35.667 2.5 -65 2.5h-2h-186l1 -143c99.333 0 155 -0.333008 167 -1h25
c24.667 0 44.5 1.33301 59.5 4z" />
    <glyph glyph-name="uni046A" unicode="&#x46a;" horiz-adv-x="1359" 
d="M1363 0l-298 0.000976562l-248 278v-278h-261v293l-262 -293h-298l247 265c39.333 44 77.5 75.167 114.5 93.5s77.167 29.166 120.5 32.499l-367 349h1152l-370 -350c40 -4 77.667 -15.333 113 -34s72 -49 110 -91zM679 444.001l193 173h-376z" />
    <glyph glyph-name="uni046B" unicode="&#x46b;" horiz-adv-x="1235" 
d="M1234 0l-301 0.000976562l-198 201v-201h-230v211l-208 -211h-301l197 176c38 34 73 60.167 105 78.5s62.667 31.166 92 38.499l-315 252h1097l-322 -255c28.667 -8 58.167 -21 88.5 -39s63.833 -43.333 100.5 -76zM616 315.001l141 107h-276z" />
    <glyph glyph-name="uni0472" unicode="&#x472;" horiz-adv-x="1011" 
d="M760 705.5c73.333 -33.667 130.833 -79.998 172.5 -138.998s62.5 -125.5 62.5 -199.5c0 -73.333 -20.833 -139.333 -62.5 -198s-99.167 -104.834 -172.5 -138.501s-155.666 -50.5 -246.999 -50.5c-88 0 -169.333 16.833 -244 50.5s-133.834 80 -177.501 139
s-65.5 124.833 -65.5 197.5c0 73.333 21.833 139.666 65.5 198.999s102.834 105.833 177.501 139.5s156 50.5 244 50.5c91.333 0 173.666 -16.833 246.999 -50.5zM384.5 533.002c-38.333 -22.667 -65.502 -54 -81.502 -94c14 9.33301 31.333 14 52 14s43 -3.5 67 -10.5
s55 -17.5 93 -31.5c40 -14 71.167 -24.333 93.5 -31s43.166 -10 62.499 -10c27.333 0 48.333 8.33301 63 25c-4.66699 36 -18.167 67 -40.5 93s-49.666 45.667 -81.999 59s-66.166 20 -101.499 20c-45.333 0 -87.166 -11.333 -125.499 -34zM632.998 196.502
c37.333 19.667 65 47.5 83 83.5c-12.667 -6.66699 -28 -10 -46 -10c-20 0 -41.833 3.5 -65.5 10.5s-54.167 17.5 -91.5 31.5c-38.667 14 -69.667 24.5 -93 31.5s-45.333 10.5 -66 10.5c-26 0 -46.333 -7.33301 -61 -22c6 -34 20 -63.5 42 -88.5s48.667 -44 80 -57
s64 -19.5 98 -19.5c42.667 0 82.667 9.83301 120 29.5z" />
    <glyph glyph-name="uni0473" unicode="&#x473;" 
d="M601 530c58 -25.333 103.334 -60.5 136.001 -105.5s49 -95.5 49 -151.5c0 -55.333 -16.5 -105.5 -49.5 -150.5s-78.333 -80.167 -136 -105.5s-122.5 -38 -194.5 -38c-69.333 0 -134.333 12.833 -195 38.5s-109.167 61 -145.5 106s-54.5 94.833 -54.5 149.5
c0 55.333 18.167 105.5 54.5 150.5s84.666 80.333 144.999 106s125.5 38.5 195.5 38.5c72 0 137 -12.667 195 -38zM311.501 397c-29.667 -18 -49.835 -43.667 -60.502 -77c14 7.33301 31.333 11 52 11c18.667 0 39.334 -2.5 62.001 -7.5s36.334 -8.16699 41.001 -9.5
c44 -11.333 77.667 -17 101 -17c19.333 0 35 3 47 9c-6.66699 38 -24 67.167 -52 87.5s-60 30.5 -96 30.5c-33.333 0 -64.833 -9 -94.5 -27zM488 143c24.667 14 43 34.333 55 61c-10 -3.33301 -22.333 -5 -37 -5c-18.667 0 -39.5 2.66699 -62.5 8s-36.5 8.33301 -40.5 9
c-45.333 11.333 -79.666 17 -102.999 17c-20 0 -36 -3 -48 -9c10.667 -32 30.667 -57 60 -75s60.666 -27 93.999 -27c30 0 57.333 7 82 21z" />
    <glyph glyph-name="uni0474" unicode="&#x474;" horiz-adv-x="1154" 
d="M790 679c34 57.333 94.002 86 180.002 86c49.333 0 106.666 -8.33301 171.999 -25l-34 -120c-12.667 3.33301 -25.667 5 -39 5c-16.667 0 -30.834 -3.83301 -42.501 -11.5s-21.667 -18 -30 -31s-19.833 -33.167 -34.5 -60.5l-255 -522h-287l-381 740h267l258 -500z" />
    <glyph glyph-name="uni0475" unicode="&#x475;" horiz-adv-x="929" 
d="M549 484c24.667 60 85.333 90 182 90c54 0 116.333 -8.66699 187 -26l-43 -115c-18 4 -33.333 6 -46 6c-18 0 -32.667 -3.66699 -44 -11s-21.333 -17.833 -30 -31.5s-20.667 -35.167 -36 -64.5l-18 -38l-141 -294h-287l-262 545h248l159 -374l67 158z" />
    <glyph glyph-name="uni0490" unicode="&#x490;" horiz-adv-x="780" 
d="M566 740v81h193v-256h-471v-565h-247v740h525z" />
    <glyph glyph-name="uni0491" unicode="&#x491;" horiz-adv-x="567" 
d="M365 640h197v-185h-4v-66h-287v-389h-245v545h339v95z" />
    <glyph glyph-name="uni0492" unicode="&#x492;" horiz-adv-x="909" 
d="M883 740v-190h-531v-96h307v-174h-307v-280h-247v280h-94v174h94v286h778z" />
    <glyph glyph-name="uni0493" unicode="&#x493;" horiz-adv-x="761" 
d="M731 545v-165h-426v-79h262v-159h-262v-142h-230v142h-64v159h64v244h656z" />
    <glyph glyph-name="uni0494" unicode="&#x494;" horiz-adv-x="837" 
d="M637 460.5c56.667 -31 100.666 -71.999 131.999 -122.999s47 -105.5 47 -163.5c0 -77.333 -13.333 -144 -40 -200s-65.167 -99 -115.5 -129s-110.833 -45 -181.5 -45h-162v165h96c40.667 0 74.167 11.667 100.5 35s45.333 51.166 57 83.499s17.5 62.5 17.5 90.5
c0 50 -12.167 94.667 -36.5 134s-77.166 59 -158.499 59c-27.333 0 -49.833 -2.5 -67.5 -7.5s-35.167 -11.5 -52.5 -19.5v-340h-247v740h674v-136h-427v-126c46 19.333 103.333 29 172 29c71.333 0 135.333 -15.5 192 -46.5z" />
    <glyph glyph-name="uni0495" unicode="&#x495;" horiz-adv-x="790" 
d="M596 307c52.667 -23.333 92.332 -55.498 118.999 -96.498s40 -87.833 40 -140.5c0 -73.333 -13.333 -129.833 -40 -169.5s-62.5 -66.334 -107.5 -80.001s-100.5 -20.5 -166.5 -20.5h-125v147h58c45.333 0 80.5 5.5 105.5 16.5s42.5 27 52.5 48s15 48.5 15 82.5
c0 36.667 -13 67 -39 91s-67.667 36 -125 36c-31.333 0 -55.166 -2.83301 -71.499 -8.5s-30.833 -12.834 -43.5 -21.501v-191h-230v545h658v-125h-428v-93c38.667 10 84 15 136 15c75.333 0 139.333 -11.667 192 -35z" />
    <glyph glyph-name="uni0496" unicode="&#x496;" horiz-adv-x="1478" 
d="M1033 401l263 -261h175v-250h-227v110h-111l-300 311v-311h-246v302l-292 -302h-303l403 401l-388 339h306l274 -250v250h246v-258l283 258h306z" />
    <glyph glyph-name="uni0497" unicode="&#x497;" horiz-adv-x="1233" 
d="M916 301l188 -213h124v-228h-213v140h-91l-223 248v-248h-230v246l-222 -246h-258l266 301l-238 244h261l191 -193v193h230v-194l192 194h261z" />
    <glyph glyph-name="uni0498" unicode="&#x498;" horiz-adv-x="965" 
d="M943 245c-0.666992 -86 -37.001 -150.338 -109.001 -193.005s-167.333 -67 -286 -73v-25c38 0 72.833 -6.16699 104.5 -18.5s47.167 -36.166 46.5 -71.499c0 -45.333 -23.667 -75.833 -71 -91.5s-99 -23.5 -155 -23.5c-136 0 -204 41 -204 123h111
c0 -20 10 -32.833 30 -38.5s37.333 -8.5 52 -8.5c16 0 33.833 2 53.5 6s29.5 14.333 29.5 31c0 12 -7.66699 19.833 -23 23.5s-29.333 5.66699 -42 6s-20.334 0.5 -23.001 0.5h-38v88c-128 7.33301 -225.833 36.833 -293.5 88.5s-101.5 125.167 -101.5 220.5h234
c0 -51.333 22.667 -88.833 68 -112.5s100.333 -35.167 165 -34.5c56.667 -1.33301 105 6.33398 145 23.001s60.333 43.334 61 80.001c0 18.667 -5 32.834 -15 42.501s-25.667 16.334 -47 20.001s-51.333 5.5 -90 5.5h-185v144h185c53.333 0 91.333 6.66699 114 20
s34 29.666 34 48.999c0 24.667 -19.5 42.834 -58.5 54.501s-86.833 17.834 -143.5 18.501c-64.667 0 -119.667 -6.83301 -165 -20.5s-68 -34.834 -68 -63.501h-234c0 96 48.5 161.167 145.5 195.5s204.167 51.5 321.5 51.5c71.333 0 137.833 -4.5 199.5 -13.5
s115.834 -29.833 162.501 -62.5s70 -81 70 -145c0 -65.333 -40 -110 -120 -134c86.667 -26 133.334 -79.333 140.001 -160v-2v0z" />
    <glyph glyph-name="uni0499" unicode="&#x499;" horiz-adv-x="758" 
d="M747 186c-0.666992 -59.333 -26.168 -105.332 -76.501 -137.999s-119.166 -52.667 -206.499 -60v-35c38 0 72.833 -6.16699 104.5 -18.5s47.167 -36.166 46.5 -71.499c0 -45.333 -23.667 -75.833 -71 -91.5s-98.666 -23.5 -153.999 -23.5c-136.667 0 -205 41 -205 123
h111c0 -20 10.167 -32.833 30.5 -38.5s37.833 -8.5 52.5 -8.5c16 0 33.667 2 53 6s29 14.333 29 31c0 20 -25 30 -75 30h-51v96c-68.667 4.66699 -127.5 18.667 -176.5 42s-85.833 52.166 -110.5 86.499s-37 70.166 -37 107.499h227c0 -30.667 14.333 -53.667 43 -69
s63.667 -23.666 105 -24.999c36.667 -2 67.834 1.66699 93.501 11s38.5 25.333 38.5 48c-0.666992 14.667 -9.33398 25 -26.001 31s-44.334 9 -83.001 9h-94v110h94c41.333 0 69.333 3.33301 84 10s22 16 22 28c0 17.333 -12.5 30.166 -37.5 38.499s-55.5 12.5 -91.5 12.5
c-41.333 0 -76.333 -4.66699 -105 -14s-43 -24.333 -43 -45h-227c0 48.667 20.5 87.5 61.5 116.5s90 49.333 147 61s112.5 17.5 166.5 17.5c52.667 0 105 -5.33301 157 -16s96.333 -29.5 133 -56.5s55 -63.833 55 -110.5c0 -42.667 -26.333 -73 -79 -91
c63.333 -18.667 95 -52.667 95 -102v-1v0z" />
    <glyph glyph-name="uni049A" unicode="&#x49a;" horiz-adv-x="935" 
d="M488 401l262 -261h184v-250h-228v110h-118l-300 310v-310h-247v740h247v-257l282 257h306z" />
    <glyph glyph-name="uni049B" unicode="&#x49b;" horiz-adv-x="847" 
d="M494 301l202 -213h145v-228h-213v140h-117l-255 253v-253h-230v545h230v-199l224 199h271z" />
    </font>
</defs>
</svg>
