<svg width="79" height="180" viewBox="0 0 79 180" fill="none" xmlns="http://www.w3.org/2000/svg">
<path d="M44.0326 88.4097C49.7838 88.6493 54.7562 90.0871 58.9497 92.7231C63.1433 95.3591 66.3185 98.7139 68.4752 102.788C70.6319 106.742 71.7102 110.995 71.7102 115.548C71.7102 125.613 68.4152 133.76 61.8253 139.991C55.3552 146.101 46.8483 149.157 36.3044 149.157C24.802 149.157 14.9172 144.664 6.64982 135.677L6.47009 135.318C6.47009 134.839 6.70973 134.479 7.18899 134.24C7.78808 133.88 8.20743 133.88 8.44707 134.24C10.9632 136.636 14.0784 138.493 17.7928 139.811C21.5071 141.129 25.0417 141.788 28.3965 141.788C36.544 141.788 42.4151 139.511 46.0096 134.958C49.7239 130.405 51.581 124.474 51.581 117.166C51.581 99.313 42.2952 90.3867 23.7237 90.3867C23.2444 90.3867 22.9449 90.0871 22.8251 89.4881C22.7052 88.7692 23.0048 88.4097 23.7237 88.4097C32.7099 88.4097 39.0003 86.3129 42.5948 82.1193C46.3091 77.9258 48.1662 71.9349 48.1662 64.1469C48.1662 49.4094 42.475 42.0407 31.0924 42.0407C26.5394 42.0407 22.1062 43.2389 17.7928 45.6352C13.5992 47.9117 10.5439 51.2666 8.62679 55.6998C8.62679 55.8196 8.44707 55.8795 8.08762 55.8795C7.72817 55.8795 7.30881 55.7597 6.82954 55.5201C6.47009 55.2804 6.35028 55.1007 6.47009 54.9809C8.98624 48.1514 13.1798 42.7596 19.0508 38.8057C24.9218 34.7319 31.6915 32.695 39.3597 32.695C47.6271 32.695 54.3967 35.0314 59.6686 39.7043C65.0604 44.3771 67.7563 50.4279 67.7563 57.8565C67.7563 64.4464 65.5996 70.557 61.2862 76.1884C57.0926 81.8198 51.3414 85.8936 44.0326 88.4097Z" fill="#6B46BB"/>
</svg>
