<svg width="323" height="26" viewBox="0 0 323 26" fill="none" xmlns="http://www.w3.org/2000/svg">
<path d="M0.972168 25.0001V0.462464H15.1418C17.561 0.462464 19.5309 1.0039 21.0515 2.08678C22.5952 3.14662 23.3671 4.82854 23.3671 7.13255C23.3671 7.73159 23.2749 8.30759 23.0906 8.86055C22.4915 10.3812 21.4317 11.441 19.911 12.0401C20.3488 12.1783 20.8672 12.4317 21.4662 12.8004C23.1482 14.0215 23.9891 15.7495 23.9891 17.9844C23.9891 20.3575 23.1712 22.1201 21.5354 23.2721C19.9226 24.4241 17.872 25.0001 15.3837 25.0001H0.972168ZM14.2086 5.19719H6.74369V10.0356H14.2086C16.3283 10.0356 17.3882 9.22918 17.3882 7.61638C17.3882 6.69478 17.1002 6.06119 16.5242 5.71559C15.9712 5.36999 15.1994 5.19719 14.2086 5.19719ZM14.3469 14.7703H6.74369V20.2653H14.3469C16.7891 20.2653 18.0103 19.3437 18.0103 17.5005C18.0103 15.6804 16.7891 14.7703 14.3469 14.7703Z" fill="white"/>
<path d="M33.6905 25.0001H27.4351L33.1375 15.2541C29.7046 14.2173 27.9881 11.9133 27.9881 8.34215C27.9881 5.69255 28.7715 3.72262 30.3382 2.43238C31.9279 1.1191 34.0707 0.462464 36.7663 0.462464H51.1087V25.0001H45.2335V16.0145H38.8745L33.6905 25.0001ZM37.3884 11.0724H45.2335V5.50823H37.3884C35.1535 5.50823 34.0361 6.44135 34.0361 8.30759C34.0361 10.1508 35.1535 11.0724 37.3884 11.0724Z" fill="white"/>
<path d="M67.6746 0.0477438C68.9418 0.0477438 70.1514 0.151424 71.3034 0.358784C72.4784 0.566144 73.6304 0.911744 74.7594 1.39559C75.9114 1.85638 76.833 2.57062 77.5242 3.5383C78.2154 4.48294 78.561 5.62342 78.561 6.95975C78.561 8.18087 78.2039 9.27526 77.4896 10.2429C76.7984 11.2106 75.8768 11.8903 74.7248 12.282C76.0612 12.6737 77.1325 13.3073 77.9389 14.1828C78.7684 15.0583 79.1831 16.1527 79.1831 17.466C79.1831 18.9866 78.8375 20.2884 78.1463 21.3713C77.4781 22.4541 76.5565 23.2836 75.3815 23.8596C74.2064 24.4125 72.9853 24.8042 71.7181 25.0346C70.4739 25.2881 69.1376 25.4148 67.7092 25.4148C65.313 25.4148 63.0781 24.9655 61.0045 24.0669C58.9309 23.1453 57.4333 21.7284 56.5117 19.8161C56.0509 18.8484 55.786 17.9959 55.7168 17.2586H61.592C61.7303 17.6503 61.9492 18.0074 62.2487 18.33C63.1703 19.5972 64.9789 20.2308 67.6746 20.2308C71.338 20.2308 73.1696 19.2401 73.1696 17.2586C73.1696 15.6919 71.649 14.9085 68.6077 14.9085H64.9098V10.1738H68.504C71.1997 10.1738 72.5476 9.35591 72.5476 7.72007C72.5476 6.06119 70.9002 5.23174 67.6055 5.23174C66.0157 5.23174 64.6909 5.47367 63.6311 5.95751C62.7786 6.39527 62.1565 6.97127 61.7648 7.6855H55.8551C56.1085 5.95751 56.8573 4.50599 58.1015 3.33095C59.3456 2.13287 60.8663 1.25735 62.6634 0.704386C64.0458 0.266625 65.7162 0.0477438 67.6746 0.0477438Z" fill="white"/>
<path d="M102.361 25.0001L100.53 20.7492H88.8485L87.0168 25.0001H81.1071L91.8552 0.427905H97.8687L108.582 25.0001H102.361ZM90.9567 15.8417H98.4217L94.6892 7.1671L90.9567 15.8417Z" fill="white"/>
<path d="M130.012 25.0001V15.2887H118.02V25.0001H112.145V0.462464H118.02V10.1047H130.012V0.462464H135.853V25.0001H130.012Z" fill="white"/>
<path d="M147.72 8.30759H155.669C158.526 8.30759 160.772 8.99879 162.408 10.3812C164.067 11.7636 164.896 13.8602 164.896 16.6711C164.896 19.482 164.078 21.5786 162.442 22.961C160.807 24.3204 158.549 25.0001 155.669 25.0001H141.845V0.462464H147.72V8.30759ZM155.081 13.457H147.72V19.8852H155.081C157.593 19.8852 158.848 18.8138 158.848 16.6711C158.848 14.5284 157.593 13.457 155.081 13.457Z" fill="white"/>
<path d="M204.768 4.71335C201.911 4.71335 200.483 5.48518 200.483 7.02886C200.483 8.36518 201.589 9.14855 203.801 9.37895C204.699 9.47111 205.321 9.5287 205.667 9.55174C206.957 9.62086 208.075 9.72455 209.019 9.86279C209.964 10.001 210.966 10.2429 212.026 10.5885C213.086 10.9341 213.95 11.3834 214.618 11.9364C215.286 12.4893 215.839 13.2381 216.277 14.1828C216.738 15.1274 216.968 16.2449 216.968 17.5351C216.968 19.0097 216.646 20.2884 216 21.3713C215.355 22.4541 214.48 23.2836 213.374 23.8596C212.291 24.4125 211.151 24.8157 209.952 25.0692C208.754 25.3226 207.464 25.4493 206.082 25.4493C204.146 25.4493 202.372 25.2189 200.759 24.7581C199.147 24.2973 197.684 23.4679 196.37 22.2698C195.08 21.0717 194.216 19.5626 193.778 17.7425H199.965C200.126 18.1111 200.345 18.4452 200.621 18.7447C200.898 19.1133 201.289 19.4359 201.796 19.7124C202.856 20.3805 204.285 20.7146 206.082 20.7146C206.612 20.7146 207.119 20.6801 207.602 20.6109C208.086 20.5418 208.593 20.4151 209.123 20.2308C209.653 20.0465 210.079 19.7585 210.402 19.3668C210.724 18.9751 210.886 18.5028 210.886 17.9498C210.886 17.0052 210.563 16.3485 209.918 15.9799C209.296 15.6113 208.432 15.3693 207.326 15.2541C206.612 15.162 205.955 15.0929 205.356 15.0468C198.098 14.609 194.47 12.017 194.47 7.27079C194.47 6.18791 194.677 5.22023 195.092 4.36775C195.529 3.51527 196.082 2.82407 196.751 2.29415C197.442 1.76423 198.248 1.32646 199.17 0.980864C200.091 0.612224 201.013 0.358785 201.935 0.220546C202.856 0.0823048 203.801 0.0131836 204.768 0.0131836C206.082 0.0131836 207.326 0.128384 208.501 0.358784C209.676 0.589185 210.816 0.957825 211.922 1.4647C213.051 1.97158 214.007 2.69734 214.791 3.64198C215.574 4.56359 216.104 5.66951 216.381 6.95975H210.471C210.356 6.75239 210.148 6.49895 209.849 6.19942C209.526 5.96902 209.146 5.7271 208.708 5.47367C207.625 4.96678 206.312 4.71335 204.768 4.71335Z" fill="white"/>
<path d="M219.26 5.57734V0.462464H243.694V5.57734H234.397V25.0001H228.556V5.57734H219.26Z" fill="white"/>
<path d="M262.191 14.7012V25.0001H256.039V14.6666L245.153 0.462464H252.618L259.288 9.37895L265.993 0.462464H272.594L262.191 14.7012Z" fill="white"/>
<path d="M295.986 19.8161V25.0001H275.63V0.462464H281.505V19.8161H295.986Z" fill="white"/>
<path d="M300.132 25.0001V0.462464H320.661V5.30086H306.007V9.72454H314.751V14.6666H306.007V19.9197H322.009V25.0001H300.132Z" fill="white"/>
<path d="M173 4L187 22M187 4L173 22" stroke="white" stroke-width="1.92"/>
</svg>
